<svg xmlns="http://www.w3.org/2000/svg" xmlns:xlink="http://www.w3.org/1999/xlink" viewBox="0 0 600 400"><path d="M 0 0
L 600 0
L 600 400
L 0 400
L 0 0" style="stroke:none;fill:white"/><text x="19" y="26" style="stroke:none;fill:rgb(70,70,70);font-size:15.3px;font-family:'Roboto Medium',sans-serif">490</text><text x="19" y="67" style="stroke:none;fill:rgb(70,70,70);font-size:15.3px;font-family:'Roboto Medium',sans-serif">440</text><text x="19" y="109" style="stroke:none;fill:rgb(70,70,70);font-size:15.3px;font-family:'Roboto Medium',sans-serif">390</text><text x="19" y="150" style="stroke:none;fill:rgb(70,70,70);font-size:15.3px;font-family:'Roboto Medium',sans-serif">340</text><text x="19" y="192" style="stroke:none;fill:rgb(70,70,70);font-size:15.3px;font-family:'Roboto Medium',sans-serif">290</text><text x="19" y="234" style="stroke:none;fill:rgb(70,70,70);font-size:15.3px;font-family:'Roboto Medium',sans-serif">240</text><text x="19" y="275" style="stroke:none;fill:rgb(70,70,70);font-size:15.3px;font-family:'Roboto Medium',sans-serif">190</text><text x="19" y="317" style="stroke:none;fill:rgb(70,70,70);font-size:15.3px;font-family:'Roboto Medium',sans-serif">140</text><text x="28" y="359" style="stroke:none;fill:rgb(70,70,70);font-size:15.3px;font-family:'Roboto Medium',sans-serif">90</text><path d="M 52 20
L 580 20" style="stroke-width:1;stroke:rgb(224,230,242);fill:none"/><path d="M 52 61
L 580 61" style="stroke-width:1;stroke:rgb(224,230,242);fill:none"/><path d="M 52 103
L 580 103" style="stroke-width:1;stroke:rgb(224,230,242);fill:none"/><path d="M 52 145
L 580 145" style="stroke-width:1;stroke:rgb(224,230,242);fill:none"/><path d="M 52 187
L 580 187" style="stroke-width:1;stroke:rgb(224,230,242);fill:none"/><path d="M 52 229
L 580 229" style="stroke-width:1;stroke:rgb(224,230,242);fill:none"/><path d="M 52 271
L 580 271" style="stroke-width:1;stroke:rgb(224,230,242);fill:none"/><path d="M 52 313
L 580 313" style="stroke-width:1;stroke:rgb(224,230,242);fill:none"/><path d="M 56 355
L 580 355" style="stroke-width:1;stroke:rgb(110,112,121);fill:none"/><path d="M 56 360
L 56 355" style="stroke-width:1;stroke:rgb(110,112,121);fill:none"/><path d="M 130 360
L 130 355" style="stroke-width:1;stroke:rgb(110,112,121);fill:none"/><path d="M 205 360
L 205 355" style="stroke-width:1;stroke:rgb(110,112,121);fill:none"/><path d="M 280 360
L 280 355" style="stroke-width:1;stroke:rgb(110,112,121);fill:none"/><path d="M 355 360
L 355 355" style="stroke-width:1;stroke:rgb(110,112,121);fill:none"/><path d="M 430 360
L 430 355" style="stroke-width:1;stroke:rgb(110,112,121);fill:none"/><path d="M 505 360
L 505 355" style="stroke-width:1;stroke:rgb(110,112,121);fill:none"/><path d="M 580 360
L 580 355" style="stroke-width:1;stroke:rgb(110,112,121);fill:none"/><text x="78" y="378" style="stroke:none;fill:rgb(70,70,70);font-size:15.3px;font-family:'Roboto Medium',sans-serif">Mon</text><text x="154" y="378" style="stroke:none;fill:rgb(70,70,70);font-size:15.3px;font-family:'Roboto Medium',sans-serif">Tue</text><text x="227" y="378" style="stroke:none;fill:rgb(70,70,70);font-size:15.3px;font-family:'Roboto Medium',sans-serif">Wed</text><text x="304" y="378" style="stroke:none;fill:rgb(70,70,70);font-size:15.3px;font-family:'Roboto Medium',sans-serif">Thu</text><text x="383" y="378" style="stroke:none;fill:rgb(70,70,70);font-size:15.3px;font-family:'Roboto Medium',sans-serif">Fri</text><text x="456" y="378" style="stroke:none;fill:rgb(70,70,70);font-size:15.3px;font-family:'Roboto Medium',sans-serif">Sat</text><text x="529" y="378" style="stroke:none;fill:rgb(70,70,70);font-size:15.3px;font-family:'Roboto Medium',sans-serif">Sun</text><path d="M 93 330
L 167 320
L 242 346
L 317 319
L 392 355
L 467 238
L 542 255" style="stroke-width:2;stroke:rgb(84,112,198);fill:none"/><circle cx="93" cy="330" r="2" style="stroke-width:1;stroke:rgb(84,112,198);fill:white"/><circle cx="167" cy="320" r="2" style="stroke-width:1;stroke:rgb(84,112,198);fill:white"/><circle cx="242" cy="346" r="2" style="stroke-width:1;stroke:rgb(84,112,198);fill:white"/><circle cx="317" cy="319" r="2" style="stroke-width:1;stroke:rgb(84,112,198);fill:white"/><circle cx="392" cy="355" r="2" style="stroke-width:1;stroke:rgb(84,112,198);fill:white"/><circle cx="467" cy="238" r="2" style="stroke-width:1;stroke:rgb(84,112,198);fill:white"/><circle cx="542" cy="255" r="2" style="stroke-width:1;stroke:rgb(84,112,198);fill:white"/><path d="M 93 305
L 167 237
L 242 263
L 317 302
L 392 272
L 467 154
L 542 87" style="stroke-width:2;stroke:rgb(145,204,117);fill:none"/><circle cx="93" cy="305" r="2" style="stroke-width:1;stroke:rgb(145,204,117);fill:white"/><circle cx="167" cy="237" r="2" style="stroke-width:1;stroke:rgb(145,204,117);fill:white"/><circle cx="242" cy="263" r="2" style="stroke-width:1;stroke:rgb(145,204,117);fill:white"/><circle cx="317" cy="302" r="2" style="stroke-width:1;stroke:rgb(145,204,117);fill:white"/><circle cx="392" cy="272" r="2" style="stroke-width:1;stroke:rgb(145,204,117);fill:white"/><circle cx="467" cy="154" r="2" style="stroke-width:1;stroke:rgb(145,204,117);fill:white"/><circle cx="542" cy="87" r="2" style="stroke-width:1;stroke:rgb(145,204,117);fill:white"/><path d="M 93 163
L 167 153
L 242 179
L 317 151
L 392 104
L 467 154
L 542 163" style="stroke-width:2;stroke:rgb(250,200,88);fill:none"/><circle cx="93" cy="163" r="2" style="stroke-width:1;stroke:rgb(250,200,88);fill:white"/><circle cx="167" cy="153" r="2" style="stroke-width:1;stroke:rgb(250,200,88);fill:white"/><circle cx="242" cy="179" r="2" style="stroke-width:1;stroke:rgb(250,200,88);fill:white"/><circle cx="317" cy="151" r="2" style="stroke-width:1;stroke:rgb(250,200,88);fill:white"/><circle cx="392" cy="104" r="2" style="stroke-width:1;stroke:rgb(250,200,88);fill:white"/><circle cx="467" cy="154" r="2" style="stroke-width:1;stroke:rgb(250,200,88);fill:white"/><circle cx="542" cy="163" r="2" style="stroke-width:1;stroke:rgb(250,200,88);fill:white"/><path d="M 274 39
L 304 39" style="stroke-width:3;stroke:rgb(84,112,198);fill:none"/><circle cx="289" cy="39" r="5" style="stroke-width:3;stroke:rgb(84,112,198);fill:rgb(84,112,198)"/><text x="306" y="45" style="stroke:none;fill:rgb(70,70,70);font-size:15.3px;font-family:'Roboto Medium',sans-serif">2011</text><path d="M 361 39
L 391 39" style="stroke-width:3;stroke:rgb(145,204,117);fill:none"/><circle cx="376" cy="39" r="5" style="stroke-width:3;stroke:rgb(145,204,117);fill:rgb(145,204,117)"/><text x="393" y="45" style="stroke:none;fill:rgb(70,70,70);font-size:15.3px;font-family:'Roboto Medium',sans-serif">2012</text><path d="M 270 66
L 270 156" style="stroke-width:1;stroke:rgb(110,112,121);fill:none"/><path d="M 265 66
L 270 66" style="stroke-width:1;stroke:rgb(110,112,121);fill:none"/><path d="M 265 88
L 270 88" style="stroke-width:1;stroke:rgb(110,112,121);fill:none"/><path d="M 265 111
L 270 111" style="stroke-width:1;stroke:rgb(110,112,121);fill:none"/><path d="M 265 133
L 270 133" style="stroke-width:1;stroke:rgb(110,112,121);fill:none"/><path d="M 265 156
L 270 156" style="stroke-width:1;stroke:rgb(110,112,121);fill:none"/><text x="219" y="83" style="stroke:none;fill:rgb(70,70,70);font-size:15.3px;font-family:'Roboto Medium',sans-serif">World</text><text x="220" y="105" style="stroke:none;fill:rgb(70,70,70);font-size:15.3px;font-family:'Roboto Medium',sans-serif">China</text><text x="226" y="127" style="stroke:none;fill:rgb(70,70,70);font-size:15.3px;font-family:'Roboto Medium',sans-serif">India</text><text x="230" y="149" style="stroke:none;fill:rgb(70,70,70);font-size:15.3px;font-family:'Roboto Medium',sans-serif">USA</text><text x="270" y="175" style="stroke:none;fill:rgb(70,70,70);font-size:15.3px;font-family:'Roboto Medium',sans-serif">70</text><text x="374" y="175" style="stroke:none;fill:rgb(70,70,70);font-size:15.3px;font-family:'Roboto Medium',sans-serif">110</text><text x="453" y="175" style="stroke:none;fill:rgb(70,70,70);font-size:15.3px;font-family:'Roboto Medium',sans-serif">150</text><path d="M 375 66
L 375 152" style="stroke-width:1;stroke:rgb(224,230,242);fill:none"/><path d="M 480 66
L 480 152" style="stroke-width:1;stroke:rgb(224,230,242);fill:none"/><path d="M 271 138
L 271 138
L 271 142
L 271 142
L 271 138" style="stroke:none;fill:rgb(84,112,198)"/><path d="M 271 116
L 323 116
L 323 120
L 271 120
L 271 116" style="stroke:none;fill:rgb(84,112,198)"/><path d="M 271 93
L 375 93
L 375 97
L 271 97
L 271 93" style="stroke:none;fill:rgb(84,112,198)"/><path d="M 271 71
L 427 71
L 427 75
L 271 75
L 271 71" style="stroke:none;fill:rgb(84,112,198)"/><path d="M 271 145
L 297 145
L 297 149
L 271 149
L 271 145" style="stroke:none;fill:rgb(145,204,117)"/><path d="M 271 123
L 349 123
L 349 127
L 271 127
L 271 123" style="stroke:none;fill:rgb(145,204,117)"/><path d="M 271 100
L 401 100
L 401 104
L 271 104
L 271 100" style="stroke:none;fill:rgb(145,204,117)"/><path d="M 271 78
L 453 78
L 453 82
L 271 82
L 271 78" style="stroke:none;fill:rgb(145,204,117)"/></svg>