<svg xmlns="http://www.w3.org/2000/svg" xmlns:xlink="http://www.w3.org/1999/xlink" viewBox="0 0 600 400"><path d="M 0 0
L 600 0
L 600 400
L 0 400
L 0 0" style="stroke:none;fill:white"/><path d="M 364 29
L 394 29" style="stroke-width:3;stroke:rgb(84,112,198);fill:none"/><circle cx="379" cy="29" r="5" style="stroke-width:3;stroke:rgb(84,112,198);fill:rgb(84,112,198)"/><text x="396" y="35" style="stroke:none;fill:rgb(70,70,70);font-size:15.3px;font-family:'Roboto Medium',sans-serif">Rainfall</text><path d="M 468 29
L 498 29" style="stroke-width:3;stroke:rgb(145,204,117);fill:none"/><circle cx="483" cy="29" r="5" style="stroke-width:3;stroke:rgb(145,204,117);fill:rgb(145,204,117)"/><text x="500" y="35" style="stroke:none;fill:rgb(70,70,70);font-size:15.3px;font-family:'Roboto Medium',sans-serif">Evaporation</text><text x="19" y="26" style="stroke:none;fill:rgb(70,70,70);font-size:15.3px;font-family:'Roboto Medium',sans-serif">225</text><text x="19" y="63" style="stroke:none;fill:rgb(70,70,70);font-size:15.3px;font-family:'Roboto Medium',sans-serif">200</text><text x="19" y="100" style="stroke:none;fill:rgb(70,70,70);font-size:15.3px;font-family:'Roboto Medium',sans-serif">175</text><text x="19" y="137" style="stroke:none;fill:rgb(70,70,70);font-size:15.3px;font-family:'Roboto Medium',sans-serif">150</text><text x="19" y="174" style="stroke:none;fill:rgb(70,70,70);font-size:15.3px;font-family:'Roboto Medium',sans-serif">125</text><text x="19" y="211" style="stroke:none;fill:rgb(70,70,70);font-size:15.3px;font-family:'Roboto Medium',sans-serif">100</text><text x="28" y="248" style="stroke:none;fill:rgb(70,70,70);font-size:15.3px;font-family:'Roboto Medium',sans-serif">75</text><text x="28" y="285" style="stroke:none;fill:rgb(70,70,70);font-size:15.3px;font-family:'Roboto Medium',sans-serif">50</text><text x="28" y="322" style="stroke:none;fill:rgb(70,70,70);font-size:15.3px;font-family:'Roboto Medium',sans-serif">25</text><text x="37" y="359" style="stroke:none;fill:rgb(70,70,70);font-size:15.3px;font-family:'Roboto Medium',sans-serif">0</text><path d="M 52 20
L 580 20" style="stroke-width:1;stroke:rgb(224,230,242);fill:none"/><path d="M 52 57
L 580 57" style="stroke-width:1;stroke:rgb(224,230,242);fill:none"/><path d="M 52 94
L 580 94" style="stroke-width:1;stroke:rgb(224,230,242);fill:none"/><path d="M 52 131
L 580 131" style="stroke-width:1;stroke:rgb(224,230,242);fill:none"/><path d="M 52 168
L 580 168" style="stroke-width:1;stroke:rgb(224,230,242);fill:none"/><path d="M 52 206
L 580 206" style="stroke-width:1;stroke:rgb(224,230,242);fill:none"/><path d="M 52 243
L 580 243" style="stroke-width:1;stroke:rgb(224,230,242);fill:none"/><path d="M 52 280
L 580 280" style="stroke-width:1;stroke:rgb(224,230,242);fill:none"/><path d="M 52 317
L 580 317" style="stroke-width:1;stroke:rgb(224,230,242);fill:none"/><path d="M 56 355
L 580 355" style="stroke-width:1;stroke:rgb(110,112,121);fill:none"/><path d="M 56 360
L 56 355" style="stroke-width:1;stroke:rgb(110,112,121);fill:none"/><path d="M 99 360
L 99 355" style="stroke-width:1;stroke:rgb(110,112,121);fill:none"/><path d="M 143 360
L 143 355" style="stroke-width:1;stroke:rgb(110,112,121);fill:none"/><path d="M 187 360
L 187 355" style="stroke-width:1;stroke:rgb(110,112,121);fill:none"/><path d="M 230 360
L 230 355" style="stroke-width:1;stroke:rgb(110,112,121);fill:none"/><path d="M 274 360
L 274 355" style="stroke-width:1;stroke:rgb(110,112,121);fill:none"/><path d="M 318 360
L 318 355" style="stroke-width:1;stroke:rgb(110,112,121);fill:none"/><path d="M 361 360
L 361 355" style="stroke-width:1;stroke:rgb(110,112,121);fill:none"/><path d="M 405 360
L 405 355" style="stroke-width:1;stroke:rgb(110,112,121);fill:none"/><path d="M 449 360
L 449 355" style="stroke-width:1;stroke:rgb(110,112,121);fill:none"/><path d="M 492 360
L 492 355" style="stroke-width:1;stroke:rgb(110,112,121);fill:none"/><path d="M 536 360
L 536 355" style="stroke-width:1;stroke:rgb(110,112,121);fill:none"/><path d="M 580 360
L 580 355" style="stroke-width:1;stroke:rgb(110,112,121);fill:none"/><text x="64" y="378" style="stroke:none;fill:rgb(70,70,70);font-size:15.3px;font-family:'Roboto Medium',sans-serif">Jan</text><text x="108" y="378" style="stroke:none;fill:rgb(70,70,70);font-size:15.3px;font-family:'Roboto Medium',sans-serif">Feb</text><text x="151" y="378" style="stroke:none;fill:rgb(70,70,70);font-size:15.3px;font-family:'Roboto Medium',sans-serif">Mar</text><text x="196" y="378" style="stroke:none;fill:rgb(70,70,70);font-size:15.3px;font-family:'Roboto Medium',sans-serif">Apr</text><text x="237" y="378" style="stroke:none;fill:rgb(70,70,70);font-size:15.3px;font-family:'Roboto Medium',sans-serif">May</text><text x="283" y="378" style="stroke:none;fill:rgb(70,70,70);font-size:15.3px;font-family:'Roboto Medium',sans-serif">Jun</text><text x="329" y="378" style="stroke:none;fill:rgb(70,70,70);font-size:15.3px;font-family:'Roboto Medium',sans-serif">Jul</text><text x="369" y="378" style="stroke:none;fill:rgb(70,70,70);font-size:15.3px;font-family:'Roboto Medium',sans-serif">Aug</text><text x="414" y="378" style="stroke:none;fill:rgb(70,70,70);font-size:15.3px;font-family:'Roboto Medium',sans-serif">Sep</text><text x="458" y="378" style="stroke:none;fill:rgb(70,70,70);font-size:15.3px;font-family:'Roboto Medium',sans-serif">Oct</text><text x="500" y="378" style="stroke:none;fill:rgb(70,70,70);font-size:15.3px;font-family:'Roboto Medium',sans-serif">Nov</text><text x="545" y="378" style="stroke:none;fill:rgb(70,70,70);font-size:15.3px;font-family:'Roboto Medium',sans-serif">Dec</text><path d="M 61 353
L 76 353
L 76 354
L 61 354
L 61 353" style="stroke:none;fill:rgb(84,112,198)"/><path d="M 104 348
L 119 348
L 119 354
L 104 354
L 104 348" style="stroke:none;fill:rgb(84,112,198)"/><path d="M 148 345
L 163 345
L 163 354
L 148 354
L 148 345" style="stroke:none;fill:rgb(84,112,198)"/><path d="M 192 321
L 207 321
L 207 354
L 192 354
L 192 321" style="stroke:none;fill:rgb(84,112,198)"/><path d="M 235 317
L 250 317
L 250 354
L 235 354
L 235 317" style="stroke:none;fill:rgb(84,112,198)"/><path d="M 279 241
L 294 241
L 294 354
L 279 354
L 279 241" style="stroke:none;fill:rgb(84,112,198)"/><path d="M 323 154
L 338 154
L 338 354
L 323 354
L 323 154" style="stroke:none;fill:rgb(84,112,198)"/><path d="M 366 114
L 381 114
L 381 354
L 366 354
L 366 114" style="stroke:none;fill:rgb(84,112,198)"/><path d="M 410 307
L 425 307
L 425 354
L 410 354
L 410 307" style="stroke:none;fill:rgb(84,112,198)"/><path d="M 454 326
L 469 326
L 469 354
L 454 354
L 454 326" style="stroke:none;fill:rgb(84,112,198)"/><path d="M 497 346
L 512 346
L 512 354
L 497 354
L 497 346" style="stroke:none;fill:rgb(84,112,198)"/><path d="M 541 351
L 556 351
L 556 354
L 541 354
L 541 351" style="stroke:none;fill:rgb(84,112,198)"/><path d="M 79 352
L 94 352
L 94 354
L 79 354
L 79 352" style="stroke:none;fill:rgb(145,204,117)"/><path d="M 122 347
L 137 347
L 137 354
L 122 354
L 122 347" style="stroke:none;fill:rgb(145,204,117)"/><path d="M 166 342
L 181 342
L 181 354
L 166 354
L 166 342" style="stroke:none;fill:rgb(145,204,117)"/><path d="M 210 316
L 225 316
L 225 354
L 210 354
L 210 316" style="stroke:none;fill:rgb(145,204,117)"/><path d="M 253 313
L 268 313
L 268 354
L 253 354
L 253 313" style="stroke:none;fill:rgb(145,204,117)"/><path d="M 297 250
L 312 250
L 312 354
L 297 354
L 297 250" style="stroke:none;fill:rgb(145,204,117)"/><path d="M 341 94
L 356 94
L 356 354
L 341 354
L 341 94" style="stroke:none;fill:rgb(145,204,117)"/><path d="M 384 84
L 399 84
L 399 354
L 384 354
L 384 84" style="stroke:none;fill:rgb(145,204,117)"/><path d="M 428 283
L 443 283
L 443 354
L 428 354
L 428 283" style="stroke:none;fill:rgb(145,204,117)"/><path d="M 472 328
L 487 328
L 487 354
L 472 354
L 472 328" style="stroke:none;fill:rgb(145,204,117)"/><path d="M 515 347
L 530 347
L 530 354
L 515 354
L 515 347" style="stroke:none;fill:rgb(145,204,117)"/><path d="M 559 352
L 574 352
L 574 354
L 559 354
L 559 352" style="stroke:none;fill:rgb(145,204,117)"/><path d="M 369 107
A 14 14 330.00 1 1 377 107
L 373 93
Z" style="stroke:none;fill:rgb(84,112,198)"/><path d="M 359 93
Q373,128 387,93
Z" style="stroke:none;fill:rgb(84,112,198)"/><text x="360" y="98" style="stroke:none;fill:rgb(238,238,238);font-size:10.2px;font-family:'Roboto Medium',sans-serif">162.2</text><path d="M 64 346
A 14 14 330.00 1 1 72 346
L 68 332
Z" style="stroke:none;fill:rgb(84,112,198)"/><path d="M 54 332
Q68,367 82,332
Z" style="stroke:none;fill:rgb(84,112,198)"/><text x="64" y="337" style="stroke:none;fill:rgb(238,238,238);font-size:12.8px;font-family:'Roboto Medium',sans-serif">2</text><path d="M 387 77
A 14 14 330.00 1 1 395 77
L 391 63
Z" style="stroke:none;fill:rgb(145,204,117)"/><path d="M 377 63
Q391,98 405,63
Z" style="stroke:none;fill:rgb(145,204,117)"/><text x="378" y="68" style="stroke:none;fill:rgb(70,70,70);font-size:10.2px;font-family:'Roboto Medium',sans-serif">182.2</text><path d="M 562 345
A 14 14 330.00 1 1 570 345
L 566 331
Z" style="stroke:none;fill:rgb(145,204,117)"/><path d="M 552 331
Q566,366 580,331
Z" style="stroke:none;fill:rgb(145,204,117)"/><text x="557" y="336" style="stroke:none;fill:rgb(70,70,70);font-size:12.8px;font-family:'Roboto Medium',sans-serif">2.3</text><circle cx="59" cy="294" r="3" style="stroke-width:1;stroke:rgb(84,112,198);fill:rgb(84,112,198)"/><path stroke-dasharray="4.0, 2.0" d="M 65 294
L 562 294" style="stroke-width:1;stroke:rgb(84,112,198);fill:rgb(84,112,198)"/><path stroke-dasharray="4.0, 2.0" d="M 562 289
L 578 294
L 562 299
L 567 294
L 562 289" style="stroke-width:1;stroke:rgb(84,112,198);fill:rgb(84,112,198)"/><text x="580" y="298" style="stroke:none;fill:rgb(70,70,70);font-size:12.8px;font-family:'Roboto Medium',sans-serif">41.63</text><circle cx="59" cy="284" r="3" style="stroke-width:1;stroke:rgb(145,204,117);fill:rgb(145,204,117)"/><path stroke-dasharray="4.0, 2.0" d="M 65 284
L 562 284" style="stroke-width:1;stroke:rgb(145,204,117);fill:rgb(145,204,117)"/><path stroke-dasharray="4.0, 2.0" d="M 562 279
L 578 284
L 562 289
L 567 284
L 562 279" style="stroke-width:1;stroke:rgb(145,204,117);fill:rgb(145,204,117)"/><text x="580" y="288" style="stroke:none;fill:rgb(70,70,70);font-size:12.8px;font-family:'Roboto Medium',sans-serif">48.07</text></svg>