<svg xmlns="http://www.w3.org/2000/svg" xmlns:xlink="http://www.w3.org/1999/xlink" viewBox="0 0 800 600"><path d="M 0 0
L 800 0
L 800 600
L 0 600
L 0 0" style="stroke:none;fill:white"/><path d="M 253 26
L 268 26
L 260 13
L 253 26" style="stroke:none;fill:rgb(145,204,117)"/><path d="M 268 13
L 283 13
L 275 26
L 268 13" style="stroke:none;fill:rgb(238,102,102)"/><text x="285" y="25" style="stroke:none;fill:rgb(70,70,70);font-size:15.3px;font-family:'Roboto Medium',sans-serif">Stock A</text><path d="M 359 26
L 374 26
L 366 13
L 359 26" style="stroke:none;fill:rgb(115,192,222)"/><path d="M 374 13
L 389 13
L 381 26
L 374 13" style="stroke:none;fill:rgb(252,132,82)"/><text x="391" y="25" style="stroke:none;fill:rgb(70,70,70);font-size:15.3px;font-family:'Roboto Medium',sans-serif">Stock B</text><path d="M 464 26
L 479 26
L 471 13
L 464 26" style="stroke:none;fill:rgb(84,112,198)"/><path d="M 479 13
L 494 13
L 486 26
L 479 13" style="stroke:none;fill:rgb(234,124,204)"/><text x="496" y="25" style="stroke:none;fill:rgb(70,70,70);font-size:15.3px;font-family:'Roboto Medium',sans-serif">Stock C</text><text x="9" y="52" style="stroke:none;fill:rgb(70,70,70);font-size:15.3px;font-family:'Roboto Medium',sans-serif">150</text><text x="9" y="99" style="stroke:none;fill:rgb(70,70,70);font-size:15.3px;font-family:'Roboto Medium',sans-serif">140</text><text x="9" y="146" style="stroke:none;fill:rgb(70,70,70);font-size:15.3px;font-family:'Roboto Medium',sans-serif">130</text><text x="9" y="193" style="stroke:none;fill:rgb(70,70,70);font-size:15.3px;font-family:'Roboto Medium',sans-serif">120</text><text x="9" y="240" style="stroke:none;fill:rgb(70,70,70);font-size:15.3px;font-family:'Roboto Medium',sans-serif">110</text><text x="9" y="287" style="stroke:none;fill:rgb(70,70,70);font-size:15.3px;font-family:'Roboto Medium',sans-serif">100</text><text x="18" y="334" style="stroke:none;fill:rgb(70,70,70);font-size:15.3px;font-family:'Roboto Medium',sans-serif">90</text><text x="18" y="381" style="stroke:none;fill:rgb(70,70,70);font-size:15.3px;font-family:'Roboto Medium',sans-serif">80</text><text x="18" y="428" style="stroke:none;fill:rgb(70,70,70);font-size:15.3px;font-family:'Roboto Medium',sans-serif">70</text><text x="18" y="475" style="stroke:none;fill:rgb(70,70,70);font-size:15.3px;font-family:'Roboto Medium',sans-serif">60</text><text x="18" y="522" style="stroke:none;fill:rgb(70,70,70);font-size:15.3px;font-family:'Roboto Medium',sans-serif">50</text><text x="18" y="569" style="stroke:none;fill:rgb(70,70,70);font-size:15.3px;font-family:'Roboto Medium',sans-serif">40</text><path d="M 42 46
L 790 46" style="stroke-width:1;stroke:rgb(224,230,242);fill:none"/><path d="M 42 93
L 790 93" style="stroke-width:1;stroke:rgb(224,230,242);fill:none"/><path d="M 42 140
L 790 140" style="stroke-width:1;stroke:rgb(224,230,242);fill:none"/><path d="M 42 187
L 790 187" style="stroke-width:1;stroke:rgb(224,230,242);fill:none"/><path d="M 42 234
L 790 234" style="stroke-width:1;stroke:rgb(224,230,242);fill:none"/><path d="M 42 281
L 790 281" style="stroke-width:1;stroke:rgb(224,230,242);fill:none"/><path d="M 42 329
L 790 329" style="stroke-width:1;stroke:rgb(224,230,242);fill:none"/><path d="M 42 376
L 790 376" style="stroke-width:1;stroke:rgb(224,230,242);fill:none"/><path d="M 42 423
L 790 423" style="stroke-width:1;stroke:rgb(224,230,242);fill:none"/><path d="M 42 470
L 790 470" style="stroke-width:1;stroke:rgb(224,230,242);fill:none"/><path d="M 42 517
L 790 517" style="stroke-width:1;stroke:rgb(224,230,242);fill:none"/><path d="M 46 565
L 790 565" style="stroke-width:1;stroke:rgb(110,112,121);fill:none"/><path d="M 46 570
L 46 565" style="stroke-width:1;stroke:rgb(110,112,121);fill:none"/><path d="M 194 570
L 194 565" style="stroke-width:1;stroke:rgb(110,112,121);fill:none"/><path d="M 343 570
L 343 565" style="stroke-width:1;stroke:rgb(110,112,121);fill:none"/><path d="M 492 570
L 492 565" style="stroke-width:1;stroke:rgb(110,112,121);fill:none"/><path d="M 641 570
L 641 565" style="stroke-width:1;stroke:rgb(110,112,121);fill:none"/><path d="M 790 570
L 790 565" style="stroke-width:1;stroke:rgb(110,112,121);fill:none"/><text x="101" y="588" style="stroke:none;fill:rgb(70,70,70);font-size:15.3px;font-family:'Roboto Medium',sans-serif">Day 1</text><text x="249" y="588" style="stroke:none;fill:rgb(70,70,70);font-size:15.3px;font-family:'Roboto Medium',sans-serif">Day 2</text><text x="398" y="588" style="stroke:none;fill:rgb(70,70,70);font-size:15.3px;font-family:'Roboto Medium',sans-serif">Day 3</text><text x="547" y="588" style="stroke:none;fill:rgb(70,70,70);font-size:15.3px;font-family:'Roboto Medium',sans-serif">Day 4</text><text x="696" y="588" style="stroke:none;fill:rgb(70,70,70);font-size:15.3px;font-family:'Roboto Medium',sans-serif">Day 5</text><path d="M 75 235
L 75 259" style="stroke-width:1;stroke:rgb(145,204,117);fill:none"/><path d="M 75 282
L 75 306" style="stroke-width:1;stroke:rgb(145,204,117);fill:none"/><path d="M 66 235
L 84 235" style="stroke-width:1;stroke:rgb(145,204,117);fill:none"/><path d="M 66 306
L 84 306" style="stroke-width:1;stroke:rgb(145,204,117);fill:none"/><path d="M 56 259
L 94 259
L 94 282
L 56 282
L 56 259" style="stroke:none;fill:rgb(145,204,117)"/><path d="M 223 212
L 223 226" style="stroke-width:1;stroke:rgb(145,204,117);fill:none"/><path d="M 223 259
L 223 282" style="stroke-width:1;stroke:rgb(145,204,117);fill:none"/><path d="M 214 212
L 232 212" style="stroke-width:1;stroke:rgb(145,204,117);fill:none"/><path d="M 214 282
L 232 282" style="stroke-width:1;stroke:rgb(145,204,117);fill:none"/><path d="M 204 226
L 242 226
L 242 259
L 204 259
L 204 226" style="stroke:none;fill:rgb(145,204,117)"/><path d="M 372 197
L 372 212" style="stroke-width:1;stroke:rgb(145,204,117);fill:none"/><path d="M 372 226
L 372 245" style="stroke-width:1;stroke:rgb(145,204,117);fill:none"/><path d="M 363 197
L 381 197" style="stroke-width:1;stroke:rgb(145,204,117);fill:none"/><path d="M 363 245
L 381 245" style="stroke-width:1;stroke:rgb(145,204,117);fill:none"/><path d="M 353 212
L 391 212
L 391 226
L 353 226
L 353 212" style="stroke:none;fill:rgb(145,204,117)"/><path d="M 670 221
L 670 240" style="stroke-width:1;stroke:rgb(145,204,117);fill:none"/><path d="M 670 245
L 670 259" style="stroke-width:1;stroke:rgb(145,204,117);fill:none"/><path d="M 661 221
L 679 221" style="stroke-width:1;stroke:rgb(145,204,117);fill:none"/><path d="M 661 259
L 679 259" style="stroke-width:1;stroke:rgb(145,204,117);fill:none"/><path d="M 651 240
L 689 240
L 689 245
L 651 245
L 651 240" style="stroke:none;fill:rgb(145,204,117)"/><path d="M 119 141
L 119 164" style="stroke-width:1;stroke:rgb(115,192,222);fill:none"/><path d="M 119 188
L 119 212" style="stroke-width:1;stroke:rgb(115,192,222);fill:none"/><path d="M 110 141
L 128 141" style="stroke-width:1;stroke:rgb(115,192,222);fill:none"/><path d="M 110 212
L 128 212" style="stroke-width:1;stroke:rgb(115,192,222);fill:none"/><path d="M 100 164
L 138 164
L 138 188
L 100 188
L 100 164" style="stroke:none;fill:rgb(115,192,222)"/><path d="M 267 117
L 267 131" style="stroke-width:1;stroke:rgb(115,192,222);fill:none"/><path d="M 267 164
L 267 188" style="stroke-width:1;stroke:rgb(115,192,222);fill:none"/><path d="M 258 117
L 276 117" style="stroke-width:1;stroke:rgb(115,192,222);fill:none"/><path d="M 258 188
L 276 188" style="stroke-width:1;stroke:rgb(115,192,222);fill:none"/><path d="M 248 131
L 286 131
L 286 164
L 248 164
L 248 131" style="stroke:none;fill:rgb(115,192,222)"/><path d="M 416 103
L 416 117" style="stroke-width:1;stroke:rgb(115,192,222);fill:none"/><path d="M 416 131
L 416 150" style="stroke-width:1;stroke:rgb(115,192,222);fill:none"/><path d="M 407 103
L 425 103" style="stroke-width:1;stroke:rgb(115,192,222);fill:none"/><path d="M 407 150
L 425 150" style="stroke-width:1;stroke:rgb(115,192,222);fill:none"/><path d="M 397 117
L 435 117
L 435 131
L 397 131
L 397 117" style="stroke:none;fill:rgb(115,192,222)"/><path d="M 714 127
L 714 146" style="stroke-width:1;stroke:rgb(115,192,222);fill:none"/><path d="M 714 150
L 714 164" style="stroke-width:1;stroke:rgb(115,192,222);fill:none"/><path d="M 705 127
L 723 127" style="stroke-width:1;stroke:rgb(115,192,222);fill:none"/><path d="M 705 164
L 723 164" style="stroke-width:1;stroke:rgb(115,192,222);fill:none"/><path d="M 695 146
L 733 146
L 733 150
L 695 150
L 695 146" style="stroke:none;fill:rgb(115,192,222)"/><path d="M 163 235
L 163 353" style="stroke-width:1;stroke:rgb(84,112,198);fill:none"/><path d="M 163 377
L 163 542" style="stroke-width:1;stroke:rgb(84,112,198);fill:none"/><path d="M 154 235
L 172 235" style="stroke-width:1;stroke:rgb(84,112,198);fill:none"/><path d="M 154 542
L 172 542" style="stroke-width:1;stroke:rgb(84,112,198);fill:none"/><path d="M 144 353
L 182 353
L 182 377
L 144 377
L 144 353" style="stroke:none;fill:rgb(84,112,198)"/><path d="M 311 212
L 311 353" style="stroke-width:1;stroke:rgb(234,124,204);fill:none"/><path d="M 311 367
L 311 565" style="stroke-width:1;stroke:rgb(234,124,204);fill:none"/><path d="M 302 212
L 320 212" style="stroke-width:1;stroke:rgb(234,124,204);fill:none"/><path d="M 302 565
L 320 565" style="stroke-width:1;stroke:rgb(234,124,204);fill:none"/><path d="M 292 353
L 330 353
L 330 367
L 292 367
L 292 353" style="stroke:none;fill:rgb(234,124,204)"/><path d="M 460 197
L 460 353" style="stroke-width:1;stroke:rgb(84,112,198);fill:none"/><path d="M 460 367
L 460 528" style="stroke-width:1;stroke:rgb(84,112,198);fill:none"/><path d="M 451 197
L 469 197" style="stroke-width:1;stroke:rgb(84,112,198);fill:none"/><path d="M 451 528
L 469 528" style="stroke-width:1;stroke:rgb(84,112,198);fill:none"/><path d="M 441 353
L 479 353
L 479 367
L 441 367
L 441 353" style="stroke:none;fill:rgb(84,112,198)"/><path d="M 609 188
L 609 339" style="stroke-width:1;stroke:rgb(84,112,198);fill:none"/><path d="M 609 353
L 609 565" style="stroke-width:1;stroke:rgb(84,112,198);fill:none"/><path d="M 600 188
L 618 188" style="stroke-width:1;stroke:rgb(84,112,198);fill:none"/><path d="M 600 565
L 618 565" style="stroke-width:1;stroke:rgb(84,112,198);fill:none"/><path d="M 590 339
L 628 339
L 628 353
L 590 353
L 590 339" style="stroke:none;fill:rgb(84,112,198)"/><path d="M 758 221
L 758 334" style="stroke-width:1;stroke:rgb(84,112,198);fill:none"/><path d="M 758 339
L 758 542" style="stroke-width:1;stroke:rgb(84,112,198);fill:none"/><path d="M 749 221
L 767 221" style="stroke-width:1;stroke:rgb(84,112,198);fill:none"/><path d="M 749 542
L 767 542" style="stroke-width:1;stroke:rgb(84,112,198);fill:none"/><path d="M 739 334
L 777 334
L 777 339
L 739 339
L 739 334" style="stroke:none;fill:rgb(84,112,198)"/></svg>