<svg xmlns="http://www.w3.org/2000/svg" xmlns:xlink="http://www.w3.org/1999/xlink" viewBox="0 0 800 600"><path d="M 0 0
L 800 0
L 800 600
L 0 600
L 0 0" style="stroke:none;fill:white"/><path d="M 10 26
L 25 26
L 17 13
L 10 26" style="stroke:none;fill:rgb(145,204,117)"/><path d="M 25 13
L 40 13
L 32 26
L 25 13" style="stroke:none;fill:rgb(238,102,102)"/><text x="42" y="25" style="stroke:none;fill:rgb(70,70,70);font-size:15.3px;font-family:'Roboto Medium',sans-serif">Series 1</text><path d="M 118 26
L 133 26
L 125 13
L 118 26" style="stroke:none;fill:rgb(115,192,222)"/><path d="M 133 13
L 148 13
L 140 26
L 133 13" style="stroke:none;fill:rgb(252,132,82)"/><text x="150" y="25" style="stroke:none;fill:rgb(70,70,70);font-size:15.3px;font-family:'Roboto Medium',sans-serif">Series 2</text><path d="M 226 26
L 241 26
L 233 13
L 226 26" style="stroke:none;fill:rgb(84,112,198)"/><path d="M 241 13
L 256 13
L 248 26
L 241 13" style="stroke:none;fill:rgb(234,124,204)"/><text x="258" y="25" style="stroke:none;fill:rgb(70,70,70);font-size:15.3px;font-family:'Roboto Medium',sans-serif">Series 3</text><path d="M 334 26
L 349 26
L 341 13
L 334 26" style="stroke:none;fill:rgb(171,207,154)"/><path d="M 349 13
L 364 13
L 356 26
L 349 13" style="stroke:none;fill:rgb(235,145,145)"/><text x="366" y="25" style="stroke:none;fill:rgb(70,70,70);font-size:15.3px;font-family:'Roboto Medium',sans-serif">Series 4</text><path d="M 442 26
L 457 26
L 449 13
L 442 26" style="stroke:none;fill:rgb(154,203,223)"/><path d="M 457 13
L 472 13
L 464 26
L 457 13" style="stroke:none;fill:rgb(245,163,128)"/><text x="474" y="25" style="stroke:none;fill:rgb(70,70,70);font-size:15.3px;font-family:'Roboto Medium',sans-serif">Series 5</text><path d="M 550 26
L 565 26
L 557 13
L 550 26" style="stroke:none;fill:rgb(123,142,198)"/><path d="M 565 13
L 580 13
L 572 26
L 565 13" style="stroke:none;fill:rgb(234,164,215)"/><text x="582" y="25" style="stroke:none;fill:rgb(70,70,70);font-size:15.3px;font-family:'Roboto Medium',sans-serif">Series 6</text><path d="M 658 26
L 673 26
L 665 13
L 658 26" style="stroke:none;fill:rgb(196,215,187)"/><path d="M 673 13
L 688 13
L 680 26
L 673 13" style="stroke:none;fill:rgb(237,184,184)"/><text x="690" y="25" style="stroke:none;fill:rgb(70,70,70);font-size:15.3px;font-family:'Roboto Medium',sans-serif">Series 7</text><path d="M 10 42
L 25 42
L 17 29
L 10 42" style="stroke:none;fill:rgb(190,217,228)"/><path d="M 25 29
L 40 29
L 32 42
L 25 29" style="stroke:none;fill:rgb(243,192,171)"/><text x="42" y="41" style="stroke:none;fill:rgb(70,70,70);font-size:15.3px;font-family:'Roboto Medium',sans-serif">Series 8</text><path d="M 118 42
L 133 42
L 125 29
L 118 42" style="stroke:none;fill:rgb(159,170,203)"/><path d="M 133 29
L 148 29
L 140 42
L 133 29" style="stroke:none;fill:rgb(238,201,228)"/><text x="150" y="41" style="stroke:none;fill:rgb(70,70,70);font-size:15.3px;font-family:'Roboto Medium',sans-serif">Series 9</text><path d="M 226 42
L 241 42
L 233 29
L 226 42" style="stroke:none;fill:rgb(219,227,216)"/><path d="M 241 29
L 256 29
L 248 42
L 241 29" style="stroke:none;fill:rgb(243,219,219)"/><text x="258" y="41" style="stroke:none;fill:rgb(70,70,70);font-size:15.3px;font-family:'Roboto Medium',sans-serif">Series 10</text><text x="9" y="68" style="stroke:none;fill:rgb(70,70,70);font-size:15.3px;font-family:'Roboto Medium',sans-serif">340</text><text x="9" y="118" style="stroke:none;fill:rgb(70,70,70);font-size:15.3px;font-family:'Roboto Medium',sans-serif">315</text><text x="9" y="168" style="stroke:none;fill:rgb(70,70,70);font-size:15.3px;font-family:'Roboto Medium',sans-serif">290</text><text x="9" y="218" style="stroke:none;fill:rgb(70,70,70);font-size:15.3px;font-family:'Roboto Medium',sans-serif">265</text><text x="9" y="268" style="stroke:none;fill:rgb(70,70,70);font-size:15.3px;font-family:'Roboto Medium',sans-serif">240</text><text x="9" y="318" style="stroke:none;fill:rgb(70,70,70);font-size:15.3px;font-family:'Roboto Medium',sans-serif">215</text><text x="9" y="368" style="stroke:none;fill:rgb(70,70,70);font-size:15.3px;font-family:'Roboto Medium',sans-serif">190</text><text x="9" y="418" style="stroke:none;fill:rgb(70,70,70);font-size:15.3px;font-family:'Roboto Medium',sans-serif">165</text><text x="9" y="468" style="stroke:none;fill:rgb(70,70,70);font-size:15.3px;font-family:'Roboto Medium',sans-serif">140</text><text x="9" y="518" style="stroke:none;fill:rgb(70,70,70);font-size:15.3px;font-family:'Roboto Medium',sans-serif">115</text><text x="18" y="569" style="stroke:none;fill:rgb(70,70,70);font-size:15.3px;font-family:'Roboto Medium',sans-serif">90</text><path d="M 42 62
L 790 62" style="stroke-width:1;stroke:rgb(224,230,242);fill:none"/><path d="M 42 112
L 790 112" style="stroke-width:1;stroke:rgb(224,230,242);fill:none"/><path d="M 42 162
L 790 162" style="stroke-width:1;stroke:rgb(224,230,242);fill:none"/><path d="M 42 212
L 790 212" style="stroke-width:1;stroke:rgb(224,230,242);fill:none"/><path d="M 42 263
L 790 263" style="stroke-width:1;stroke:rgb(224,230,242);fill:none"/><path d="M 42 313
L 790 313" style="stroke-width:1;stroke:rgb(224,230,242);fill:none"/><path d="M 42 363
L 790 363" style="stroke-width:1;stroke:rgb(224,230,242);fill:none"/><path d="M 42 414
L 790 414" style="stroke-width:1;stroke:rgb(224,230,242);fill:none"/><path d="M 42 464
L 790 464" style="stroke-width:1;stroke:rgb(224,230,242);fill:none"/><path d="M 42 514
L 790 514" style="stroke-width:1;stroke:rgb(224,230,242);fill:none"/><path d="M 46 565
L 790 565" style="stroke-width:1;stroke:rgb(110,112,121);fill:none"/><path d="M 46 570
L 46 565" style="stroke-width:1;stroke:rgb(110,112,121);fill:none"/><path d="M 194 570
L 194 565" style="stroke-width:1;stroke:rgb(110,112,121);fill:none"/><path d="M 343 570
L 343 565" style="stroke-width:1;stroke:rgb(110,112,121);fill:none"/><path d="M 492 570
L 492 565" style="stroke-width:1;stroke:rgb(110,112,121);fill:none"/><path d="M 641 570
L 641 565" style="stroke-width:1;stroke:rgb(110,112,121);fill:none"/><path d="M 790 570
L 790 565" style="stroke-width:1;stroke:rgb(110,112,121);fill:none"/><text x="111" y="588" style="stroke:none;fill:rgb(70,70,70);font-size:15.3px;font-family:'Roboto Medium',sans-serif">T1</text><text x="259" y="588" style="stroke:none;fill:rgb(70,70,70);font-size:15.3px;font-family:'Roboto Medium',sans-serif">T2</text><text x="408" y="588" style="stroke:none;fill:rgb(70,70,70);font-size:15.3px;font-family:'Roboto Medium',sans-serif">T3</text><text x="557" y="588" style="stroke:none;fill:rgb(70,70,70);font-size:15.3px;font-family:'Roboto Medium',sans-serif">T4</text><text x="706" y="588" style="stroke:none;fill:rgb(70,70,70);font-size:15.3px;font-family:'Roboto Medium',sans-serif">T5</text><path d="M 60 525
L 60 545" style="stroke-width:1;stroke:rgb(238,102,102);fill:none"/><path d="M 58 525
L 62 525" style="stroke-width:1;stroke:rgb(238,102,102);fill:none"/><path d="M 58 555
L 62 555" style="stroke-width:1;stroke:rgb(238,102,102);fill:none"/><path d="M 56 545
L 64 545
L 64 555
L 56 555
L 56 545" style="stroke:none;fill:rgb(238,102,102)"/><path d="M 208 515
L 208 525" style="stroke-width:1;stroke:rgb(145,204,117);fill:none"/><path d="M 208 535
L 208 545" style="stroke-width:1;stroke:rgb(145,204,117);fill:none"/><path d="M 206 515
L 210 515" style="stroke-width:1;stroke:rgb(145,204,117);fill:none"/><path d="M 206 545
L 210 545" style="stroke-width:1;stroke:rgb(145,204,117);fill:none"/><path d="M 204 525
L 212 525
L 212 535
L 204 535
L 204 525" style="stroke:none;fill:rgb(145,204,117)"/><path d="M 357 505
L 357 525" style="stroke-width:1;stroke:rgb(238,102,102);fill:none"/><path d="M 355 505
L 359 505" style="stroke-width:1;stroke:rgb(238,102,102);fill:none"/><path d="M 355 535
L 359 535" style="stroke-width:1;stroke:rgb(238,102,102);fill:none"/><path d="M 353 525
L 361 525
L 361 535
L 353 535
L 353 525" style="stroke:none;fill:rgb(238,102,102)"/><path d="M 506 495
L 506 505" style="stroke-width:1;stroke:rgb(145,204,117);fill:none"/><path d="M 506 515
L 506 525" style="stroke-width:1;stroke:rgb(145,204,117);fill:none"/><path d="M 504 495
L 508 495" style="stroke-width:1;stroke:rgb(145,204,117);fill:none"/><path d="M 504 525
L 508 525" style="stroke-width:1;stroke:rgb(145,204,117);fill:none"/><path d="M 502 505
L 510 505
L 510 515
L 502 515
L 502 505" style="stroke:none;fill:rgb(145,204,117)"/><path d="M 655 485
L 655 505" style="stroke-width:1;stroke:rgb(238,102,102);fill:none"/><path d="M 653 485
L 657 485" style="stroke-width:1;stroke:rgb(238,102,102);fill:none"/><path d="M 653 515
L 657 515" style="stroke-width:1;stroke:rgb(238,102,102);fill:none"/><path d="M 651 505
L 659 505
L 659 515
L 651 515
L 651 505" style="stroke:none;fill:rgb(238,102,102)"/><path d="M 73 485
L 73 505" style="stroke-width:1;stroke:rgb(252,132,82);fill:none"/><path d="M 71 485
L 75 485" style="stroke-width:1;stroke:rgb(252,132,82);fill:none"/><path d="M 71 515
L 75 515" style="stroke-width:1;stroke:rgb(252,132,82);fill:none"/><path d="M 69 505
L 77 505
L 77 515
L 69 515
L 69 505" style="stroke:none;fill:rgb(252,132,82)"/><path d="M 221 475
L 221 485" style="stroke-width:1;stroke:rgb(115,192,222);fill:none"/><path d="M 221 495
L 221 505" style="stroke-width:1;stroke:rgb(115,192,222);fill:none"/><path d="M 219 475
L 223 475" style="stroke-width:1;stroke:rgb(115,192,222);fill:none"/><path d="M 219 505
L 223 505" style="stroke-width:1;stroke:rgb(115,192,222);fill:none"/><path d="M 217 485
L 225 485
L 225 495
L 217 495
L 217 485" style="stroke:none;fill:rgb(115,192,222)"/><path d="M 370 465
L 370 485" style="stroke-width:1;stroke:rgb(252,132,82);fill:none"/><path d="M 368 465
L 372 465" style="stroke-width:1;stroke:rgb(252,132,82);fill:none"/><path d="M 368 495
L 372 495" style="stroke-width:1;stroke:rgb(252,132,82);fill:none"/><path d="M 366 485
L 374 485
L 374 495
L 366 495
L 366 485" style="stroke:none;fill:rgb(252,132,82)"/><path d="M 519 455
L 519 465" style="stroke-width:1;stroke:rgb(115,192,222);fill:none"/><path d="M 519 475
L 519 485" style="stroke-width:1;stroke:rgb(115,192,222);fill:none"/><path d="M 517 455
L 521 455" style="stroke-width:1;stroke:rgb(115,192,222);fill:none"/><path d="M 517 485
L 521 485" style="stroke-width:1;stroke:rgb(115,192,222);fill:none"/><path d="M 515 465
L 523 465
L 523 475
L 515 475
L 515 465" style="stroke:none;fill:rgb(115,192,222)"/><path d="M 668 445
L 668 465" style="stroke-width:1;stroke:rgb(252,132,82);fill:none"/><path d="M 666 445
L 670 445" style="stroke-width:1;stroke:rgb(252,132,82);fill:none"/><path d="M 666 475
L 670 475" style="stroke-width:1;stroke:rgb(252,132,82);fill:none"/><path d="M 664 465
L 672 465
L 672 475
L 664 475
L 664 465" style="stroke:none;fill:rgb(252,132,82)"/><path d="M 86 445
L 86 465" style="stroke-width:1;stroke:rgb(234,124,204);fill:none"/><path d="M 84 445
L 88 445" style="stroke-width:1;stroke:rgb(234,124,204);fill:none"/><path d="M 84 475
L 88 475" style="stroke-width:1;stroke:rgb(234,124,204);fill:none"/><path d="M 82 465
L 90 465
L 90 475
L 82 475
L 82 465" style="stroke:none;fill:rgb(234,124,204)"/><path d="M 234 435
L 234 445" style="stroke-width:1;stroke:rgb(84,112,198);fill:none"/><path d="M 234 455
L 234 465" style="stroke-width:1;stroke:rgb(84,112,198);fill:none"/><path d="M 232 435
L 236 435" style="stroke-width:1;stroke:rgb(84,112,198);fill:none"/><path d="M 232 465
L 236 465" style="stroke-width:1;stroke:rgb(84,112,198);fill:none"/><path d="M 230 445
L 238 445
L 238 455
L 230 455
L 230 445" style="stroke:none;fill:rgb(84,112,198)"/><path d="M 383 425
L 383 445" style="stroke-width:1;stroke:rgb(234,124,204);fill:none"/><path d="M 381 425
L 385 425" style="stroke-width:1;stroke:rgb(234,124,204);fill:none"/><path d="M 381 455
L 385 455" style="stroke-width:1;stroke:rgb(234,124,204);fill:none"/><path d="M 379 445
L 387 445
L 387 455
L 379 455
L 379 445" style="stroke:none;fill:rgb(234,124,204)"/><path d="M 532 415
L 532 425" style="stroke-width:1;stroke:rgb(84,112,198);fill:none"/><path d="M 532 435
L 532 445" style="stroke-width:1;stroke:rgb(84,112,198);fill:none"/><path d="M 530 415
L 534 415" style="stroke-width:1;stroke:rgb(84,112,198);fill:none"/><path d="M 530 445
L 534 445" style="stroke-width:1;stroke:rgb(84,112,198);fill:none"/><path d="M 528 425
L 536 425
L 536 435
L 528 435
L 528 425" style="stroke:none;fill:rgb(84,112,198)"/><path d="M 681 405
L 681 425" style="stroke-width:1;stroke:rgb(234,124,204);fill:none"/><path d="M 679 405
L 683 405" style="stroke-width:1;stroke:rgb(234,124,204);fill:none"/><path d="M 679 435
L 683 435" style="stroke-width:1;stroke:rgb(234,124,204);fill:none"/><path d="M 677 425
L 685 425
L 685 435
L 677 435
L 677 425" style="stroke:none;fill:rgb(234,124,204)"/><path d="M 99 405
L 99 425" style="stroke-width:1;stroke:rgb(235,145,145);fill:none"/><path d="M 97 405
L 101 405" style="stroke-width:1;stroke:rgb(235,145,145);fill:none"/><path d="M 97 435
L 101 435" style="stroke-width:1;stroke:rgb(235,145,145);fill:none"/><path d="M 95 425
L 103 425
L 103 435
L 95 435
L 95 425" style="stroke:none;fill:rgb(235,145,145)"/><path d="M 247 394
L 247 405" style="stroke-width:1;stroke:rgb(171,207,154);fill:none"/><path d="M 247 415
L 247 425" style="stroke-width:1;stroke:rgb(171,207,154);fill:none"/><path d="M 245 394
L 249 394" style="stroke-width:1;stroke:rgb(171,207,154);fill:none"/><path d="M 245 425
L 249 425" style="stroke-width:1;stroke:rgb(171,207,154);fill:none"/><path d="M 243 405
L 251 405
L 251 415
L 243 415
L 243 405" style="stroke:none;fill:rgb(171,207,154)"/><path d="M 396 384
L 396 405" style="stroke-width:1;stroke:rgb(235,145,145);fill:none"/><path d="M 394 384
L 398 384" style="stroke-width:1;stroke:rgb(235,145,145);fill:none"/><path d="M 394 415
L 398 415" style="stroke-width:1;stroke:rgb(235,145,145);fill:none"/><path d="M 392 405
L 400 405
L 400 415
L 392 415
L 392 405" style="stroke:none;fill:rgb(235,145,145)"/><path d="M 545 374
L 545 384" style="stroke-width:1;stroke:rgb(171,207,154);fill:none"/><path d="M 545 394
L 545 405" style="stroke-width:1;stroke:rgb(171,207,154);fill:none"/><path d="M 543 374
L 547 374" style="stroke-width:1;stroke:rgb(171,207,154);fill:none"/><path d="M 543 405
L 547 405" style="stroke-width:1;stroke:rgb(171,207,154);fill:none"/><path d="M 541 384
L 549 384
L 549 394
L 541 394
L 541 384" style="stroke:none;fill:rgb(171,207,154)"/><path d="M 694 364
L 694 384" style="stroke-width:1;stroke:rgb(235,145,145);fill:none"/><path d="M 692 364
L 696 364" style="stroke-width:1;stroke:rgb(235,145,145);fill:none"/><path d="M 692 394
L 696 394" style="stroke-width:1;stroke:rgb(235,145,145);fill:none"/><path d="M 690 384
L 698 384
L 698 394
L 690 394
L 690 384" style="stroke:none;fill:rgb(235,145,145)"/><path d="M 112 364
L 112 384" style="stroke-width:1;stroke:rgb(245,163,128);fill:none"/><path d="M 110 364
L 114 364" style="stroke-width:1;stroke:rgb(245,163,128);fill:none"/><path d="M 110 394
L 114 394" style="stroke-width:1;stroke:rgb(245,163,128);fill:none"/><path d="M 108 384
L 116 384
L 116 394
L 108 394
L 108 384" style="stroke:none;fill:rgb(245,163,128)"/><path d="M 260 354
L 260 364" style="stroke-width:1;stroke:rgb(154,203,223);fill:none"/><path d="M 260 374
L 260 384" style="stroke-width:1;stroke:rgb(154,203,223);fill:none"/><path d="M 258 354
L 262 354" style="stroke-width:1;stroke:rgb(154,203,223);fill:none"/><path d="M 258 384
L 262 384" style="stroke-width:1;stroke:rgb(154,203,223);fill:none"/><path d="M 256 364
L 264 364
L 264 374
L 256 374
L 256 364" style="stroke:none;fill:rgb(154,203,223)"/><path d="M 409 344
L 409 364" style="stroke-width:1;stroke:rgb(245,163,128);fill:none"/><path d="M 407 344
L 411 344" style="stroke-width:1;stroke:rgb(245,163,128);fill:none"/><path d="M 407 374
L 411 374" style="stroke-width:1;stroke:rgb(245,163,128);fill:none"/><path d="M 405 364
L 413 364
L 413 374
L 405 374
L 405 364" style="stroke:none;fill:rgb(245,163,128)"/><path d="M 558 334
L 558 344" style="stroke-width:1;stroke:rgb(154,203,223);fill:none"/><path d="M 558 354
L 558 364" style="stroke-width:1;stroke:rgb(154,203,223);fill:none"/><path d="M 556 334
L 560 334" style="stroke-width:1;stroke:rgb(154,203,223);fill:none"/><path d="M 556 364
L 560 364" style="stroke-width:1;stroke:rgb(154,203,223);fill:none"/><path d="M 554 344
L 562 344
L 562 354
L 554 354
L 554 344" style="stroke:none;fill:rgb(154,203,223)"/><path d="M 707 324
L 707 344" style="stroke-width:1;stroke:rgb(245,163,128);fill:none"/><path d="M 705 324
L 709 324" style="stroke-width:1;stroke:rgb(245,163,128);fill:none"/><path d="M 705 354
L 709 354" style="stroke-width:1;stroke:rgb(245,163,128);fill:none"/><path d="M 703 344
L 711 344
L 711 354
L 703 354
L 703 344" style="stroke:none;fill:rgb(245,163,128)"/><path d="M 125 324
L 125 344" style="stroke-width:1;stroke:rgb(234,164,215);fill:none"/><path d="M 123 324
L 127 324" style="stroke-width:1;stroke:rgb(234,164,215);fill:none"/><path d="M 123 354
L 127 354" style="stroke-width:1;stroke:rgb(234,164,215);fill:none"/><path d="M 121 344
L 129 344
L 129 354
L 121 354
L 121 344" style="stroke:none;fill:rgb(234,164,215)"/><path d="M 273 314
L 273 324" style="stroke-width:1;stroke:rgb(123,142,198);fill:none"/><path d="M 273 334
L 273 344" style="stroke-width:1;stroke:rgb(123,142,198);fill:none"/><path d="M 271 314
L 275 314" style="stroke-width:1;stroke:rgb(123,142,198);fill:none"/><path d="M 271 344
L 275 344" style="stroke-width:1;stroke:rgb(123,142,198);fill:none"/><path d="M 269 324
L 277 324
L 277 334
L 269 334
L 269 324" style="stroke:none;fill:rgb(123,142,198)"/><path d="M 422 304
L 422 324" style="stroke-width:1;stroke:rgb(234,164,215);fill:none"/><path d="M 420 304
L 424 304" style="stroke-width:1;stroke:rgb(234,164,215);fill:none"/><path d="M 420 334
L 424 334" style="stroke-width:1;stroke:rgb(234,164,215);fill:none"/><path d="M 418 324
L 426 324
L 426 334
L 418 334
L 418 324" style="stroke:none;fill:rgb(234,164,215)"/><path d="M 571 294
L 571 304" style="stroke-width:1;stroke:rgb(123,142,198);fill:none"/><path d="M 571 314
L 571 324" style="stroke-width:1;stroke:rgb(123,142,198);fill:none"/><path d="M 569 294
L 573 294" style="stroke-width:1;stroke:rgb(123,142,198);fill:none"/><path d="M 569 324
L 573 324" style="stroke-width:1;stroke:rgb(123,142,198);fill:none"/><path d="M 567 304
L 575 304
L 575 314
L 567 314
L 567 304" style="stroke:none;fill:rgb(123,142,198)"/><path d="M 720 284
L 720 304" style="stroke-width:1;stroke:rgb(234,164,215);fill:none"/><path d="M 718 284
L 722 284" style="stroke-width:1;stroke:rgb(234,164,215);fill:none"/><path d="M 718 314
L 722 314" style="stroke-width:1;stroke:rgb(234,164,215);fill:none"/><path d="M 716 304
L 724 304
L 724 314
L 716 314
L 716 304" style="stroke:none;fill:rgb(234,164,215)"/><path d="M 138 284
L 138 304" style="stroke-width:1;stroke:rgb(237,184,184);fill:none"/><path d="M 136 284
L 140 284" style="stroke-width:1;stroke:rgb(237,184,184);fill:none"/><path d="M 136 314
L 140 314" style="stroke-width:1;stroke:rgb(237,184,184);fill:none"/><path d="M 134 304
L 142 304
L 142 314
L 134 314
L 134 304" style="stroke:none;fill:rgb(237,184,184)"/><path d="M 286 274
L 286 284" style="stroke-width:1;stroke:rgb(196,215,187);fill:none"/><path d="M 286 294
L 286 304" style="stroke-width:1;stroke:rgb(196,215,187);fill:none"/><path d="M 284 274
L 288 274" style="stroke-width:1;stroke:rgb(196,215,187);fill:none"/><path d="M 284 304
L 288 304" style="stroke-width:1;stroke:rgb(196,215,187);fill:none"/><path d="M 282 284
L 290 284
L 290 294
L 282 294
L 282 284" style="stroke:none;fill:rgb(196,215,187)"/><path d="M 435 264
L 435 284" style="stroke-width:1;stroke:rgb(237,184,184);fill:none"/><path d="M 433 264
L 437 264" style="stroke-width:1;stroke:rgb(237,184,184);fill:none"/><path d="M 433 294
L 437 294" style="stroke-width:1;stroke:rgb(237,184,184);fill:none"/><path d="M 431 284
L 439 284
L 439 294
L 431 294
L 431 284" style="stroke:none;fill:rgb(237,184,184)"/><path d="M 584 254
L 584 264" style="stroke-width:1;stroke:rgb(196,215,187);fill:none"/><path d="M 584 274
L 584 284" style="stroke-width:1;stroke:rgb(196,215,187);fill:none"/><path d="M 582 254
L 586 254" style="stroke-width:1;stroke:rgb(196,215,187);fill:none"/><path d="M 582 284
L 586 284" style="stroke-width:1;stroke:rgb(196,215,187);fill:none"/><path d="M 580 264
L 588 264
L 588 274
L 580 274
L 580 264" style="stroke:none;fill:rgb(196,215,187)"/><path d="M 733 244
L 733 264" style="stroke-width:1;stroke:rgb(237,184,184);fill:none"/><path d="M 731 244
L 735 244" style="stroke-width:1;stroke:rgb(237,184,184);fill:none"/><path d="M 731 274
L 735 274" style="stroke-width:1;stroke:rgb(237,184,184);fill:none"/><path d="M 729 264
L 737 264
L 737 274
L 729 274
L 729 264" style="stroke:none;fill:rgb(237,184,184)"/><path d="M 151 244
L 151 264" style="stroke-width:1;stroke:rgb(243,192,171);fill:none"/><path d="M 149 244
L 153 244" style="stroke-width:1;stroke:rgb(243,192,171);fill:none"/><path d="M 149 274
L 153 274" style="stroke-width:1;stroke:rgb(243,192,171);fill:none"/><path d="M 147 264
L 155 264
L 155 274
L 147 274
L 147 264" style="stroke:none;fill:rgb(243,192,171)"/><path d="M 299 234
L 299 244" style="stroke-width:1;stroke:rgb(190,217,228);fill:none"/><path d="M 299 254
L 299 264" style="stroke-width:1;stroke:rgb(190,217,228);fill:none"/><path d="M 297 234
L 301 234" style="stroke-width:1;stroke:rgb(190,217,228);fill:none"/><path d="M 297 264
L 301 264" style="stroke-width:1;stroke:rgb(190,217,228);fill:none"/><path d="M 295 244
L 303 244
L 303 254
L 295 254
L 295 244" style="stroke:none;fill:rgb(190,217,228)"/><path d="M 448 223
L 448 244" style="stroke-width:1;stroke:rgb(243,192,171);fill:none"/><path d="M 446 223
L 450 223" style="stroke-width:1;stroke:rgb(243,192,171);fill:none"/><path d="M 446 254
L 450 254" style="stroke-width:1;stroke:rgb(243,192,171);fill:none"/><path d="M 444 244
L 452 244
L 452 254
L 444 254
L 444 244" style="stroke:none;fill:rgb(243,192,171)"/><path d="M 597 213
L 597 223" style="stroke-width:1;stroke:rgb(190,217,228);fill:none"/><path d="M 597 234
L 597 244" style="stroke-width:1;stroke:rgb(190,217,228);fill:none"/><path d="M 595 213
L 599 213" style="stroke-width:1;stroke:rgb(190,217,228);fill:none"/><path d="M 595 244
L 599 244" style="stroke-width:1;stroke:rgb(190,217,228);fill:none"/><path d="M 593 223
L 601 223
L 601 234
L 593 234
L 593 223" style="stroke:none;fill:rgb(190,217,228)"/><path d="M 746 203
L 746 223" style="stroke-width:1;stroke:rgb(243,192,171);fill:none"/><path d="M 744 203
L 748 203" style="stroke-width:1;stroke:rgb(243,192,171);fill:none"/><path d="M 744 234
L 748 234" style="stroke-width:1;stroke:rgb(243,192,171);fill:none"/><path d="M 742 223
L 750 223
L 750 234
L 742 234
L 742 223" style="stroke:none;fill:rgb(243,192,171)"/><path d="M 164 203
L 164 223" style="stroke-width:1;stroke:rgb(238,201,228);fill:none"/><path d="M 162 203
L 166 203" style="stroke-width:1;stroke:rgb(238,201,228);fill:none"/><path d="M 162 234
L 166 234" style="stroke-width:1;stroke:rgb(238,201,228);fill:none"/><path d="M 160 223
L 168 223
L 168 234
L 160 234
L 160 223" style="stroke:none;fill:rgb(238,201,228)"/><path d="M 312 193
L 312 203" style="stroke-width:1;stroke:rgb(159,170,203);fill:none"/><path d="M 312 213
L 312 223" style="stroke-width:1;stroke:rgb(159,170,203);fill:none"/><path d="M 310 193
L 314 193" style="stroke-width:1;stroke:rgb(159,170,203);fill:none"/><path d="M 310 223
L 314 223" style="stroke-width:1;stroke:rgb(159,170,203);fill:none"/><path d="M 308 203
L 316 203
L 316 213
L 308 213
L 308 203" style="stroke:none;fill:rgb(159,170,203)"/><path d="M 461 183
L 461 203" style="stroke-width:1;stroke:rgb(238,201,228);fill:none"/><path d="M 459 183
L 463 183" style="stroke-width:1;stroke:rgb(238,201,228);fill:none"/><path d="M 459 213
L 463 213" style="stroke-width:1;stroke:rgb(238,201,228);fill:none"/><path d="M 457 203
L 465 203
L 465 213
L 457 213
L 457 203" style="stroke:none;fill:rgb(238,201,228)"/><path d="M 610 173
L 610 183" style="stroke-width:1;stroke:rgb(159,170,203);fill:none"/><path d="M 610 193
L 610 203" style="stroke-width:1;stroke:rgb(159,170,203);fill:none"/><path d="M 608 173
L 612 173" style="stroke-width:1;stroke:rgb(159,170,203);fill:none"/><path d="M 608 203
L 612 203" style="stroke-width:1;stroke:rgb(159,170,203);fill:none"/><path d="M 606 183
L 614 183
L 614 193
L 606 193
L 606 183" style="stroke:none;fill:rgb(159,170,203)"/><path d="M 759 163
L 759 183" style="stroke-width:1;stroke:rgb(238,201,228);fill:none"/><path d="M 757 163
L 761 163" style="stroke-width:1;stroke:rgb(238,201,228);fill:none"/><path d="M 757 193
L 761 193" style="stroke-width:1;stroke:rgb(238,201,228);fill:none"/><path d="M 755 183
L 763 183
L 763 193
L 755 193
L 755 183" style="stroke:none;fill:rgb(238,201,228)"/><path d="M 177 163
L 177 183" style="stroke-width:1;stroke:rgb(243,219,219);fill:none"/><path d="M 175 163
L 179 163" style="stroke-width:1;stroke:rgb(243,219,219);fill:none"/><path d="M 175 193
L 179 193" style="stroke-width:1;stroke:rgb(243,219,219);fill:none"/><path d="M 173 183
L 181 183
L 181 193
L 173 193
L 173 183" style="stroke:none;fill:rgb(243,219,219)"/><path d="M 325 153
L 325 163" style="stroke-width:1;stroke:rgb(219,227,216);fill:none"/><path d="M 325 173
L 325 183" style="stroke-width:1;stroke:rgb(219,227,216);fill:none"/><path d="M 323 153
L 327 153" style="stroke-width:1;stroke:rgb(219,227,216);fill:none"/><path d="M 323 183
L 327 183" style="stroke-width:1;stroke:rgb(219,227,216);fill:none"/><path d="M 321 163
L 329 163
L 329 173
L 321 173
L 321 163" style="stroke:none;fill:rgb(219,227,216)"/><path d="M 474 143
L 474 163" style="stroke-width:1;stroke:rgb(243,219,219);fill:none"/><path d="M 472 143
L 476 143" style="stroke-width:1;stroke:rgb(243,219,219);fill:none"/><path d="M 472 173
L 476 173" style="stroke-width:1;stroke:rgb(243,219,219);fill:none"/><path d="M 470 163
L 478 163
L 478 173
L 470 173
L 470 163" style="stroke:none;fill:rgb(243,219,219)"/><path d="M 623 133
L 623 143" style="stroke-width:1;stroke:rgb(219,227,216);fill:none"/><path d="M 623 153
L 623 163" style="stroke-width:1;stroke:rgb(219,227,216);fill:none"/><path d="M 621 133
L 625 133" style="stroke-width:1;stroke:rgb(219,227,216);fill:none"/><path d="M 621 163
L 625 163" style="stroke-width:1;stroke:rgb(219,227,216);fill:none"/><path d="M 619 143
L 627 143
L 627 153
L 619 153
L 619 143" style="stroke:none;fill:rgb(219,227,216)"/><path d="M 772 123
L 772 143" style="stroke-width:1;stroke:rgb(243,219,219);fill:none"/><path d="M 770 123
L 774 123" style="stroke-width:1;stroke:rgb(243,219,219);fill:none"/><path d="M 770 153
L 774 153" style="stroke-width:1;stroke:rgb(243,219,219);fill:none"/><path d="M 768 143
L 776 143
L 776 153
L 768 153
L 768 143" style="stroke:none;fill:rgb(243,219,219)"/></svg>