<svg xmlns="http://www.w3.org/2000/svg" xmlns:xlink="http://www.w3.org/1999/xlink" viewBox="0 0 800 600"><path d="M 0 0
L 800 0
L 800 600
L 0 600
L 0 0" style="stroke:none;fill:white"/><text x="9" y="16" style="stroke:none;fill:rgb(70,70,70);font-size:15.3px;font-family:'Roboto Medium',sans-serif">117.5</text><text x="22" y="77" style="stroke:none;fill:rgb(70,70,70);font-size:15.3px;font-family:'Roboto Medium',sans-serif">115</text><text x="9" y="138" style="stroke:none;fill:rgb(70,70,70);font-size:15.3px;font-family:'Roboto Medium',sans-serif">112.5</text><text x="22" y="200" style="stroke:none;fill:rgb(70,70,70);font-size:15.3px;font-family:'Roboto Medium',sans-serif">110</text><text x="9" y="261" style="stroke:none;fill:rgb(70,70,70);font-size:15.3px;font-family:'Roboto Medium',sans-serif">107.5</text><text x="22" y="323" style="stroke:none;fill:rgb(70,70,70);font-size:15.3px;font-family:'Roboto Medium',sans-serif">105</text><text x="9" y="384" style="stroke:none;fill:rgb(70,70,70);font-size:15.3px;font-family:'Roboto Medium',sans-serif">102.5</text><text x="22" y="446" style="stroke:none;fill:rgb(70,70,70);font-size:15.3px;font-family:'Roboto Medium',sans-serif">100</text><text x="18" y="507" style="stroke:none;fill:rgb(70,70,70);font-size:15.3px;font-family:'Roboto Medium',sans-serif">97.5</text><text x="31" y="569" style="stroke:none;fill:rgb(70,70,70);font-size:15.3px;font-family:'Roboto Medium',sans-serif">95</text><path d="M 55 10
L 790 10" style="stroke-width:1;stroke:rgb(224,230,242);fill:none"/><path d="M 55 71
L 790 71" style="stroke-width:1;stroke:rgb(224,230,242);fill:none"/><path d="M 55 133
L 790 133" style="stroke-width:1;stroke:rgb(224,230,242);fill:none"/><path d="M 55 195
L 790 195" style="stroke-width:1;stroke:rgb(224,230,242);fill:none"/><path d="M 55 256
L 790 256" style="stroke-width:1;stroke:rgb(224,230,242);fill:none"/><path d="M 55 318
L 790 318" style="stroke-width:1;stroke:rgb(224,230,242);fill:none"/><path d="M 55 380
L 790 380" style="stroke-width:1;stroke:rgb(224,230,242);fill:none"/><path d="M 55 441
L 790 441" style="stroke-width:1;stroke:rgb(224,230,242);fill:none"/><path d="M 55 503
L 790 503" style="stroke-width:1;stroke:rgb(224,230,242);fill:none"/><path d="M 59 565
L 790 565" style="stroke-width:1;stroke:rgb(110,112,121);fill:none"/><path d="M 59 570
L 59 565" style="stroke-width:1;stroke:rgb(110,112,121);fill:none"/><path d="M 424 570
L 424 565" style="stroke-width:1;stroke:rgb(110,112,121);fill:none"/><path d="M 790 570
L 790 565" style="stroke-width:1;stroke:rgb(110,112,121);fill:none"/><text x="236" y="588" style="stroke:none;fill:rgb(70,70,70);font-size:15.3px;font-family:'Roboto Medium',sans-serif">A</text><text x="602" y="588" style="stroke:none;fill:rgb(70,70,70);font-size:15.3px;font-family:'Roboto Medium',sans-serif">B</text><path d="M 241 195
L 241 442" style="stroke-width:1;stroke:rgb(145,204,117);fill:none"/><path d="M 241 442
L 241 565" style="stroke-width:1;stroke:rgb(145,204,117);fill:none"/><path d="M 168 195
L 314 195" style="stroke-width:1;stroke:rgb(145,204,117);fill:none"/><path d="M 168 565
L 314 565" style="stroke-width:1;stroke:rgb(145,204,117);fill:none"/><path d="M 95 442
L 387 442" style="stroke-width:1;stroke:rgb(145,204,117);fill:none"/><path d="M 607 72
L 607 146" style="stroke-width:1;stroke:rgb(145,204,117);fill:none"/><path d="M 607 319
L 607 442" style="stroke-width:1;stroke:rgb(145,204,117);fill:none"/><path d="M 534 72
L 680 72" style="stroke-width:1;stroke:rgb(145,204,117);fill:none"/><path d="M 534 442
L 680 442" style="stroke-width:1;stroke:rgb(145,204,117);fill:none"/><path d="M 461 146
L 753 146
L 753 319
L 461 319
L 461 146" style="stroke:none;fill:rgb(145,204,117)"/><path d="M 246 429
L 284 429
L 284 429
A 4 4 90.00 0 1 288 433
L 288 446
L 288 446
A 4 4 90.00 0 1 284 450
L 246 450
L 246 450
A 4 4 90.00 0 1 242 446
L 242 433
L 242 433
A 4 4 90.00 0 1 246 429
Z" style="stroke-width:1.2;stroke:rgb(200,200,200);fill:rgba(255,255,255,0.7)"/><text x="246" y="446" style="stroke:none;fill:rgb(128,128,128);font-size:12.8px;font-family:'Roboto Medium',sans-serif">↔ Doji</text><text x="612" y="150" style="stroke:none;fill:rgb(70,70,70);font-size:12.8px;font-family:'Roboto Medium',sans-serif">User Label</text></svg>