<svg xmlns="http://www.w3.org/2000/svg" xmlns:xlink="http://www.w3.org/1999/xlink" viewBox="0 0 600 400"><path d="M 0 0
L 600 0
L 600 400
L 0 400
L 0 0" style="stroke:none;fill:white"/><text x="20" y="36" style="stroke:none;fill:rgb(70,70,70);font-size:15.3px;font-family:'Roboto Medium',sans-serif">Sales</text><text x="19" y="57" style="stroke:none;fill:rgb(70,70,70);font-size:15.3px;font-family:'Roboto Medium',sans-serif">210</text><text x="19" y="84" style="stroke:none;fill:rgb(70,70,70);font-size:15.3px;font-family:'Roboto Medium',sans-serif">200</text><text x="19" y="111" style="stroke:none;fill:rgb(70,70,70);font-size:15.3px;font-family:'Roboto Medium',sans-serif">190</text><text x="19" y="139" style="stroke:none;fill:rgb(70,70,70);font-size:15.3px;font-family:'Roboto Medium',sans-serif">180</text><text x="19" y="166" style="stroke:none;fill:rgb(70,70,70);font-size:15.3px;font-family:'Roboto Medium',sans-serif">170</text><text x="19" y="194" style="stroke:none;fill:rgb(70,70,70);font-size:15.3px;font-family:'Roboto Medium',sans-serif">160</text><text x="19" y="221" style="stroke:none;fill:rgb(70,70,70);font-size:15.3px;font-family:'Roboto Medium',sans-serif">150</text><text x="19" y="249" style="stroke:none;fill:rgb(70,70,70);font-size:15.3px;font-family:'Roboto Medium',sans-serif">140</text><text x="19" y="276" style="stroke:none;fill:rgb(70,70,70);font-size:15.3px;font-family:'Roboto Medium',sans-serif">130</text><text x="19" y="304" style="stroke:none;fill:rgb(70,70,70);font-size:15.3px;font-family:'Roboto Medium',sans-serif">120</text><text x="19" y="331" style="stroke:none;fill:rgb(70,70,70);font-size:15.3px;font-family:'Roboto Medium',sans-serif">110</text><text x="19" y="359" style="stroke:none;fill:rgb(70,70,70);font-size:15.3px;font-family:'Roboto Medium',sans-serif">100</text><path d="M 52 51
L 580 51" style="stroke-width:1;stroke:rgb(224,230,242);fill:none"/><path d="M 52 78
L 580 78" style="stroke-width:1;stroke:rgb(224,230,242);fill:none"/><path d="M 52 106
L 580 106" style="stroke-width:1;stroke:rgb(224,230,242);fill:none"/><path d="M 52 133
L 580 133" style="stroke-width:1;stroke:rgb(224,230,242);fill:none"/><path d="M 52 161
L 580 161" style="stroke-width:1;stroke:rgb(224,230,242);fill:none"/><path d="M 52 189
L 580 189" style="stroke-width:1;stroke:rgb(224,230,242);fill:none"/><path d="M 52 216
L 580 216" style="stroke-width:1;stroke:rgb(224,230,242);fill:none"/><path d="M 52 244
L 580 244" style="stroke-width:1;stroke:rgb(224,230,242);fill:none"/><path d="M 52 272
L 580 272" style="stroke-width:1;stroke:rgb(224,230,242);fill:none"/><path d="M 52 299
L 580 299" style="stroke-width:1;stroke:rgb(224,230,242);fill:none"/><path d="M 52 327
L 580 327" style="stroke-width:1;stroke:rgb(224,230,242);fill:none"/><path d="M 56 355
L 580 355" style="stroke-width:1;stroke:rgb(110,112,121);fill:none"/><path d="M 56 360
L 56 355" style="stroke-width:1;stroke:rgb(110,112,121);fill:none"/><path d="M 318 360
L 318 355" style="stroke-width:1;stroke:rgb(110,112,121);fill:none"/><path d="M 580 360
L 580 355" style="stroke-width:1;stroke:rgb(110,112,121);fill:none"/><text x="174" y="378" style="stroke:none;fill:rgb(70,70,70);font-size:15.3px;font-family:'Roboto Medium',sans-serif">Jan</text><text x="436" y="378" style="stroke:none;fill:rgb(70,70,70);font-size:15.3px;font-family:'Roboto Medium',sans-serif">Feb</text><path d="M 66 355
L 308 355
L 308 354
L 66 354
L 66 355" style="stroke:none;fill:rgb(84,112,198)"/><path d="M 328 79
L 570 79
L 570 354
L 328 354
L 328 79" style="stroke:none;fill:rgb(84,112,198)"/></svg>