<svg xmlns="http://www.w3.org/2000/svg" xmlns:xlink="http://www.w3.org/1999/xlink" viewBox="0 0 600 400"><path d="M 0 0
L 600 0
L 600 400
L 0 400
L 0 0" style="stroke:none;fill:white"/><path d="M 259 29
L 289 29" style="stroke-width:3;stroke:rgb(84,112,198);fill:none"/><circle cx="274" cy="29" r="5" style="stroke-width:3;stroke:rgb(84,112,198);fill:rgb(84,112,198)"/><text x="291" y="35" style="stroke:none;fill:rgb(70,70,70);font-size:15.3px;font-family:'Roboto Medium',sans-serif">Series1</text><path d="M 249 51
L 249 10
L 351 10
L 351 51
L 249 51" style="stroke-width:2;stroke:lime;fill:none"/><text x="29" y="54" style="stroke:none;fill:none;font-size:15.3px;font-family:'Roboto Medium',sans-serif">32</text><text x="29" y="103" style="stroke:none;fill:none;font-size:15.3px;font-family:'Roboto Medium',sans-serif">30</text><text x="29" y="153" style="stroke:none;fill:none;font-size:15.3px;font-family:'Roboto Medium',sans-serif">28</text><text x="29" y="202" style="stroke:none;fill:none;font-size:15.3px;font-family:'Roboto Medium',sans-serif">26</text><text x="29" y="252" style="stroke:none;fill:none;font-size:15.3px;font-family:'Roboto Medium',sans-serif">24</text><text x="29" y="301" style="stroke:none;fill:none;font-size:15.3px;font-family:'Roboto Medium',sans-serif">22</text><text x="29" y="351" style="stroke:none;fill:none;font-size:15.3px;font-family:'Roboto Medium',sans-serif">20</text><path d="M 25 56
L 580 56" style="stroke-width:1;stroke:rgb(224,230,242);fill:none"/><path d="M 25 105
L 580 105" style="stroke-width:1;stroke:rgb(224,230,242);fill:none"/><path d="M 25 155
L 580 155" style="stroke-width:1;stroke:rgb(224,230,242);fill:none"/><path d="M 25 205
L 580 205" style="stroke-width:1;stroke:rgb(224,230,242);fill:none"/><path d="M 25 255
L 580 255" style="stroke-width:1;stroke:rgb(224,230,242);fill:none"/><path d="M 25 305
L 580 305" style="stroke-width:1;stroke:rgb(224,230,242);fill:none"/><path d="M 29 355
L 580 355" style="stroke-width:1;stroke:rgb(110,112,121);fill:none"/><path d="M 29 360
L 29 355" style="stroke-width:1;stroke:rgb(110,112,121);fill:none"/><path d="M 304 360
L 304 355" style="stroke-width:1;stroke:rgb(110,112,121);fill:none"/><path d="M 580 360
L 580 355" style="stroke-width:1;stroke:rgb(110,112,121);fill:none"/><text x="166" y="362" style="stroke:none;fill:none;font-size:15.3px;font-family:'Roboto Medium',sans-serif">A</text><text x="442" y="362" style="stroke:none;fill:none;font-size:15.3px;font-family:'Roboto Medium',sans-serif">B</text><path d="M 166 355
L 442 106" style="stroke-width:2;stroke:rgb(84,112,198);fill:none"/><circle cx="166" cy="355" r="2" style="stroke-width:1;stroke:rgb(84,112,198);fill:white"/><circle cx="442" cy="106" r="2" style="stroke-width:1;stroke:rgb(84,112,198);fill:white"/></svg>