<svg xmlns="http://www.w3.org/2000/svg" xmlns:xlink="http://www.w3.org/1999/xlink" viewBox="0 0 600 400"><path d="M 0 0
L 600 0
L 600 400
L 0 400
L 0 0" style="stroke:none;fill:white"/><path d="M 10 365
L 590 365" style="stroke-width:1;stroke:rgb(110,112,121);fill:none"/><path d="M 10 370
L 10 365" style="stroke-width:1;stroke:rgb(110,112,121);fill:none"/><path d="M 92 370
L 92 365" style="stroke-width:1;stroke:rgb(110,112,121);fill:none"/><path d="M 175 370
L 175 365" style="stroke-width:1;stroke:rgb(110,112,121);fill:none"/><path d="M 258 370
L 258 365" style="stroke-width:1;stroke:rgb(110,112,121);fill:none"/><path d="M 341 370
L 341 365" style="stroke-width:1;stroke:rgb(110,112,121);fill:none"/><path d="M 424 370
L 424 365" style="stroke-width:1;stroke:rgb(110,112,121);fill:none"/><path d="M 507 370
L 507 365" style="stroke-width:1;stroke:rgb(110,112,121);fill:none"/><path d="M 590 370
L 590 365" style="stroke-width:1;stroke:rgb(110,112,121);fill:none"/><text x="47" y="388" style="stroke:none;fill:rgb(70,70,70);font-size:15.3px;font-family:'Roboto Medium',sans-serif">1</text><text x="129" y="388" style="stroke:none;fill:rgb(70,70,70);font-size:15.3px;font-family:'Roboto Medium',sans-serif">2</text><text x="212" y="388" style="stroke:none;fill:rgb(70,70,70);font-size:15.3px;font-family:'Roboto Medium',sans-serif">3</text><text x="295" y="388" style="stroke:none;fill:rgb(70,70,70);font-size:15.3px;font-family:'Roboto Medium',sans-serif">4</text><text x="378" y="388" style="stroke:none;fill:rgb(70,70,70);font-size:15.3px;font-family:'Roboto Medium',sans-serif">5</text><text x="461" y="388" style="stroke:none;fill:rgb(70,70,70);font-size:15.3px;font-family:'Roboto Medium',sans-serif">6</text><text x="544" y="388" style="stroke:none;fill:rgb(70,70,70);font-size:15.3px;font-family:'Roboto Medium',sans-serif">7</text><circle cx="51" cy="339" r="2" style="stroke-width:1;stroke:rgb(84,112,198);fill:rgb(84,112,198)"/><circle cx="133" cy="336" r="2" style="stroke-width:1;stroke:rgb(84,112,198);fill:rgb(84,112,198)"/><circle cx="216" cy="343" r="2" style="stroke-width:1;stroke:rgb(84,112,198);fill:rgb(84,112,198)"/><circle cx="299" cy="336" r="2" style="stroke-width:1;stroke:rgb(84,112,198);fill:rgb(84,112,198)"/><circle cx="382" cy="346" r="2" style="stroke-width:1;stroke:rgb(84,112,198);fill:rgb(84,112,198)"/><circle cx="465" cy="314" r="2" style="stroke-width:1;stroke:rgb(84,112,198);fill:rgb(84,112,198)"/><circle cx="548" cy="319" r="2" style="stroke-width:1;stroke:rgb(84,112,198);fill:rgb(84,112,198)"/><circle cx="51" cy="184" r="2" style="stroke-width:1;stroke:rgb(145,204,117);fill:rgb(145,204,117)"/><circle cx="133" cy="159" r="2" style="stroke-width:1;stroke:rgb(145,204,117);fill:rgb(145,204,117)"/><circle cx="216" cy="166" r="2" style="stroke-width:1;stroke:rgb(145,204,117);fill:rgb(145,204,117)"/><circle cx="299" cy="158" r="2" style="stroke-width:1;stroke:rgb(145,204,117);fill:rgb(145,204,117)"/><circle cx="382" cy="79" r="2" style="stroke-width:1;stroke:rgb(145,204,117);fill:rgb(145,204,117)"/><circle cx="465" cy="70" r="2" style="stroke-width:1;stroke:rgb(145,204,117);fill:rgb(145,204,117)"/><circle cx="548" cy="73" r="2" style="stroke-width:1;stroke:rgb(145,204,117);fill:rgb(145,204,117)"/></svg>