<svg xmlns="http://www.w3.org/2000/svg" xmlns:xlink="http://www.w3.org/1999/xlink" viewBox="0 0 600 400"><path d="M 0 0
L 600 0
L 600 400
L 0 400
L 0 0" style="stroke:none;fill:white"/><path d="M 250 19
L 280 19" style="stroke-width:3;stroke:rgb(84,112,198);fill:none"/><circle cx="265" cy="19" r="5" style="stroke-width:3;stroke:rgb(84,112,198);fill:rgb(84,112,198)"/><circle cx="265" cy="19" r="2" style="stroke-width:3;stroke:white;fill:white"/><text x="282" y="25" style="stroke:none;fill:rgb(70,70,70);font-size:15.3px;font-family:'Roboto Medium',sans-serif">1</text><path d="M 311 19
L 341 19" style="stroke-width:3;stroke:rgb(145,204,117);fill:none"/><circle cx="326" cy="19" r="5" style="stroke-width:3;stroke:rgb(145,204,117);fill:rgb(145,204,117)"/><circle cx="326" cy="19" r="2" style="stroke-width:3;stroke:white;fill:white"/><text x="343" y="25" style="stroke:none;fill:rgb(70,70,70);font-size:15.3px;font-family:'Roboto Medium',sans-serif">2</text><circle cx="10" cy="365" r="5" style="stroke-width:1;stroke:rgb(84,112,198);fill:white"/><circle cx="155" cy="362" r="5" style="stroke-width:1;stroke:rgb(84,112,198);fill:white"/><circle cx="300" cy="369" r="5" style="stroke-width:1;stroke:rgb(84,112,198);fill:white"/><circle cx="445" cy="362" r="5" style="stroke-width:1;stroke:rgb(84,112,198);fill:white"/><circle cx="590" cy="371" r="5" style="stroke-width:1;stroke:rgb(84,112,198);fill:white"/><circle cx="10" cy="214" r="5" style="stroke-width:1;stroke:rgb(145,204,117);fill:white"/><circle cx="155" cy="190" r="5" style="stroke-width:1;stroke:rgb(145,204,117);fill:white"/><circle cx="300" cy="197" r="5" style="stroke-width:1;stroke:rgb(145,204,117);fill:white"/><circle cx="445" cy="190" r="5" style="stroke-width:1;stroke:rgb(145,204,117);fill:white"/><circle cx="590" cy="113" r="5" style="stroke-width:1;stroke:rgb(145,204,117);fill:white"/></svg>