<svg xmlns="http://www.w3.org/2000/svg" xmlns:xlink="http://www.w3.org/1999/xlink" viewBox="0 0 600 400"><path d="M 0 0
L 600 0
L 600 400
L 0 400
L 0 0" style="stroke:none;fill:white"/><text x="19" y="375" style="stroke:none;fill:rgb(70,70,70);font-size:15.3px;font-family:'Roboto Medium',sans-serif">0</text><text x="159" y="375" style="stroke:none;fill:rgb(70,70,70);font-size:15.3px;font-family:'Roboto Medium',sans-serif">80</text><text x="299" y="375" style="stroke:none;fill:rgb(70,70,70);font-size:15.3px;font-family:'Roboto Medium',sans-serif">160</text><text x="439" y="375" style="stroke:none;fill:rgb(70,70,70);font-size:15.3px;font-family:'Roboto Medium',sans-serif">240</text><text x="553" y="375" style="stroke:none;fill:rgb(70,70,70);font-size:15.3px;font-family:'Roboto Medium',sans-serif">320</text><path d="M 160 20
L 160 352" style="stroke-width:1;stroke:rgb(224,230,242);fill:none"/><path d="M 300 20
L 300 352" style="stroke-width:1;stroke:rgb(224,230,242);fill:none"/><path d="M 440 20
L 440 352" style="stroke-width:1;stroke:rgb(224,230,242);fill:none"/><path d="M 580 20
L 580 352" style="stroke-width:1;stroke:rgb(224,230,242);fill:none"/><path d="M 20 319
L 28 319
L 28 351
L 20 351
L 20 319" style="stroke:none;fill:rgb(84,112,198)"/><path d="M 20 277
L 60 277
L 60 309
L 20 309
L 20 277" style="stroke:none;fill:rgb(84,112,198)"/><path d="M 20 235
L 64 235
L 64 267
L 20 267
L 20 235" style="stroke:none;fill:rgb(84,112,198)"/><path d="M 20 193
L 199 193
L 199 225
L 20 225
L 20 193" style="stroke:none;fill:rgb(84,112,198)"/><path d="M 20 151
L 268 151
L 268 183
L 20 183
L 20 151" style="stroke:none;fill:rgb(84,112,198)"/><path d="M 20 109
L 77 109
L 77 141
L 20 141
L 20 109" style="stroke:none;fill:rgb(84,112,198)"/><path d="M 20 67
L 55 67
L 55 99
L 20 99
L 20 67" style="stroke:none;fill:rgb(84,112,198)"/><path d="M 20 25
L 25 25
L 25 57
L 20 57
L 20 25" style="stroke:none;fill:rgb(84,112,198)"/><path d="M 28 319
L 61 319
L 61 351
L 28 351
L 28 319" style="stroke:none;fill:rgb(145,204,117)"/><path d="M 60 277
L 106 277
L 106 309
L 60 309
L 60 277" style="stroke:none;fill:rgb(145,204,117)"/><path d="M 64 235
L 114 235
L 114 267
L 64 267
L 64 235" style="stroke:none;fill:rgb(145,204,117)"/><path d="M 199 193
L 452 193
L 452 225
L 199 225
L 199 193" style="stroke:none;fill:rgb(145,204,117)"/><path d="M 268 151
L 481 151
L 481 183
L 268 183
L 268 151" style="stroke:none;fill:rgb(145,204,117)"/><path d="M 77 109
L 162 109
L 162 141
L 77 141
L 77 109" style="stroke:none;fill:rgb(145,204,117)"/><path d="M 55 67
L 105 67
L 105 99
L 55 99
L 55 67" style="stroke:none;fill:rgb(145,204,117)"/><path d="M 25 25
L 64 25
L 64 57
L 25 57
L 25 25" style="stroke:none;fill:rgb(145,204,117)"/><path d="M 61 319
L 201 319
L 201 351
L 61 351
L 61 319" style="stroke:none;fill:rgb(250,200,88)"/><path d="M 106 277
L 176 277
L 176 309
L 106 309
L 106 277" style="stroke:none;fill:rgb(250,200,88)"/><path d="M 114 235
L 163 235
L 163 267
L 114 267
L 114 235" style="stroke:none;fill:rgb(250,200,88)"/><path d="M 452 193
L 502 193
L 502 225
L 452 225
L 452 193" style="stroke:none;fill:rgb(250,200,88)"/><path d="M 481 151
L 523 151
L 523 183
L 481 183
L 481 151" style="stroke:none;fill:rgb(250,200,88)"/><path d="M 162 109
L 204 109
L 204 141
L 162 141
L 162 109" style="stroke:none;fill:rgb(250,200,88)"/><path d="M 105 67
L 176 67
L 176 99
L 105 99
L 105 67" style="stroke:none;fill:rgb(250,200,88)"/><path d="M 64 25
L 205 25
L 205 57
L 64 57
L 64 25" style="stroke:none;fill:rgb(250,200,88)"/><circle cx="268" cy="353" r="3" style="stroke-width:1;stroke:rgb(84,112,198);fill:rgb(84,112,198)"/><path stroke-dasharray="4.0, 2.0" d="M 268 22
L 268 356" style="stroke-width:1;stroke:rgb(84,112,198);fill:rgb(84,112,198)"/><path stroke-dasharray="4.0, 2.0" d="M 263 38
L 268 22
L 273 38
L 268 33
L 263 38" style="stroke-width:1;stroke:rgb(84,112,198);fill:rgb(84,112,198)"/><text x="256" y="20" style="stroke:none;fill:rgb(70,70,70);font-size:12.8px;font-family:'Roboto Medium',sans-serif">142</text><circle cx="97" cy="353" r="3" style="stroke-width:1;stroke:rgb(84,112,198);fill:rgb(84,112,198)"/><path stroke-dasharray="4.0, 2.0" d="M 97 22
L 97 356" style="stroke-width:1;stroke:rgb(84,112,198);fill:rgb(84,112,198)"/><path stroke-dasharray="4.0, 2.0" d="M 92 38
L 97 22
L 102 38
L 97 33
L 92 38" style="stroke-width:1;stroke:rgb(84,112,198);fill:rgb(84,112,198)"/><text x="89" y="20" style="stroke:none;fill:rgb(70,70,70);font-size:12.8px;font-family:'Roboto Medium',sans-serif">44</text><circle cx="525" cy="353" r="3" style="stroke-width:1;stroke:rgb(211,211,211);fill:rgb(211,211,211)"/><path stroke-dasharray="4.0, 2.0" d="M 525 22
L 525 356" style="stroke-width:1;stroke:rgb(211,211,211);fill:rgb(211,211,211)"/><path stroke-dasharray="4.0, 2.0" d="M 520 38
L 525 22
L 530 38
L 525 33
L 520 38" style="stroke-width:1;stroke:rgb(211,211,211);fill:rgb(211,211,211)"/><text x="513" y="20" style="stroke:none;fill:rgb(70,70,70);font-size:12.8px;font-family:'Roboto Medium',sans-serif">288</text><text x="33" y="339" style="stroke:none;fill:rgb(70,70,70);font-size:12.8px;font-family:'Roboto Medium',sans-serif">4</text><text x="65" y="297" style="stroke:none;fill:rgb(70,70,70);font-size:12.8px;font-family:'Roboto Medium',sans-serif">23</text><text x="69" y="255" style="stroke:none;fill:rgb(70,70,70);font-size:12.8px;font-family:'Roboto Medium',sans-serif">25</text><text x="204" y="213" style="stroke:none;fill:rgb(70,70,70);font-size:12.8px;font-family:'Roboto Medium',sans-serif">102</text><text x="273" y="171" style="stroke:none;fill:rgb(70,70,70);font-size:12.8px;font-family:'Roboto Medium',sans-serif">142</text><text x="82" y="129" style="stroke:none;fill:rgb(70,70,70);font-size:12.8px;font-family:'Roboto Medium',sans-serif">32</text><text x="60" y="87" style="stroke:none;fill:rgb(70,70,70);font-size:12.8px;font-family:'Roboto Medium',sans-serif">20</text><text x="30" y="45" style="stroke:none;fill:rgb(70,70,70);font-size:12.8px;font-family:'Roboto Medium',sans-serif">3</text><text x="66" y="339" style="stroke:none;fill:rgb(70,70,70);font-size:12.8px;font-family:'Roboto Medium',sans-serif">19</text><text x="111" y="297" style="stroke:none;fill:rgb(70,70,70);font-size:12.8px;font-family:'Roboto Medium',sans-serif">26</text><text x="119" y="255" style="stroke:none;fill:rgb(70,70,70);font-size:12.8px;font-family:'Roboto Medium',sans-serif">28</text><text x="457" y="213" style="stroke:none;fill:rgb(70,70,70);font-size:12.8px;font-family:'Roboto Medium',sans-serif">144</text><text x="486" y="171" style="stroke:none;fill:rgb(70,70,70);font-size:12.8px;font-family:'Roboto Medium',sans-serif">122</text><text x="167" y="129" style="stroke:none;fill:rgb(70,70,70);font-size:12.8px;font-family:'Roboto Medium',sans-serif">48</text><text x="110" y="87" style="stroke:none;fill:rgb(70,70,70);font-size:12.8px;font-family:'Roboto Medium',sans-serif">28</text><text x="69" y="45" style="stroke:none;fill:rgb(70,70,70);font-size:12.8px;font-family:'Roboto Medium',sans-serif">22</text><text x="206" y="339" style="stroke:none;fill:rgb(70,70,70);font-size:12.8px;font-family:'Roboto Medium',sans-serif">80</text><text x="181" y="297" style="stroke:none;fill:rgb(70,70,70);font-size:12.8px;font-family:'Roboto Medium',sans-serif">40</text><text x="168" y="255" style="stroke:none;fill:rgb(70,70,70);font-size:12.8px;font-family:'Roboto Medium',sans-serif">28</text><text x="507" y="213" style="stroke:none;fill:rgb(70,70,70);font-size:12.8px;font-family:'Roboto Medium',sans-serif">28</text><text x="528" y="171" style="stroke:none;fill:rgb(70,70,70);font-size:12.8px;font-family:'Roboto Medium',sans-serif">24</text><text x="209" y="129" style="stroke:none;fill:rgb(70,70,70);font-size:12.8px;font-family:'Roboto Medium',sans-serif">24</text><text x="181" y="87" style="stroke:none;fill:rgb(70,70,70);font-size:12.8px;font-family:'Roboto Medium',sans-serif">40</text><text x="210" y="45" style="stroke:none;fill:rgb(70,70,70);font-size:12.8px;font-family:'Roboto Medium',sans-serif">80</text></svg>