<svg xmlns="http://www.w3.org/2000/svg" xmlns:xlink="http://www.w3.org/1999/xlink" viewBox="0 0 600 400"><path d="M 0 0
L 600 0
L 600 400
L 0 400
L 0 0" style="stroke:none;fill:white"/><text x="10" y="26" style="stroke:none;fill:rgb(70,70,70);font-size:15.3px;font-family:'Roboto Medium',sans-serif">World Population</text><path d="M 513 41
L 513 366" style="stroke-width:1;stroke:rgb(110,112,121);fill:none"/><path d="M 513 41
L 518 41" style="stroke-width:1;stroke:rgb(110,112,121);fill:none"/><path d="M 513 95
L 518 95" style="stroke-width:1;stroke:rgb(110,112,121);fill:none"/><path d="M 513 149
L 518 149" style="stroke-width:1;stroke:rgb(110,112,121);fill:none"/><path d="M 513 203
L 518 203" style="stroke-width:1;stroke:rgb(110,112,121);fill:none"/><path d="M 513 257
L 518 257" style="stroke-width:1;stroke:rgb(110,112,121);fill:none"/><path d="M 513 311
L 518 311" style="stroke-width:1;stroke:rgb(110,112,121);fill:none"/><path d="M 513 366
L 518 366" style="stroke-width:1;stroke:rgb(110,112,121);fill:none"/><text x="523" y="73" style="stroke:none;fill:rgb(70,70,70);font-size:15.3px;font-family:'Roboto Medium',sans-serif">World</text><text x="523" y="127" style="stroke:none;fill:rgb(70,70,70);font-size:15.3px;font-family:'Roboto Medium',sans-serif">China</text><text x="523" y="181" style="stroke:none;fill:rgb(70,70,70);font-size:15.3px;font-family:'Roboto Medium',sans-serif">India</text><text x="523" y="235" style="stroke:none;fill:rgb(70,70,70);font-size:15.3px;font-family:'Roboto Medium',sans-serif">USA</text><text x="523" y="289" style="stroke:none;fill:rgb(70,70,70);font-size:15.3px;font-family:'Roboto Medium',sans-serif">Indonesia</text><text x="523" y="343" style="stroke:none;fill:rgb(70,70,70);font-size:15.3px;font-family:'Roboto Medium',sans-serif">Brazil</text><text x="9" y="385" style="stroke:none;fill:rgb(70,70,70);font-size:15.3px;font-family:'Roboto Medium',sans-serif">800k</text><text x="134" y="385" style="stroke:none;fill:rgb(70,70,70);font-size:15.3px;font-family:'Roboto Medium',sans-serif">600k</text><text x="260" y="385" style="stroke:none;fill:rgb(70,70,70);font-size:15.3px;font-family:'Roboto Medium',sans-serif">400k</text><text x="385" y="385" style="stroke:none;fill:rgb(70,70,70);font-size:15.3px;font-family:'Roboto Medium',sans-serif">200k</text><text x="503" y="385" style="stroke:none;fill:rgb(70,70,70);font-size:15.3px;font-family:'Roboto Medium',sans-serif">0</text><path d="M 135 41
L 135 362" style="stroke-width:1;stroke:rgb(224,230,242);fill:none"/><path d="M 261 41
L 261 362" style="stroke-width:1;stroke:rgb(224,230,242);fill:none"/><path d="M 386 41
L 386 362" style="stroke-width:1;stroke:rgb(224,230,242);fill:none"/><path d="M 512 41
L 512 362" style="stroke-width:1;stroke:rgb(224,230,242);fill:none"/><path d="M 501 321
L 512 321
L 512 335
L 501 335
L 501 321" style="stroke:none;fill:rgb(84,112,198)"/><path d="M 498 267
L 512 267
L 512 281
L 498 281
L 498 267" style="stroke:none;fill:rgb(84,112,198)"/><path d="M 494 213
L 512 213
L 512 227
L 494 227
L 494 213" style="stroke:none;fill:rgb(84,112,198)"/><path d="M 447 159
L 512 159
L 512 173
L 447 173
L 447 159" style="stroke:none;fill:rgb(84,112,198)"/><path d="M 430 105
L 512 105
L 512 119
L 430 119
L 430 105" style="stroke:none;fill:rgb(84,112,198)"/><path d="M 117 51
L 512 51
L 512 65
L 117 65
L 117 51" style="stroke:none;fill:rgb(84,112,198)"/><path d="M 500 340
L 512 340
L 512 354
L 500 354
L 500 340" style="stroke:none;fill:rgb(145,204,117)"/><path d="M 498 286
L 512 286
L 512 300
L 498 300
L 498 286" style="stroke:none;fill:rgb(145,204,117)"/><path d="M 493 232
L 512 232
L 512 246
L 493 246
L 493 232" style="stroke:none;fill:rgb(145,204,117)"/><path d="M 436 178
L 512 178
L 512 192
L 436 192
L 436 178" style="stroke:none;fill:rgb(145,204,117)"/><path d="M 428 124
L 512 124
L 512 138
L 428 138
L 428 124" style="stroke:none;fill:rgb(145,204,117)"/><path d="M 85 70
L 512 70
L 512 84
L 85 84
L 85 70" style="stroke:none;fill:rgb(145,204,117)"/><path d="M 494 332
A 14 14 330.00 1 1 494 324
L 480 328
Z" style="stroke:none;fill:rgb(84,112,198)"/><path d="M 480 342
Q515,328 480,314
Z" style="stroke:none;fill:rgb(84,112,198)"/><text x="468" y="331" style="stroke:none;fill:rgb(238,238,238);font-size:10.2px;font-family:'Roboto Medium',sans-serif">18.2k</text><path d="M 110 62
A 14 14 330.00 1 1 110 54
L 96 58
Z" style="stroke:none;fill:rgb(84,112,198)"/><path d="M 96 72
Q131,58 96,44
Z" style="stroke:none;fill:rgb(84,112,198)"/><text x="84" y="61" style="stroke:none;fill:rgb(238,238,238);font-size:10.2px;font-family:'Roboto Medium',sans-serif">630.23k</text></svg>