<svg xmlns="http://www.w3.org/2000/svg" xmlns:xlink="http://www.w3.org/1999/xlink" viewBox="0 0 600 400"><path d="M 0 0
L 600 0
L 600 400
L 0 400
L 0 0" style="stroke:none;fill:white"/><path d="M 20 355
L 580 355" style="stroke-width:1;stroke:rgb(110,112,121);fill:none"/><path d="M 20 360
L 20 355" style="stroke-width:1;stroke:rgb(110,112,121);fill:none"/><path d="M 90 360
L 90 355" style="stroke-width:1;stroke:rgb(110,112,121);fill:none"/><path d="M 160 360
L 160 355" style="stroke-width:1;stroke:rgb(110,112,121);fill:none"/><path d="M 230 360
L 230 355" style="stroke-width:1;stroke:rgb(110,112,121);fill:none"/><path d="M 300 360
L 300 355" style="stroke-width:1;stroke:rgb(110,112,121);fill:none"/><path d="M 370 360
L 370 355" style="stroke-width:1;stroke:rgb(110,112,121);fill:none"/><path d="M 440 360
L 440 355" style="stroke-width:1;stroke:rgb(110,112,121);fill:none"/><path d="M 510 360
L 510 355" style="stroke-width:1;stroke:rgb(110,112,121);fill:none"/><path d="M 580 360
L 580 355" style="stroke-width:1;stroke:rgb(110,112,121);fill:none"/><text x="51" y="378" style="stroke:none;fill:rgb(70,70,70);font-size:15.3px;font-family:'Roboto Medium',sans-serif">1</text><text x="121" y="378" style="stroke:none;fill:rgb(70,70,70);font-size:15.3px;font-family:'Roboto Medium',sans-serif">2</text><text x="191" y="378" style="stroke:none;fill:rgb(70,70,70);font-size:15.3px;font-family:'Roboto Medium',sans-serif">3</text><text x="261" y="378" style="stroke:none;fill:rgb(70,70,70);font-size:15.3px;font-family:'Roboto Medium',sans-serif">4</text><text x="331" y="378" style="stroke:none;fill:rgb(70,70,70);font-size:15.3px;font-family:'Roboto Medium',sans-serif">5</text><text x="401" y="378" style="stroke:none;fill:rgb(70,70,70);font-size:15.3px;font-family:'Roboto Medium',sans-serif">6</text><text x="471" y="378" style="stroke:none;fill:rgb(70,70,70);font-size:15.3px;font-family:'Roboto Medium',sans-serif">7</text><text x="541" y="378" style="stroke:none;fill:rgb(70,70,70);font-size:15.3px;font-family:'Roboto Medium',sans-serif">8</text><path d="M 30 351
L 80 351
L 80 355
L 30 355
L 30 351" style="stroke:none;fill:rgb(84,112,198)"/><path d="M 100 333
L 150 333
L 150 355
L 100 355
L 100 333" style="stroke:none;fill:rgb(84,112,198)"/><path d="M 170 331
L 220 331
L 220 355
L 170 355
L 170 331" style="stroke:none;fill:rgb(84,112,198)"/><path d="M 240 257
L 290 257
L 290 355
L 240 355
L 240 257" style="stroke:none;fill:rgb(84,112,198)"/><path d="M 310 219
L 360 219
L 360 355
L 310 355
L 310 219" style="stroke:none;fill:rgb(84,112,198)"/><path d="M 380 324
L 430 324
L 430 355
L 380 355
L 380 324" style="stroke:none;fill:rgb(84,112,198)"/><path d="M 450 336
L 500 336
L 500 355
L 450 355
L 450 336" style="stroke:none;fill:rgb(84,112,198)"/><path d="M 520 352
L 570 352
L 570 355
L 520 355
L 520 352" style="stroke:none;fill:rgb(84,112,198)"/><path d="M 30 343
L 80 343
L 80 351
L 30 351
L 30 343" style="stroke:none;fill:rgb(145,204,117)"/><path d="M 100 308
L 150 308
L 150 333
L 100 333
L 100 308" style="stroke:none;fill:rgb(145,204,117)"/><path d="M 170 304
L 220 304
L 220 331
L 170 331
L 170 304" style="stroke:none;fill:rgb(145,204,117)"/><path d="M 240 119
L 290 119
L 290 257
L 240 257
L 240 119" style="stroke:none;fill:rgb(145,204,117)"/><path d="M 310 103
L 360 103
L 360 219
L 310 219
L 310 103" style="stroke:none;fill:rgb(145,204,117)"/><path d="M 380 278
L 430 278
L 430 324
L 380 324
L 380 278" style="stroke:none;fill:rgb(145,204,117)"/><path d="M 450 319
L 500 319
L 500 336
L 450 336
L 450 319" style="stroke:none;fill:rgb(145,204,117)"/><path d="M 520 350
L 570 350
L 570 352
L 520 352
L 520 350" style="stroke:none;fill:rgb(145,204,117)"/><path d="M 30 267
L 80 267
L 80 343
L 30 343
L 30 267" style="stroke:none;fill:rgb(250,200,88)"/><path d="M 100 270
L 150 270
L 150 308
L 100 308
L 100 270" style="stroke:none;fill:rgb(250,200,88)"/><path d="M 170 277
L 220 277
L 220 304
L 170 304
L 170 277" style="stroke:none;fill:rgb(250,200,88)"/><path d="M 240 92
L 290 92
L 290 119
L 240 119
L 240 92" style="stroke:none;fill:rgb(250,200,88)"/><path d="M 310 80
L 360 80
L 360 103
L 310 103
L 310 80" style="stroke:none;fill:rgb(250,200,88)"/><path d="M 380 255
L 430 255
L 430 278
L 380 278
L 380 255" style="stroke:none;fill:rgb(250,200,88)"/><path d="M 450 280
L 500 280
L 500 319
L 450 319
L 450 280" style="stroke:none;fill:rgb(250,200,88)"/><path d="M 520 273
L 570 273
L 570 350
L 520 350
L 520 273" style="stroke:none;fill:rgb(250,200,88)"/><path d="M 541 266
A 14 14 330.00 1 1 549 266
L 545 252
Z" style="stroke:none;fill:rgb(250,200,88)"/><path d="M 531 252
Q545,287 559,252
Z" style="stroke:none;fill:rgb(250,200,88)"/><text x="538" y="257" style="stroke:none;fill:rgb(70,70,70);font-size:12.8px;font-family:'Roboto Medium',sans-serif">80</text><path d="M 331 73
A 14 14 330.00 1 1 339 73
L 335 59
Z" style="stroke:none;fill:rgb(211,211,211)"/><path d="M 321 59
Q335,94 349,59
Z" style="stroke:none;fill:rgb(211,211,211)"/><text x="324" y="64" style="stroke:none;fill:rgb(70,70,70);font-size:12.8px;font-family:'Roboto Medium',sans-serif">288</text><text x="51" y="346" style="stroke:none;fill:rgb(70,70,70);font-size:12.8px;font-family:'Roboto Medium',sans-serif">4</text><text x="118" y="328" style="stroke:none;fill:rgb(70,70,70);font-size:12.8px;font-family:'Roboto Medium',sans-serif">23</text><text x="188" y="326" style="stroke:none;fill:rgb(70,70,70);font-size:12.8px;font-family:'Roboto Medium',sans-serif">25</text><text x="254" y="252" style="stroke:none;fill:rgb(70,70,70);font-size:12.8px;font-family:'Roboto Medium',sans-serif">102</text><text x="324" y="214" style="stroke:none;fill:rgb(70,70,70);font-size:12.8px;font-family:'Roboto Medium',sans-serif">142</text><text x="398" y="319" style="stroke:none;fill:rgb(70,70,70);font-size:12.8px;font-family:'Roboto Medium',sans-serif">32</text><text x="468" y="331" style="stroke:none;fill:rgb(70,70,70);font-size:12.8px;font-family:'Roboto Medium',sans-serif">20</text><text x="541" y="347" style="stroke:none;fill:rgb(70,70,70);font-size:12.8px;font-family:'Roboto Medium',sans-serif">3</text><text x="51" y="338" style="stroke:none;fill:rgb(70,70,70);font-size:12.8px;font-family:'Roboto Medium',sans-serif">9</text><text x="118" y="303" style="stroke:none;fill:rgb(70,70,70);font-size:12.8px;font-family:'Roboto Medium',sans-serif">26</text><text x="188" y="299" style="stroke:none;fill:rgb(70,70,70);font-size:12.8px;font-family:'Roboto Medium',sans-serif">28</text><text x="254" y="114" style="stroke:none;fill:rgb(70,70,70);font-size:12.8px;font-family:'Roboto Medium',sans-serif">144</text><text x="324" y="98" style="stroke:none;fill:rgb(70,70,70);font-size:12.8px;font-family:'Roboto Medium',sans-serif">122</text><text x="398" y="273" style="stroke:none;fill:rgb(70,70,70);font-size:12.8px;font-family:'Roboto Medium',sans-serif">48</text><text x="468" y="314" style="stroke:none;fill:rgb(70,70,70);font-size:12.8px;font-family:'Roboto Medium',sans-serif">18</text><text x="541" y="345" style="stroke:none;fill:rgb(70,70,70);font-size:12.8px;font-family:'Roboto Medium',sans-serif">2</text><text x="48" y="262" style="stroke:none;fill:rgb(70,70,70);font-size:12.8px;font-family:'Roboto Medium',sans-serif">80</text><text x="118" y="265" style="stroke:none;fill:rgb(70,70,70);font-size:12.8px;font-family:'Roboto Medium',sans-serif">40</text><text x="188" y="272" style="stroke:none;fill:rgb(70,70,70);font-size:12.8px;font-family:'Roboto Medium',sans-serif">28</text><text x="258" y="87" style="stroke:none;fill:rgb(70,70,70);font-size:12.8px;font-family:'Roboto Medium',sans-serif">28</text><text x="398" y="250" style="stroke:none;fill:rgb(70,70,70);font-size:12.8px;font-family:'Roboto Medium',sans-serif">24</text><text x="468" y="275" style="stroke:none;fill:rgb(70,70,70);font-size:12.8px;font-family:'Roboto Medium',sans-serif">40</text></svg>