<svg xmlns="http://www.w3.org/2000/svg" xmlns:xlink="http://www.w3.org/1999/xlink" viewBox="0 0 600 400"><path d="M 0 0
L 600 0
L 600 400
L 0 400
L 0 0" style="stroke:none;fill:white"/><text x="10" y="16" style="stroke:none;fill:blue;font-size:5.1px;font-family:'Roboto Medium',sans-serif">Line</text><path d="M 127 19
L 157 19" style="stroke-width:3;stroke:rgb(84,112,198);fill:none"/><circle cx="142" cy="19" r="5" style="stroke-width:3;stroke:rgb(84,112,198);fill:rgb(84,112,198)"/><text x="159" y="25" style="stroke:none;fill:blue;font-size:5.1px;font-family:'Roboto Medium',sans-serif">Email</text><path d="M 192 19
L 222 19" style="stroke-width:3;stroke:rgb(145,204,117);fill:none"/><circle cx="207" cy="19" r="5" style="stroke-width:3;stroke:rgb(145,204,117);fill:rgb(145,204,117)"/><text x="224" y="25" style="stroke:none;fill:blue;font-size:5.1px;font-family:'Roboto Medium',sans-serif">Union Ads</text><path d="M 268 19
L 298 19" style="stroke-width:3;stroke:rgb(250,200,88);fill:none"/><circle cx="283" cy="19" r="5" style="stroke-width:3;stroke:rgb(250,200,88);fill:rgb(250,200,88)"/><text x="300" y="25" style="stroke:none;fill:blue;font-size:5.1px;font-family:'Roboto Medium',sans-serif">Video Ads</text><path d="M 344 19
L 374 19" style="stroke-width:3;stroke:rgb(238,102,102);fill:none"/><circle cx="359" cy="19" r="5" style="stroke-width:3;stroke:rgb(238,102,102);fill:rgb(238,102,102)"/><text x="376" y="25" style="stroke:none;fill:blue;font-size:5.1px;font-family:'Roboto Medium',sans-serif">Direct</text><path d="M 410 19
L 440 19" style="stroke-width:3;stroke:rgb(115,192,222);fill:none"/><circle cx="425" cy="19" r="5" style="stroke-width:3;stroke:rgb(115,192,222);fill:rgb(115,192,222)"/><text x="442" y="25" style="stroke:none;fill:blue;font-size:5.1px;font-family:'Roboto Medium',sans-serif">Search Engine</text><text x="9" y="42" style="stroke:none;fill:rgb(70,70,70);font-size:15.3px;font-family:'Roboto Medium',sans-serif">1.6k</text><text x="9" y="82" style="stroke:none;fill:rgb(70,70,70);font-size:15.3px;font-family:'Roboto Medium',sans-serif">1.4k</text><text x="9" y="123" style="stroke:none;fill:rgb(70,70,70);font-size:15.3px;font-family:'Roboto Medium',sans-serif">1.2k</text><text x="22" y="164" style="stroke:none;fill:rgb(70,70,70);font-size:15.3px;font-family:'Roboto Medium',sans-serif">1k</text><text x="12" y="205" style="stroke:none;fill:rgb(70,70,70);font-size:15.3px;font-family:'Roboto Medium',sans-serif">800</text><text x="12" y="246" style="stroke:none;fill:rgb(70,70,70);font-size:15.3px;font-family:'Roboto Medium',sans-serif">600</text><text x="12" y="287" style="stroke:none;fill:rgb(70,70,70);font-size:15.3px;font-family:'Roboto Medium',sans-serif">400</text><text x="12" y="328" style="stroke:none;fill:rgb(70,70,70);font-size:15.3px;font-family:'Roboto Medium',sans-serif">200</text><text x="30" y="369" style="stroke:none;fill:rgb(70,70,70);font-size:15.3px;font-family:'Roboto Medium',sans-serif">0</text><path d="M 45 36
L 590 36" style="stroke-width:1;stroke:rgb(224,230,242);fill:none"/><path d="M 45 77
L 590 77" style="stroke-width:1;stroke:rgb(224,230,242);fill:none"/><path d="M 45 118
L 590 118" style="stroke-width:1;stroke:rgb(224,230,242);fill:none"/><path d="M 45 159
L 590 159" style="stroke-width:1;stroke:rgb(224,230,242);fill:none"/><path d="M 45 200
L 590 200" style="stroke-width:1;stroke:rgb(224,230,242);fill:none"/><path d="M 45 241
L 590 241" style="stroke-width:1;stroke:rgb(224,230,242);fill:none"/><path d="M 45 282
L 590 282" style="stroke-width:1;stroke:rgb(224,230,242);fill:none"/><path d="M 45 323
L 590 323" style="stroke-width:1;stroke:rgb(224,230,242);fill:none"/><path d="M 49 365
L 590 365" style="stroke-width:1;stroke:rgb(110,112,121);fill:none"/><path d="M 49 370
L 49 365" style="stroke-width:1;stroke:rgb(110,112,121);fill:none"/><path d="M 126 370
L 126 365" style="stroke-width:1;stroke:rgb(110,112,121);fill:none"/><path d="M 203 370
L 203 365" style="stroke-width:1;stroke:rgb(110,112,121);fill:none"/><path d="M 280 370
L 280 365" style="stroke-width:1;stroke:rgb(110,112,121);fill:none"/><path d="M 358 370
L 358 365" style="stroke-width:1;stroke:rgb(110,112,121);fill:none"/><path d="M 435 370
L 435 365" style="stroke-width:1;stroke:rgb(110,112,121);fill:none"/><path d="M 512 370
L 512 365" style="stroke-width:1;stroke:rgb(110,112,121);fill:none"/><path d="M 590 370
L 590 365" style="stroke-width:1;stroke:rgb(110,112,121);fill:none"/><text x="82" y="378" style="stroke:none;fill:blue;font-size:5.1px;font-family:'Roboto Medium',sans-serif">Mon</text><text x="160" y="378" style="stroke:none;fill:blue;font-size:5.1px;font-family:'Roboto Medium',sans-serif">Tue</text><text x="236" y="378" style="stroke:none;fill:blue;font-size:5.1px;font-family:'Roboto Medium',sans-serif">Wed</text><text x="315" y="378" style="stroke:none;fill:blue;font-size:5.1px;font-family:'Roboto Medium',sans-serif">Thu</text><text x="393" y="378" style="stroke:none;fill:blue;font-size:5.1px;font-family:'Roboto Medium',sans-serif">Fri</text><text x="469" y="378" style="stroke:none;fill:blue;font-size:5.1px;font-family:'Roboto Medium',sans-serif">Sat</text><text x="547" y="378" style="stroke:none;fill:blue;font-size:5.1px;font-family:'Roboto Medium',sans-serif">Sun</text><path d="M 87 341
L 164 338
L 241 345
L 319 338
L 396 347
L 473 318
L 551 322" style="stroke-width:2;stroke:rgb(84,112,198);fill:none"/><circle cx="87" cy="341" r="2" style="stroke-width:1;stroke:rgb(84,112,198);fill:white"/><circle cx="164" cy="338" r="2" style="stroke-width:1;stroke:rgb(84,112,198);fill:white"/><circle cx="241" cy="345" r="2" style="stroke-width:1;stroke:rgb(84,112,198);fill:white"/><circle cx="319" cy="338" r="2" style="stroke-width:1;stroke:rgb(84,112,198);fill:white"/><circle cx="396" cy="347" r="2" style="stroke-width:1;stroke:rgb(84,112,198);fill:white"/><circle cx="473" cy="318" r="2" style="stroke-width:1;stroke:rgb(84,112,198);fill:white"/><circle cx="551" cy="322" r="2" style="stroke-width:1;stroke:rgb(84,112,198);fill:white"/><path d="M 87 320
L 164 328
L 241 326
L 319 317
L 396 306
L 473 298
L 551 302" style="stroke-width:2;stroke:rgb(145,204,117);fill:none"/><circle cx="87" cy="320" r="2" style="stroke-width:1;stroke:rgb(145,204,117);fill:white"/><circle cx="164" cy="328" r="2" style="stroke-width:1;stroke:rgb(145,204,117);fill:white"/><circle cx="241" cy="326" r="2" style="stroke-width:1;stroke:rgb(145,204,117);fill:white"/><circle cx="319" cy="317" r="2" style="stroke-width:1;stroke:rgb(145,204,117);fill:white"/><circle cx="396" cy="306" r="2" style="stroke-width:1;stroke:rgb(145,204,117);fill:white"/><circle cx="473" cy="298" r="2" style="stroke-width:1;stroke:rgb(145,204,117);fill:white"/><circle cx="551" cy="302" r="2" style="stroke-width:1;stroke:rgb(145,204,117);fill:white"/><path d="M 87 335
L 164 318
L 241 324
L 319 334
L 396 326
L 473 298
L 551 281" style="stroke-width:2;stroke:rgb(250,200,88);fill:none"/><circle cx="87" cy="335" r="2" style="stroke-width:1;stroke:rgb(250,200,88);fill:white"/><circle cx="164" cy="318" r="2" style="stroke-width:1;stroke:rgb(250,200,88);fill:white"/><circle cx="241" cy="324" r="2" style="stroke-width:1;stroke:rgb(250,200,88);fill:white"/><circle cx="319" cy="334" r="2" style="stroke-width:1;stroke:rgb(250,200,88);fill:white"/><circle cx="396" cy="326" r="2" style="stroke-width:1;stroke:rgb(250,200,88);fill:white"/><circle cx="473" cy="298" r="2" style="stroke-width:1;stroke:rgb(250,200,88);fill:white"/><circle cx="551" cy="281" r="2" style="stroke-width:1;stroke:rgb(250,200,88);fill:white"/><path d="M 87 300
L 164 297
L 241 304
L 319 297
L 396 285
L 473 298
L 551 300" style="stroke-width:2;stroke:rgb(238,102,102);fill:none"/><circle cx="87" cy="300" r="2" style="stroke-width:1;stroke:rgb(238,102,102);fill:white"/><circle cx="164" cy="297" r="2" style="stroke-width:1;stroke:rgb(238,102,102);fill:white"/><circle cx="241" cy="304" r="2" style="stroke-width:1;stroke:rgb(238,102,102);fill:white"/><circle cx="319" cy="297" r="2" style="stroke-width:1;stroke:rgb(238,102,102);fill:white"/><circle cx="396" cy="285" r="2" style="stroke-width:1;stroke:rgb(238,102,102);fill:white"/><circle cx="473" cy="298" r="2" style="stroke-width:1;stroke:rgb(238,102,102);fill:white"/><circle cx="551" cy="300" r="2" style="stroke-width:1;stroke:rgb(238,102,102);fill:white"/><path d="M 87 197
L 164 174
L 241 180
L 319 173
L 396 100
L 473 92
L 551 94" style="stroke-width:2;stroke:rgb(115,192,222);fill:none"/><circle cx="87" cy="197" r="2" style="stroke-width:1;stroke:rgb(115,192,222);fill:white"/><circle cx="164" cy="174" r="2" style="stroke-width:1;stroke:rgb(115,192,222);fill:white"/><circle cx="241" cy="180" r="2" style="stroke-width:1;stroke:rgb(115,192,222);fill:white"/><circle cx="319" cy="173" r="2" style="stroke-width:1;stroke:rgb(115,192,222);fill:white"/><circle cx="396" cy="100" r="2" style="stroke-width:1;stroke:rgb(115,192,222);fill:white"/><circle cx="473" cy="92" r="2" style="stroke-width:1;stroke:rgb(115,192,222);fill:white"/><circle cx="551" cy="94" r="2" style="stroke-width:1;stroke:rgb(115,192,222);fill:white"/></svg>