<svg xmlns="http://www.w3.org/2000/svg" xmlns:xlink="http://www.w3.org/1999/xlink" viewBox="0 0 600 400"><path d="M 0 0
L 600 0
L 600 400
L 0 400
L 0 0" style="stroke:none;fill:white"/><text x="286" y="26" style="stroke:none;fill:rgb(70,70,70);font-size:15.3px;font-family:'Roboto Medium',sans-serif">Line</text><path d="M 490 19
L 520 19" style="stroke-width:3;stroke:rgb(84,112,198);fill:none"/><circle cx="505" cy="19" r="5" style="stroke-width:3;stroke:rgb(84,112,198);fill:rgb(84,112,198)"/><text x="522" y="25" style="stroke:none;fill:rgb(70,70,70);font-size:15.3px;font-family:'Roboto Medium',sans-serif">1</text><path d="M 551 19
L 581 19" style="stroke-width:3;stroke:rgb(145,204,117);fill:none"/><circle cx="566" cy="19" r="5" style="stroke-width:3;stroke:rgb(145,204,117);fill:rgb(145,204,117)"/><text x="583" y="25" style="stroke:none;fill:rgb(70,70,70);font-size:15.3px;font-family:'Roboto Medium',sans-serif">2</text><text x="9" y="52" style="stroke:none;fill:rgb(70,70,70);font-size:15.3px;font-family:'Roboto Medium',sans-serif">1.6k</text><text x="9" y="91" style="stroke:none;fill:rgb(70,70,70);font-size:15.3px;font-family:'Roboto Medium',sans-serif">1.4k</text><text x="9" y="131" style="stroke:none;fill:rgb(70,70,70);font-size:15.3px;font-family:'Roboto Medium',sans-serif">1.2k</text><text x="22" y="170" style="stroke:none;fill:rgb(70,70,70);font-size:15.3px;font-family:'Roboto Medium',sans-serif">1k</text><text x="12" y="210" style="stroke:none;fill:rgb(70,70,70);font-size:15.3px;font-family:'Roboto Medium',sans-serif">800</text><text x="12" y="250" style="stroke:none;fill:rgb(70,70,70);font-size:15.3px;font-family:'Roboto Medium',sans-serif">600</text><text x="12" y="289" style="stroke:none;fill:rgb(70,70,70);font-size:15.3px;font-family:'Roboto Medium',sans-serif">400</text><text x="12" y="329" style="stroke:none;fill:rgb(70,70,70);font-size:15.3px;font-family:'Roboto Medium',sans-serif">200</text><text x="30" y="369" style="stroke:none;fill:rgb(70,70,70);font-size:15.3px;font-family:'Roboto Medium',sans-serif">0</text><path d="M 45 46
L 590 46" style="stroke-width:1;stroke:rgb(224,230,242);fill:none"/><path d="M 45 85
L 590 85" style="stroke-width:1;stroke:rgb(224,230,242);fill:none"/><path d="M 45 125
L 590 125" style="stroke-width:1;stroke:rgb(224,230,242);fill:none"/><path d="M 45 165
L 590 165" style="stroke-width:1;stroke:rgb(224,230,242);fill:none"/><path d="M 45 205
L 590 205" style="stroke-width:1;stroke:rgb(224,230,242);fill:none"/><path d="M 45 245
L 590 245" style="stroke-width:1;stroke:rgb(224,230,242);fill:none"/><path d="M 45 285
L 590 285" style="stroke-width:1;stroke:rgb(224,230,242);fill:none"/><path d="M 45 325
L 590 325" style="stroke-width:1;stroke:rgb(224,230,242);fill:none"/><path d="M 49 365
L 590 365" style="stroke-width:1;stroke:rgb(110,112,121);fill:none"/><path d="M 49 370
L 49 365" style="stroke-width:1;stroke:rgb(110,112,121);fill:none"/><path d="M 126 370
L 126 365" style="stroke-width:1;stroke:rgb(110,112,121);fill:none"/><path d="M 203 370
L 203 365" style="stroke-width:1;stroke:rgb(110,112,121);fill:none"/><path d="M 280 370
L 280 365" style="stroke-width:1;stroke:rgb(110,112,121);fill:none"/><path d="M 358 370
L 358 365" style="stroke-width:1;stroke:rgb(110,112,121);fill:none"/><path d="M 435 370
L 435 365" style="stroke-width:1;stroke:rgb(110,112,121);fill:none"/><path d="M 512 370
L 512 365" style="stroke-width:1;stroke:rgb(110,112,121);fill:none"/><path d="M 590 370
L 590 365" style="stroke-width:1;stroke:rgb(110,112,121);fill:none"/><text x="82" y="388" style="stroke:none;fill:rgb(70,70,70);font-size:15.3px;font-family:'Roboto Medium',sans-serif">A</text><text x="159" y="388" style="stroke:none;fill:rgb(70,70,70);font-size:15.3px;font-family:'Roboto Medium',sans-serif">B</text><text x="236" y="388" style="stroke:none;fill:rgb(70,70,70);font-size:15.3px;font-family:'Roboto Medium',sans-serif">C</text><text x="314" y="388" style="stroke:none;fill:rgb(70,70,70);font-size:15.3px;font-family:'Roboto Medium',sans-serif">D</text><text x="392" y="388" style="stroke:none;fill:rgb(70,70,70);font-size:15.3px;font-family:'Roboto Medium',sans-serif">E</text><text x="469" y="388" style="stroke:none;fill:rgb(70,70,70);font-size:15.3px;font-family:'Roboto Medium',sans-serif">F</text><text x="546" y="388" style="stroke:none;fill:rgb(70,70,70);font-size:15.3px;font-family:'Roboto Medium',sans-serif">G</text><path d="M 87 342
L 164 339
L 241 345
L 319 339
L 396 348
L 473 320
L 551 324" style="stroke-width:2;stroke:rgb(84,112,198);fill:none"/><circle cx="87" cy="342" r="2" style="stroke-width:1;stroke:rgb(84,112,198);fill:white"/><circle cx="164" cy="339" r="2" style="stroke-width:1;stroke:rgb(84,112,198);fill:white"/><circle cx="241" cy="345" r="2" style="stroke-width:1;stroke:rgb(84,112,198);fill:white"/><circle cx="319" cy="339" r="2" style="stroke-width:1;stroke:rgb(84,112,198);fill:white"/><circle cx="396" cy="348" r="2" style="stroke-width:1;stroke:rgb(84,112,198);fill:white"/><circle cx="473" cy="320" r="2" style="stroke-width:1;stroke:rgb(84,112,198);fill:white"/><circle cx="551" cy="324" r="2" style="stroke-width:1;stroke:rgb(84,112,198);fill:white"/><path d="M 87 202
L 164 180
L 241 186
L 319 179
L 396 108
L 473 100
L 551 102" style="stroke-width:2;stroke:rgb(145,204,117);fill:none"/><circle cx="87" cy="202" r="2" style="stroke-width:1;stroke:rgb(145,204,117);fill:white"/><circle cx="164" cy="180" r="2" style="stroke-width:1;stroke:rgb(145,204,117);fill:white"/><circle cx="241" cy="186" r="2" style="stroke-width:1;stroke:rgb(145,204,117);fill:white"/><circle cx="319" cy="179" r="2" style="stroke-width:1;stroke:rgb(145,204,117);fill:white"/><circle cx="396" cy="108" r="2" style="stroke-width:1;stroke:rgb(145,204,117);fill:white"/><circle cx="473" cy="100" r="2" style="stroke-width:1;stroke:rgb(145,204,117);fill:white"/><circle cx="551" cy="102" r="2" style="stroke-width:1;stroke:rgb(145,204,117);fill:white"/></svg>