<svg xmlns="http://www.w3.org/2000/svg" xmlns:xlink="http://www.w3.org/1999/xlink" viewBox="0 0 600 400"><path d="M 0 0
L 600 0
L 600 400
L 0 400
L 0 0" style="stroke:none;fill:white"/><text x="10" y="26" style="stroke:none;fill:rgb(70,70,70);font-size:15.3px;font-family:'Roboto Medium',sans-serif">Line</text><path d="M 250 64
L 280 64" style="stroke-width:3;stroke:rgb(84,112,198);fill:none"/><circle cx="265" cy="64" r="5" style="stroke-width:3;stroke:rgb(84,112,198);fill:rgb(84,112,198)"/><text x="282" y="70" style="stroke:none;fill:rgb(70,70,70);font-size:15.3px;font-family:'Roboto Medium',sans-serif">1</text><path d="M 311 64
L 341 64" style="stroke-width:3;stroke:rgb(145,204,117);fill:none"/><circle cx="326" cy="64" r="5" style="stroke-width:3;stroke:rgb(145,204,117);fill:rgb(145,204,117)"/><text x="343" y="70" style="stroke:none;fill:rgb(70,70,70);font-size:15.3px;font-family:'Roboto Medium',sans-serif">2</text><path d="M 190 136
L 190 0
L 410 0
L 410 136
L 190 136" style="stroke-width:1;stroke:black;fill:none"/><path d="M 10 365
L 590 365" style="stroke-width:1;stroke:rgb(110,112,121);fill:none"/><path d="M 10 370
L 10 365" style="stroke-width:1;stroke:rgb(110,112,121);fill:none"/><path d="M 92 370
L 92 365" style="stroke-width:1;stroke:rgb(110,112,121);fill:none"/><path d="M 175 370
L 175 365" style="stroke-width:1;stroke:rgb(110,112,121);fill:none"/><path d="M 258 370
L 258 365" style="stroke-width:1;stroke:rgb(110,112,121);fill:none"/><path d="M 341 370
L 341 365" style="stroke-width:1;stroke:rgb(110,112,121);fill:none"/><path d="M 424 370
L 424 365" style="stroke-width:1;stroke:rgb(110,112,121);fill:none"/><path d="M 507 370
L 507 365" style="stroke-width:1;stroke:rgb(110,112,121);fill:none"/><path d="M 590 370
L 590 365" style="stroke-width:1;stroke:rgb(110,112,121);fill:none"/><text x="46" y="388" style="stroke:none;fill:rgb(70,70,70);font-size:15.3px;font-family:'Roboto Medium',sans-serif">A</text><text x="128" y="388" style="stroke:none;fill:rgb(70,70,70);font-size:15.3px;font-family:'Roboto Medium',sans-serif">B</text><text x="211" y="388" style="stroke:none;fill:rgb(70,70,70);font-size:15.3px;font-family:'Roboto Medium',sans-serif">C</text><text x="294" y="388" style="stroke:none;fill:rgb(70,70,70);font-size:15.3px;font-family:'Roboto Medium',sans-serif">D</text><text x="378" y="388" style="stroke:none;fill:rgb(70,70,70);font-size:15.3px;font-family:'Roboto Medium',sans-serif">E</text><text x="461" y="388" style="stroke:none;fill:rgb(70,70,70);font-size:15.3px;font-family:'Roboto Medium',sans-serif">F</text><text x="543" y="388" style="stroke:none;fill:rgb(70,70,70);font-size:15.3px;font-family:'Roboto Medium',sans-serif">G</text><path d="M 51 349
L 133 347
L 216 351
L 299 347
L 382 353
L 465 333
L 548 336" style="stroke-width:2;stroke:rgb(84,112,198);fill:none"/><circle cx="51" cy="349" r="2" style="stroke-width:1;stroke:rgb(84,112,198);fill:white"/><circle cx="133" cy="347" r="2" style="stroke-width:1;stroke:rgb(84,112,198);fill:white"/><circle cx="216" cy="351" r="2" style="stroke-width:1;stroke:rgb(84,112,198);fill:white"/><circle cx="299" cy="347" r="2" style="stroke-width:1;stroke:rgb(84,112,198);fill:white"/><circle cx="382" cy="353" r="2" style="stroke-width:1;stroke:rgb(84,112,198);fill:white"/><circle cx="465" cy="333" r="2" style="stroke-width:1;stroke:rgb(84,112,198);fill:white"/><circle cx="548" cy="336" r="2" style="stroke-width:1;stroke:rgb(84,112,198);fill:white"/><path d="M 51 251
L 133 235
L 216 239
L 299 235
L 382 185
L 465 179
L 548 181" style="stroke-width:2;stroke:rgb(145,204,117);fill:none"/><circle cx="51" cy="251" r="2" style="stroke-width:1;stroke:rgb(145,204,117);fill:white"/><circle cx="133" cy="235" r="2" style="stroke-width:1;stroke:rgb(145,204,117);fill:white"/><circle cx="216" cy="239" r="2" style="stroke-width:1;stroke:rgb(145,204,117);fill:white"/><circle cx="299" cy="235" r="2" style="stroke-width:1;stroke:rgb(145,204,117);fill:white"/><circle cx="382" cy="185" r="2" style="stroke-width:1;stroke:rgb(145,204,117);fill:white"/><circle cx="465" cy="179" r="2" style="stroke-width:1;stroke:rgb(145,204,117);fill:white"/><circle cx="548" cy="181" r="2" style="stroke-width:1;stroke:rgb(145,204,117);fill:white"/></svg>