<svg xmlns="http://www.w3.org/2000/svg" xmlns:xlink="http://www.w3.org/1999/xlink" viewBox="0 0 600 400"><path d="M 0 0
L 600 0
L 600 400
L 0 400
L 0 0" style="stroke:none;fill:white"/><text x="10" y="26" style="stroke:none;fill:rgb(70,70,70);font-size:15.3px;font-family:'Roboto Medium',sans-serif">Line</text><path d="M 250 324
L 280 324" style="stroke-width:3;stroke:rgb(84,112,198);fill:none"/><circle cx="265" cy="324" r="5" style="stroke-width:3;stroke:rgb(84,112,198);fill:rgb(84,112,198)"/><text x="282" y="330" style="stroke:none;fill:rgb(70,70,70);font-size:15.3px;font-family:'Roboto Medium',sans-serif">1</text><path d="M 311 324
L 341 324" style="stroke-width:3;stroke:rgb(145,204,117);fill:none"/><circle cx="326" cy="324" r="5" style="stroke-width:3;stroke:rgb(145,204,117);fill:rgb(145,204,117)"/><text x="343" y="330" style="stroke:none;fill:rgb(70,70,70);font-size:15.3px;font-family:'Roboto Medium',sans-serif">2</text><path d="M 190 396
L 190 260
L 410 260
L 410 396
L 190 396" style="stroke-width:1;stroke:black;fill:none"/><path d="M 10 234
L 590 234" style="stroke-width:1;stroke:rgb(110,112,121);fill:none"/><path d="M 10 239
L 10 234" style="stroke-width:1;stroke:rgb(110,112,121);fill:none"/><path d="M 92 239
L 92 234" style="stroke-width:1;stroke:rgb(110,112,121);fill:none"/><path d="M 175 239
L 175 234" style="stroke-width:1;stroke:rgb(110,112,121);fill:none"/><path d="M 258 239
L 258 234" style="stroke-width:1;stroke:rgb(110,112,121);fill:none"/><path d="M 341 239
L 341 234" style="stroke-width:1;stroke:rgb(110,112,121);fill:none"/><path d="M 424 239
L 424 234" style="stroke-width:1;stroke:rgb(110,112,121);fill:none"/><path d="M 507 239
L 507 234" style="stroke-width:1;stroke:rgb(110,112,121);fill:none"/><path d="M 590 239
L 590 234" style="stroke-width:1;stroke:rgb(110,112,121);fill:none"/><text x="46" y="257" style="stroke:none;fill:rgb(70,70,70);font-size:15.3px;font-family:'Roboto Medium',sans-serif">A</text><text x="128" y="257" style="stroke:none;fill:rgb(70,70,70);font-size:15.3px;font-family:'Roboto Medium',sans-serif">B</text><text x="211" y="257" style="stroke:none;fill:rgb(70,70,70);font-size:15.3px;font-family:'Roboto Medium',sans-serif">C</text><text x="294" y="257" style="stroke:none;fill:rgb(70,70,70);font-size:15.3px;font-family:'Roboto Medium',sans-serif">D</text><text x="378" y="257" style="stroke:none;fill:rgb(70,70,70);font-size:15.3px;font-family:'Roboto Medium',sans-serif">E</text><text x="461" y="257" style="stroke:none;fill:rgb(70,70,70);font-size:15.3px;font-family:'Roboto Medium',sans-serif">F</text><text x="543" y="257" style="stroke:none;fill:rgb(70,70,70);font-size:15.3px;font-family:'Roboto Medium',sans-serif">G</text><path d="M 51 220
L 133 219
L 216 222
L 299 218
L 382 224
L 465 207
L 548 209" style="stroke-width:2;stroke:rgb(84,112,198);fill:none"/><circle cx="51" cy="220" r="2" style="stroke-width:1;stroke:rgb(84,112,198);fill:white"/><circle cx="133" cy="219" r="2" style="stroke-width:1;stroke:rgb(84,112,198);fill:white"/><circle cx="216" cy="222" r="2" style="stroke-width:1;stroke:rgb(84,112,198);fill:white"/><circle cx="299" cy="218" r="2" style="stroke-width:1;stroke:rgb(84,112,198);fill:white"/><circle cx="382" cy="224" r="2" style="stroke-width:1;stroke:rgb(84,112,198);fill:white"/><circle cx="465" cy="207" r="2" style="stroke-width:1;stroke:rgb(84,112,198);fill:white"/><circle cx="548" cy="209" r="2" style="stroke-width:1;stroke:rgb(84,112,198);fill:white"/><path d="M 51 136
L 133 122
L 216 126
L 299 122
L 382 79
L 465 74
L 548 75" style="stroke-width:2;stroke:rgb(145,204,117);fill:none"/><circle cx="51" cy="136" r="2" style="stroke-width:1;stroke:rgb(145,204,117);fill:white"/><circle cx="133" cy="122" r="2" style="stroke-width:1;stroke:rgb(145,204,117);fill:white"/><circle cx="216" cy="126" r="2" style="stroke-width:1;stroke:rgb(145,204,117);fill:white"/><circle cx="299" cy="122" r="2" style="stroke-width:1;stroke:rgb(145,204,117);fill:white"/><circle cx="382" cy="79" r="2" style="stroke-width:1;stroke:rgb(145,204,117);fill:white"/><circle cx="465" cy="74" r="2" style="stroke-width:1;stroke:rgb(145,204,117);fill:white"/><circle cx="548" cy="75" r="2" style="stroke-width:1;stroke:rgb(145,204,117);fill:white"/></svg>