<svg xmlns="http://www.w3.org/2000/svg" xmlns:xlink="http://www.w3.org/1999/xlink" viewBox="0 0 600 400"><path d="M 0 0
L 600 0
L 600 400
L 0 400
L 0 0" style="stroke:none;fill:white"/><text x="9" y="16" style="stroke:none;fill:rgb(70,70,70);font-size:15.3px;font-family:'Roboto Medium',sans-serif">1.6k</text><text x="9" y="63" style="stroke:none;fill:rgb(70,70,70);font-size:15.3px;font-family:'Roboto Medium',sans-serif">1.4k</text><text x="9" y="110" style="stroke:none;fill:rgb(70,70,70);font-size:15.3px;font-family:'Roboto Medium',sans-serif">1.2k</text><text x="22" y="157" style="stroke:none;fill:rgb(70,70,70);font-size:15.3px;font-family:'Roboto Medium',sans-serif">1k</text><text x="12" y="205" style="stroke:none;fill:rgb(70,70,70);font-size:15.3px;font-family:'Roboto Medium',sans-serif">800</text><text x="12" y="252" style="stroke:none;fill:rgb(70,70,70);font-size:15.3px;font-family:'Roboto Medium',sans-serif">600</text><text x="12" y="299" style="stroke:none;fill:rgb(70,70,70);font-size:15.3px;font-family:'Roboto Medium',sans-serif">400</text><text x="12" y="346" style="stroke:none;fill:rgb(70,70,70);font-size:15.3px;font-family:'Roboto Medium',sans-serif">200</text><text x="30" y="394" style="stroke:none;fill:rgb(70,70,70);font-size:15.3px;font-family:'Roboto Medium',sans-serif">0</text><path d="M 45 10
L 590 10" style="stroke-width:1;stroke:rgb(224,230,242);fill:none"/><path d="M 45 57
L 590 57" style="stroke-width:1;stroke:rgb(224,230,242);fill:none"/><path d="M 45 105
L 590 105" style="stroke-width:1;stroke:rgb(224,230,242);fill:none"/><path d="M 45 152
L 590 152" style="stroke-width:1;stroke:rgb(224,230,242);fill:none"/><path d="M 45 200
L 590 200" style="stroke-width:1;stroke:rgb(224,230,242);fill:none"/><path d="M 45 247
L 590 247" style="stroke-width:1;stroke:rgb(224,230,242);fill:none"/><path d="M 45 295
L 590 295" style="stroke-width:1;stroke:rgb(224,230,242);fill:none"/><path d="M 45 342
L 590 342" style="stroke-width:1;stroke:rgb(224,230,242);fill:none"/><path d="M 87 362
Q164,359 194,362
Q241,367 272,363
Q319,359 349,363
Q396,369 426,355
Q473,336 504,338
Q473,336 551,341
L 551 390
L 87 390
L 87 362" style="stroke:none;fill:rgba(84,112,198,0.8)"/><path d="M 87 362
Q164,359 194,362
Q241,367 272,363
Q319,359 349,363
Q396,369 426,355
Q473,336 504,338
Q473,336 551,341" style="stroke-width:2;stroke:rgb(84,112,198);fill:none"/><path d="M 87 196
Q164,169 194,172
Q241,177 272,173
Q319,169 349,135
Q396,84 426,80
Q473,75 504,75
Q473,75 551,77
L 551 390
L 87 390
L 87 196" style="stroke:none;fill:rgba(145,204,117,0.8)"/><path d="M 87 196
Q164,169 194,172
Q241,177 272,173
Q319,169 349,135
Q396,84 426,80
Q473,75 504,75
Q473,75 551,77" style="stroke-width:2;stroke:rgb(145,204,117);fill:none"/></svg>