<svg xmlns="http://www.w3.org/2000/svg" xmlns:xlink="http://www.w3.org/1999/xlink" viewBox="0 0 600 400"><path d="M 0 0
L 600 0
L 600 400
L 0 400
L 0 0" style="stroke:none;fill:white"/><path d="M 51 362
L 133 359
L 216 367
L 299 359
L 382 369
L 465 336
L 548 341" style="stroke-width:2;stroke:rgb(84,112,198);fill:none"/><path d="M 51 196
L 133 169
L 216 177
L 299 169
L 382 84
L 465 75
L 548 77" style="stroke-width:2;stroke:rgb(145,204,117);fill:none"/><path d="M 378 362
A 14 14 330.00 1 1 386 362
L 382 348
Z" style="stroke:none;fill:rgb(84,112,198)"/><path d="M 368 348
Q382,383 396,348
Z" style="stroke:none;fill:rgb(84,112,198)"/><text x="375" y="353" style="stroke:none;fill:rgb(238,238,238);font-size:12.8px;font-family:'Roboto Medium',sans-serif">90</text><path d="M 461 329
A 14 14 330.00 1 1 469 329
L 465 315
Z" style="stroke:none;fill:rgb(84,112,198)"/><path d="M 451 315
Q465,350 479,315
Z" style="stroke:none;fill:rgb(84,112,198)"/><text x="454" y="320" style="stroke:none;fill:rgb(238,238,238);font-size:12.8px;font-family:'Roboto Medium',sans-serif">230</text><path d="M 47 189
A 14 14 330.00 1 1 55 189
L 51 175
Z" style="stroke:none;fill:rgb(145,204,117)"/><path d="M 37 175
Q51,210 65,175
Z" style="stroke:none;fill:rgb(145,204,117)"/><text x="40" y="180" style="stroke:none;fill:rgb(70,70,70);font-size:12.8px;font-family:'Roboto Medium',sans-serif">820</text><path d="M 461 68
A 14 14 330.00 1 1 469 68
L 465 54
Z" style="stroke:none;fill:rgb(145,204,117)"/><path d="M 451 54
Q465,89 479,54
Z" style="stroke:none;fill:rgb(145,204,117)"/><text x="458" y="59" style="stroke:none;fill:rgb(70,70,70);font-size:12.8px;font-family:'Roboto Medium',sans-serif">1k</text></svg>