<svg xmlns="http://www.w3.org/2000/svg" xmlns:xlink="http://www.w3.org/1999/xlink" viewBox="0 0 600 400"><path d="M 0 0
L 600 0
L 600 400
L 0 400
L 0 0" style="stroke:none;fill:white"/><text x="10" y="26" style="stroke:none;fill:rgb(70,70,70);font-size:15.3px;font-family:'Roboto Medium',sans-serif">Line</text><path d="M 21 35
L 51 35" style="stroke-width:3;stroke:rgb(84,112,198);fill:none"/><circle cx="36" cy="35" r="5" style="stroke-width:3;stroke:rgb(84,112,198);fill:rgb(84,112,198)"/><text x="53" y="41" style="stroke:none;fill:rgb(70,70,70);font-size:15.3px;font-family:'Roboto Medium',sans-serif">Email</text><path d="M 112 35
L 142 35" style="stroke-width:3;stroke:rgb(145,204,117);fill:none"/><circle cx="127" cy="35" r="5" style="stroke-width:3;stroke:rgb(145,204,117);fill:rgb(145,204,117)"/><text x="144" y="41" style="stroke:none;fill:rgb(70,70,70);font-size:15.3px;font-family:'Roboto Medium',sans-serif">Union Ads</text><path d="M 235 35
L 265 35" style="stroke-width:3;stroke:rgb(250,200,88);fill:none"/><circle cx="250" cy="35" r="5" style="stroke-width:3;stroke:rgb(250,200,88);fill:rgb(250,200,88)"/><text x="267" y="41" style="stroke:none;fill:rgb(70,70,70);font-size:15.3px;font-family:'Roboto Medium',sans-serif">Video Ads</text><path d="M 357 35
L 387 35" style="stroke-width:3;stroke:rgb(238,102,102);fill:none"/><circle cx="372" cy="35" r="5" style="stroke-width:3;stroke:rgb(238,102,102);fill:rgb(238,102,102)"/><text x="389" y="41" style="stroke:none;fill:rgb(70,70,70);font-size:15.3px;font-family:'Roboto Medium',sans-serif">Direct</text><path d="M 450 35
L 480 35" style="stroke-width:3;stroke:rgb(115,192,222);fill:none"/><circle cx="465" cy="35" r="5" style="stroke-width:3;stroke:rgb(115,192,222);fill:rgb(115,192,222)"/><text x="482" y="41" style="stroke:none;fill:rgb(70,70,70);font-size:15.3px;font-family:'Roboto Medium',sans-serif">Search Engine</text><path d="M 51 359
L 133 342
L 216 349
L 299 358
L 382 351
L 465 322
L 548 305" style="stroke-width:2;stroke:rgb(84,112,198);fill:none"/><circle cx="51" cy="359" r="2" style="stroke-width:1;stroke:rgb(84,112,198);fill:white"/><circle cx="133" cy="342" r="2" style="stroke-width:1;stroke:rgb(84,112,198);fill:white"/><circle cx="216" cy="349" r="2" style="stroke-width:1;stroke:rgb(84,112,198);fill:white"/><circle cx="299" cy="358" r="2" style="stroke-width:1;stroke:rgb(84,112,198);fill:white"/><circle cx="382" cy="351" r="2" style="stroke-width:1;stroke:rgb(84,112,198);fill:white"/><circle cx="465" cy="322" r="2" style="stroke-width:1;stroke:rgb(84,112,198);fill:white"/><circle cx="548" cy="305" r="2" style="stroke-width:1;stroke:rgb(84,112,198);fill:white"/><path d="M 51 324
L 133 321
L 216 328
L 299 321
L 382 309
L 465 322
L 548 324" style="stroke-width:2;stroke:rgb(145,204,117);fill:none"/><circle cx="51" cy="324" r="2" style="stroke-width:1;stroke:rgb(145,204,117);fill:white"/><circle cx="133" cy="321" r="2" style="stroke-width:1;stroke:rgb(145,204,117);fill:white"/><circle cx="216" cy="328" r="2" style="stroke-width:1;stroke:rgb(145,204,117);fill:white"/><circle cx="299" cy="321" r="2" style="stroke-width:1;stroke:rgb(145,204,117);fill:white"/><circle cx="382" cy="309" r="2" style="stroke-width:1;stroke:rgb(145,204,117);fill:white"/><circle cx="465" cy="322" r="2" style="stroke-width:1;stroke:rgb(145,204,117);fill:white"/><circle cx="548" cy="324" r="2" style="stroke-width:1;stroke:rgb(145,204,117);fill:white"/><path d="M 51 220
L 133 197
L 216 203
L 299 196
L 382 122
L 465 114
L 548 116" style="stroke-width:2;stroke:rgb(250,200,88);fill:none"/><circle cx="51" cy="220" r="2" style="stroke-width:1;stroke:rgb(250,200,88);fill:white"/><circle cx="133" cy="197" r="2" style="stroke-width:1;stroke:rgb(250,200,88);fill:white"/><circle cx="216" cy="203" r="2" style="stroke-width:1;stroke:rgb(250,200,88);fill:white"/><circle cx="299" cy="196" r="2" style="stroke-width:1;stroke:rgb(250,200,88);fill:white"/><circle cx="382" cy="122" r="2" style="stroke-width:1;stroke:rgb(250,200,88);fill:white"/><circle cx="465" cy="114" r="2" style="stroke-width:1;stroke:rgb(250,200,88);fill:white"/><circle cx="548" cy="116" r="2" style="stroke-width:1;stroke:rgb(250,200,88);fill:white"/><path d="M 51 366
L 133 363
L 216 369
L 299 363
L 382 372
L 465 343
L 548 347" style="stroke-width:2;stroke:rgb(238,102,102);fill:none"/><circle cx="51" cy="366" r="2" style="stroke-width:1;stroke:rgb(238,102,102);fill:white"/><circle cx="133" cy="363" r="2" style="stroke-width:1;stroke:rgb(238,102,102);fill:white"/><circle cx="216" cy="369" r="2" style="stroke-width:1;stroke:rgb(238,102,102);fill:white"/><circle cx="299" cy="363" r="2" style="stroke-width:1;stroke:rgb(238,102,102);fill:white"/><circle cx="382" cy="372" r="2" style="stroke-width:1;stroke:rgb(238,102,102);fill:white"/><circle cx="465" cy="343" r="2" style="stroke-width:1;stroke:rgb(238,102,102);fill:white"/><circle cx="548" cy="347" r="2" style="stroke-width:1;stroke:rgb(238,102,102);fill:white"/><path d="M 51 345
L 133 353
L 216 351
L 299 342
L 382 330
L 465 322
L 548 326" style="stroke-width:2;stroke:rgb(115,192,222);fill:none"/><circle cx="51" cy="345" r="2" style="stroke-width:1;stroke:rgb(115,192,222);fill:white"/><circle cx="133" cy="353" r="2" style="stroke-width:1;stroke:rgb(115,192,222);fill:white"/><circle cx="216" cy="351" r="2" style="stroke-width:1;stroke:rgb(115,192,222);fill:white"/><circle cx="299" cy="342" r="2" style="stroke-width:1;stroke:rgb(115,192,222);fill:white"/><circle cx="382" cy="330" r="2" style="stroke-width:1;stroke:rgb(115,192,222);fill:white"/><circle cx="465" cy="322" r="2" style="stroke-width:1;stroke:rgb(115,192,222);fill:white"/><circle cx="548" cy="326" r="2" style="stroke-width:1;stroke:rgb(115,192,222);fill:white"/><circle cx="13" cy="220" r="3" style="stroke-width:1;stroke:rgb(250,200,88);fill:rgb(250,200,88)"/><path stroke-dasharray="4.0, 2.0" d="M 19 220
L 572 220" style="stroke-width:1;stroke:rgb(250,200,88);fill:rgb(250,200,88)"/><path stroke-dasharray="4.0, 2.0" d="M 572 215
L 588 220
L 572 225
L 577 220
L 572 215" style="stroke-width:1;stroke:rgb(250,200,88);fill:rgb(250,200,88)"/><text x="590" y="224" style="stroke:none;fill:rgb(70,70,70);font-size:12.8px;font-family:'Roboto Medium',sans-serif">820</text></svg>