<svg xmlns="http://www.w3.org/2000/svg" xmlns:xlink="http://www.w3.org/1999/xlink" viewBox="0 0 600 400"><path d="M 0 0
L 600 0
L 600 400
L 0 400
L 0 0" style="stroke:none;fill:white"/><text x="554" y="26" style="stroke:none;fill:rgb(70,70,70);font-size:15.3px;font-family:'Roboto Medium',sans-serif">540</text><text x="554" y="81" style="stroke:none;fill:rgb(70,70,70);font-size:15.3px;font-family:'Roboto Medium',sans-serif">450</text><text x="554" y="137" style="stroke:none;fill:rgb(70,70,70);font-size:15.3px;font-family:'Roboto Medium',sans-serif">360</text><text x="554" y="192" style="stroke:none;fill:rgb(70,70,70);font-size:15.3px;font-family:'Roboto Medium',sans-serif">270</text><text x="554" y="248" style="stroke:none;fill:rgb(70,70,70);font-size:15.3px;font-family:'Roboto Medium',sans-serif">180</text><text x="554" y="303" style="stroke:none;fill:rgb(70,70,70);font-size:15.3px;font-family:'Roboto Medium',sans-serif">90</text><text x="554" y="359" style="stroke:none;fill:rgb(70,70,70);font-size:15.3px;font-family:'Roboto Medium',sans-serif">0</text><text x="19" y="26" style="stroke:none;fill:rgb(70,70,70);font-size:15.3px;font-family:'Roboto Medium',sans-serif">6</text><text x="19" y="81" style="stroke:none;fill:rgb(70,70,70);font-size:15.3px;font-family:'Roboto Medium',sans-serif">5</text><text x="19" y="137" style="stroke:none;fill:rgb(70,70,70);font-size:15.3px;font-family:'Roboto Medium',sans-serif">4</text><text x="19" y="192" style="stroke:none;fill:rgb(70,70,70);font-size:15.3px;font-family:'Roboto Medium',sans-serif">3</text><text x="19" y="248" style="stroke:none;fill:rgb(70,70,70);font-size:15.3px;font-family:'Roboto Medium',sans-serif">2</text><text x="19" y="303" style="stroke:none;fill:rgb(70,70,70);font-size:15.3px;font-family:'Roboto Medium',sans-serif">1</text><text x="19" y="359" style="stroke:none;fill:rgb(70,70,70);font-size:15.3px;font-family:'Roboto Medium',sans-serif">0</text><path d="M 34 20
L 544 20" style="stroke-width:1;stroke:rgb(224,230,242);fill:none"/><path d="M 34 75
L 544 75" style="stroke-width:1;stroke:rgb(224,230,242);fill:none"/><path d="M 34 131
L 544 131" style="stroke-width:1;stroke:rgb(224,230,242);fill:none"/><path d="M 34 187
L 544 187" style="stroke-width:1;stroke:rgb(224,230,242);fill:none"/><path d="M 34 243
L 544 243" style="stroke-width:1;stroke:rgb(224,230,242);fill:none"/><path d="M 34 299
L 544 299" style="stroke-width:1;stroke:rgb(224,230,242);fill:none"/><path d="M 38 355
L 544 355" style="stroke-width:1;stroke:rgb(110,112,121);fill:none"/><path d="M 38 360
L 38 355" style="stroke-width:1;stroke:rgb(110,112,121);fill:none"/><path d="M 206 360
L 206 355" style="stroke-width:1;stroke:rgb(110,112,121);fill:none"/><path d="M 375 360
L 375 355" style="stroke-width:1;stroke:rgb(110,112,121);fill:none"/><path d="M 544 360
L 544 355" style="stroke-width:1;stroke:rgb(110,112,121);fill:none"/><text x="37" y="378" style="stroke:none;fill:rgb(70,70,70);font-size:15.3px;font-family:'Roboto Medium',sans-serif">a</text><text x="205" y="378" style="stroke:none;fill:rgb(70,70,70);font-size:15.3px;font-family:'Roboto Medium',sans-serif">b</text><text x="374" y="378" style="stroke:none;fill:rgb(70,70,70);font-size:15.3px;font-family:'Roboto Medium',sans-serif">c</text><text x="535" y="378" style="stroke:none;fill:rgb(70,70,70);font-size:15.3px;font-family:'Roboto Medium',sans-serif">d</text><path d="M 38 324
L 206 45
L 375 324
L 544 45" style="stroke-width:2;stroke:rgb(84,112,198);fill:none"/><circle cx="38" cy="324" r="2" style="stroke-width:1;stroke:rgb(84,112,198);fill:white"/><circle cx="206" cy="45" r="2" style="stroke-width:1;stroke:rgb(84,112,198);fill:white"/><circle cx="375" cy="324" r="2" style="stroke-width:1;stroke:rgb(84,112,198);fill:white"/><circle cx="544" cy="45" r="2" style="stroke-width:1;stroke:rgb(84,112,198);fill:white"/><path d="M 38 300
L 206 244
L 375 188
L 544 132
L 544 355
L 38 355
L 38 300" style="stroke:none;fill:rgba(145,204,117,0.8)"/><path d="M 38 300
L 206 244
L 375 188
L 544 132" style="stroke-width:2;stroke:rgb(145,204,117);fill:none"/><circle cx="38" cy="300" r="2" style="stroke-width:1;stroke:rgb(145,204,117);fill:white"/><circle cx="206" cy="244" r="2" style="stroke-width:1;stroke:rgb(145,204,117);fill:white"/><circle cx="375" cy="188" r="2" style="stroke-width:1;stroke:rgb(145,204,117);fill:white"/><circle cx="544" cy="132" r="2" style="stroke-width:1;stroke:rgb(145,204,117);fill:white"/><path d="M 38 76
L 206 76
L 375 76
L 544 76
L 544 132
L 375 188
L 206 244
L 38 300
L 38 76" style="stroke:none;fill:rgba(250,200,88,0.8)"/><path d="M 38 76
L 206 76
L 375 76
L 544 76" style="stroke-width:2;stroke:rgb(250,200,88);fill:none"/><circle cx="38" cy="76" r="2" style="stroke-width:1;stroke:rgb(250,200,88);fill:white"/><circle cx="206" cy="76" r="2" style="stroke-width:1;stroke:rgb(250,200,88);fill:white"/><circle cx="375" cy="76" r="2" style="stroke-width:1;stroke:rgb(250,200,88);fill:white"/><circle cx="544" cy="76" r="2" style="stroke-width:1;stroke:rgb(250,200,88);fill:white"/><path d="M 38 45
L 206 324
L 375 45
L 544 324" style="stroke-width:2;stroke:rgb(238,102,102);fill:none"/><circle cx="38" cy="45" r="2" style="stroke-width:1;stroke:rgb(238,102,102);fill:white"/><circle cx="206" cy="324" r="2" style="stroke-width:1;stroke:rgb(238,102,102);fill:white"/><circle cx="375" cy="45" r="2" style="stroke-width:1;stroke:rgb(238,102,102);fill:white"/><circle cx="544" cy="324" r="2" style="stroke-width:1;stroke:rgb(238,102,102);fill:white"/><circle cx="41" cy="132" r="3" style="stroke-width:1;stroke:rgb(145,204,117);fill:rgb(145,204,117)"/><path stroke-dasharray="4.0, 2.0" d="M 47 132
L 526 132" style="stroke-width:1;stroke:rgb(145,204,117);fill:rgb(145,204,117)"/><path stroke-dasharray="4.0, 2.0" d="M 526 127
L 542 132
L 526 137
L 531 132
L 526 127" style="stroke-width:1;stroke:rgb(145,204,117);fill:rgb(145,204,117)"/><text x="544" y="136" style="stroke:none;fill:rgb(70,70,70);font-size:12.8px;font-family:'Roboto Medium',sans-serif">4</text><circle cx="41" cy="76" r="3" style="stroke-width:1;stroke:rgb(211,211,211);fill:rgb(211,211,211)"/><path stroke-dasharray="4.0, 2.0" d="M 47 76
L 526 76" style="stroke-width:1;stroke:rgb(211,211,211);fill:rgb(211,211,211)"/><path stroke-dasharray="4.0, 2.0" d="M 526 71
L 542 76
L 526 81
L 531 76
L 526 71" style="stroke-width:1;stroke:rgb(211,211,211);fill:rgb(211,211,211)"/><text x="544" y="80" style="stroke:none;fill:rgb(70,70,70);font-size:12.8px;font-family:'Roboto Medium',sans-serif">5</text></svg>