<svg xmlns="http://www.w3.org/2000/svg" xmlns:xlink="http://www.w3.org/1999/xlink" viewBox="0 0 800 600"><path d="M 0 0
L 800 0
L 800 600
L 0 600
L 0 0" style="stroke:none;fill:white"/><text x="9" y="16" style="stroke:none;fill:rgb(70,70,70);font-size:15.3px;font-family:'Roboto Medium',sans-serif">150</text><text x="9" y="108" style="stroke:none;fill:rgb(70,70,70);font-size:15.3px;font-family:'Roboto Medium',sans-serif">140</text><text x="9" y="200" style="stroke:none;fill:rgb(70,70,70);font-size:15.3px;font-family:'Roboto Medium',sans-serif">130</text><text x="9" y="292" style="stroke:none;fill:rgb(70,70,70);font-size:15.3px;font-family:'Roboto Medium',sans-serif">120</text><text x="9" y="384" style="stroke:none;fill:rgb(70,70,70);font-size:15.3px;font-family:'Roboto Medium',sans-serif">110</text><text x="9" y="476" style="stroke:none;fill:rgb(70,70,70);font-size:15.3px;font-family:'Roboto Medium',sans-serif">100</text><text x="18" y="569" style="stroke:none;fill:rgb(70,70,70);font-size:15.3px;font-family:'Roboto Medium',sans-serif">90</text><path d="M 42 10
L 790 10" style="stroke-width:1;stroke:rgb(224,230,242);fill:none"/><path d="M 42 102
L 790 102" style="stroke-width:1;stroke:rgb(224,230,242);fill:none"/><path d="M 42 195
L 790 195" style="stroke-width:1;stroke:rgb(224,230,242);fill:none"/><path d="M 42 287
L 790 287" style="stroke-width:1;stroke:rgb(224,230,242);fill:none"/><path d="M 42 380
L 790 380" style="stroke-width:1;stroke:rgb(224,230,242);fill:none"/><path d="M 42 472
L 790 472" style="stroke-width:1;stroke:rgb(224,230,242);fill:none"/><path d="M 46 565
L 790 565" style="stroke-width:1;stroke:rgb(110,112,121);fill:none"/><path d="M 46 570
L 46 565" style="stroke-width:1;stroke:rgb(110,112,121);fill:none"/><path d="M 194 570
L 194 565" style="stroke-width:1;stroke:rgb(110,112,121);fill:none"/><path d="M 343 570
L 343 565" style="stroke-width:1;stroke:rgb(110,112,121);fill:none"/><path d="M 492 570
L 492 565" style="stroke-width:1;stroke:rgb(110,112,121);fill:none"/><path d="M 641 570
L 641 565" style="stroke-width:1;stroke:rgb(110,112,121);fill:none"/><path d="M 790 570
L 790 565" style="stroke-width:1;stroke:rgb(110,112,121);fill:none"/><text x="116" y="588" style="stroke:none;fill:rgb(70,70,70);font-size:15.3px;font-family:'Roboto Medium',sans-serif">1</text><text x="264" y="588" style="stroke:none;fill:rgb(70,70,70);font-size:15.3px;font-family:'Roboto Medium',sans-serif">2</text><text x="413" y="588" style="stroke:none;fill:rgb(70,70,70);font-size:15.3px;font-family:'Roboto Medium',sans-serif">3</text><text x="562" y="588" style="stroke:none;fill:rgb(70,70,70);font-size:15.3px;font-family:'Roboto Medium',sans-serif">4</text><text x="711" y="588" style="stroke:none;fill:rgb(70,70,70);font-size:15.3px;font-family:'Roboto Medium',sans-serif">5</text><path d="M 120 380
L 120 427" style="stroke-width:1;stroke:rgb(34,197,94);fill:none"/><path d="M 120 473
L 120 519" style="stroke-width:1;stroke:rgb(34,197,94);fill:none"/><path d="M 91 380
L 149 380" style="stroke-width:1;stroke:rgb(34,197,94);fill:none"/><path d="M 91 519
L 149 519" style="stroke-width:1;stroke:rgb(34,197,94);fill:none"/><path d="M 61 427
L 179 427
L 179 473
L 61 473
L 61 427" style="stroke:none;fill:rgb(34,197,94)"/><path d="M 268 103
L 268 121" style="stroke-width:1;stroke:rgb(34,197,94);fill:none"/><path d="M 268 269
L 268 288" style="stroke-width:1;stroke:rgb(34,197,94);fill:none"/><path d="M 239 103
L 297 103" style="stroke-width:1;stroke:rgb(34,197,94);fill:none"/><path d="M 239 288
L 297 288" style="stroke-width:1;stroke:rgb(34,197,94);fill:none"/><path d="M 209 121
L 327 121
L 327 269
L 209 269
L 209 121" style="stroke:none;fill:rgb(34,197,94)"/><path d="M 417 66
L 417 75" style="stroke-width:1;stroke:rgb(34,197,94);fill:none"/><path d="M 417 84
L 417 103" style="stroke-width:1;stroke:rgb(34,197,94);fill:none"/><path d="M 388 66
L 446 66" style="stroke-width:1;stroke:rgb(34,197,94);fill:none"/><path d="M 388 103
L 446 103" style="stroke-width:1;stroke:rgb(34,197,94);fill:none"/><path d="M 358 75
L 476 75
L 476 84
L 358 84
L 358 75" style="stroke:none;fill:rgb(34,197,94)"/><path d="M 566 103
L 566 121" style="stroke-width:1;stroke:rgb(239,68,68);fill:none"/><path d="M 566 306
L 566 334" style="stroke-width:1;stroke:rgb(239,68,68);fill:none"/><path d="M 537 103
L 595 103" style="stroke-width:1;stroke:rgb(239,68,68);fill:none"/><path d="M 537 334
L 595 334" style="stroke-width:1;stroke:rgb(239,68,68);fill:none"/><path d="M 507 121
L 625 121
L 625 306
L 507 306
L 507 121" style="stroke:none;fill:rgb(239,68,68)"/><path d="M 715 269
L 715 288" style="stroke-width:1;stroke:rgb(34,197,94);fill:none"/><path d="M 715 306
L 715 334" style="stroke-width:1;stroke:rgb(34,197,94);fill:none"/><path d="M 686 269
L 744 269" style="stroke-width:1;stroke:rgb(34,197,94);fill:none"/><path d="M 686 334
L 744 334" style="stroke-width:1;stroke:rgb(34,197,94);fill:none"/><path d="M 656 288
L 774 288
L 774 306
L 656 306
L 656 288" style="stroke:none;fill:rgb(34,197,94)"/><path d="M 571 293
L 653 293
L 653 293
A 4 4 90.00 0 1 657 297
L 657 310
L 657 310
A 4 4 90.00 0 1 653 314
L 571 314
L 571 314
A 4 4 90.00 0 1 567 310
L 567 297
L 567 297
A 4 4 90.00 0 1 571 293
Z" style="stroke-width:1.2;stroke:rgb(239,68,68);fill:rgba(255,255,255,0.7)"/><text x="571" y="310" style="stroke:none;fill:rgb(151,12,12);font-size:12.8px;font-family:'Roboto Medium',sans-serif">⁎ Evening Star</text></svg>