<svg xmlns="http://www.w3.org/2000/svg" xmlns:xlink="http://www.w3.org/1999/xlink" viewBox="0 0 800 600"><path d="M 0 0
L 800 0
L 800 600
L 0 600
L 0 0" style="stroke:none;fill:white"/><text x="9" y="16" style="stroke:none;fill:rgb(70,70,70);font-size:15.3px;font-family:'Roboto Medium',sans-serif">130</text><text x="9" y="88" style="stroke:none;fill:rgb(70,70,70);font-size:15.3px;font-family:'Roboto Medium',sans-serif">125</text><text x="9" y="160" style="stroke:none;fill:rgb(70,70,70);font-size:15.3px;font-family:'Roboto Medium',sans-serif">120</text><text x="9" y="232" style="stroke:none;fill:rgb(70,70,70);font-size:15.3px;font-family:'Roboto Medium',sans-serif">115</text><text x="9" y="305" style="stroke:none;fill:rgb(70,70,70);font-size:15.3px;font-family:'Roboto Medium',sans-serif">110</text><text x="9" y="377" style="stroke:none;fill:rgb(70,70,70);font-size:15.3px;font-family:'Roboto Medium',sans-serif">105</text><text x="9" y="449" style="stroke:none;fill:rgb(70,70,70);font-size:15.3px;font-family:'Roboto Medium',sans-serif">100</text><text x="18" y="521" style="stroke:none;fill:rgb(70,70,70);font-size:15.3px;font-family:'Roboto Medium',sans-serif">95</text><text x="18" y="594" style="stroke:none;fill:rgb(70,70,70);font-size:15.3px;font-family:'Roboto Medium',sans-serif">90</text><path d="M 42 10
L 790 10" style="stroke-width:1;stroke:rgb(224,230,242);fill:none"/><path d="M 42 82
L 790 82" style="stroke-width:1;stroke:rgb(224,230,242);fill:none"/><path d="M 42 155
L 790 155" style="stroke-width:1;stroke:rgb(224,230,242);fill:none"/><path d="M 42 227
L 790 227" style="stroke-width:1;stroke:rgb(224,230,242);fill:none"/><path d="M 42 300
L 790 300" style="stroke-width:1;stroke:rgb(224,230,242);fill:none"/><path d="M 42 372
L 790 372" style="stroke-width:1;stroke:rgb(224,230,242);fill:none"/><path d="M 42 445
L 790 445" style="stroke-width:1;stroke:rgb(224,230,242);fill:none"/><path d="M 42 517
L 790 517" style="stroke-width:1;stroke:rgb(224,230,242);fill:none"/><path d="M 99 300
L 99 373" style="stroke-width:1;stroke:rgb(34,197,94);fill:none"/><path d="M 99 445
L 99 518" style="stroke-width:1;stroke:rgb(34,197,94);fill:none"/><path d="M 78 300
L 120 300" style="stroke-width:1;stroke:rgb(34,197,94);fill:none"/><path d="M 78 518
L 120 518" style="stroke-width:1;stroke:rgb(34,197,94);fill:none"/><path d="M 57 373
L 141 373
L 141 445
L 57 445
L 57 373" style="stroke:none;fill:rgb(34,197,94)"/><path d="M 205 271
L 205 300" style="stroke-width:1;stroke:rgb(239,68,68);fill:none"/><path d="M 205 358
L 205 373" style="stroke-width:1;stroke:rgb(239,68,68);fill:none"/><path d="M 184 271
L 226 271" style="stroke-width:1;stroke:rgb(239,68,68);fill:none"/><path d="M 184 373
L 226 373" style="stroke-width:1;stroke:rgb(239,68,68);fill:none"/><path d="M 163 300
L 247 300
L 247 358
L 163 358
L 163 300" style="stroke:none;fill:rgb(239,68,68)"/><path d="M 311 228
L 311 242" style="stroke-width:1;stroke:rgb(34,197,94);fill:none"/><path d="M 311 387
L 311 402" style="stroke-width:1;stroke:rgb(34,197,94);fill:none"/><path d="M 290 228
L 332 228" style="stroke-width:1;stroke:rgb(34,197,94);fill:none"/><path d="M 290 402
L 332 402" style="stroke-width:1;stroke:rgb(34,197,94);fill:none"/><path d="M 269 242
L 353 242
L 353 387
L 269 387
L 269 242" style="stroke:none;fill:rgb(34,197,94)"/><path d="M 417 83
L 417 155" style="stroke-width:1;stroke:rgb(239,68,68);fill:none"/><path d="M 417 329
L 417 373" style="stroke-width:1;stroke:rgb(239,68,68);fill:none"/><path d="M 396 83
L 438 83" style="stroke-width:1;stroke:rgb(239,68,68);fill:none"/><path d="M 396 373
L 438 373" style="stroke-width:1;stroke:rgb(239,68,68);fill:none"/><path d="M 375 155
L 459 155
L 459 329
L 375 329
L 375 155" style="stroke:none;fill:rgb(239,68,68)"/><path d="M 524 387
L 524 402" style="stroke-width:1;stroke:rgb(34,197,94);fill:none"/><path d="M 524 416
L 524 445" style="stroke-width:1;stroke:rgb(34,197,94);fill:none"/><path d="M 503 387
L 545 387" style="stroke-width:1;stroke:rgb(34,197,94);fill:none"/><path d="M 503 445
L 545 445" style="stroke-width:1;stroke:rgb(34,197,94);fill:none"/><path d="M 482 402
L 566 402
L 566 416
L 482 416
L 482 402" style="stroke:none;fill:rgb(34,197,94)"/><path d="M 630 83
L 630 126" style="stroke-width:1;stroke:rgb(34,197,94);fill:none"/><path d="M 630 329
L 630 358" style="stroke-width:1;stroke:rgb(34,197,94);fill:none"/><path d="M 609 83
L 651 83" style="stroke-width:1;stroke:rgb(34,197,94);fill:none"/><path d="M 609 358
L 651 358" style="stroke-width:1;stroke:rgb(34,197,94);fill:none"/><path d="M 588 126
L 672 126
L 672 329
L 588 329
L 588 126" style="stroke:none;fill:rgb(34,197,94)"/><path d="M 736 39
L 736 83" style="stroke-width:1;stroke:rgb(34,197,94);fill:none"/><path d="M 736 126
L 736 155" style="stroke-width:1;stroke:rgb(34,197,94);fill:none"/><path d="M 715 39
L 757 39" style="stroke-width:1;stroke:rgb(34,197,94);fill:none"/><path d="M 715 155
L 757 155" style="stroke-width:1;stroke:rgb(34,197,94);fill:none"/><path d="M 694 83
L 778 83
L 778 126
L 694 126
L 694 83" style="stroke:none;fill:rgb(34,197,94)"/><path d="M 316 229
L 407 229
L 407 229
A 4 4 90.00 0 1 411 233
L 411 246
L 411 246
A 4 4 90.00 0 1 407 250
L 316 250
L 316 250
A 4 4 90.00 0 1 312 246
L 312 233
L 312 233
A 4 4 90.00 0 1 316 229
Z" style="stroke-width:1.2;stroke:rgb(34,197,94);fill:rgba(255,255,255,0.7)"/><text x="316" y="246" style="stroke:none;fill:rgb(12,75,35);font-size:12.8px;font-family:'Roboto Medium',sans-serif">Λ Bull Engulfing</text><path d="M 422 316
L 496 316
L 496 316
A 4 4 90.00 0 1 500 320
L 500 333
L 500 333
A 4 4 90.00 0 1 496 337
L 422 337
L 422 337
A 4 4 90.00 0 1 418 333
L 418 320
L 418 320
A 4 4 90.00 0 1 422 316
Z" style="stroke-width:1.2;stroke:rgb(239,68,68);fill:rgba(255,255,255,0.7)"/><text x="422" y="333" style="stroke:none;fill:rgb(151,12,12);font-size:12.8px;font-family:'Roboto Medium',sans-serif">Ξ Dark Cloud</text><path d="M 635 113
L 725 113
L 725 113
A 4 4 90.00 0 1 729 117
L 729 130
L 729 130
A 4 4 90.00 0 1 725 134
L 635 134
L 635 134
A 4 4 90.00 0 1 631 130
L 631 117
L 631 117
A 4 4 90.00 0 1 635 113
Z" style="stroke-width:1.2;stroke:rgb(34,197,94);fill:rgba(255,255,255,0.7)"/><text x="635" y="130" style="stroke:none;fill:rgb(12,75,35);font-size:12.8px;font-family:'Roboto Medium',sans-serif">✫ Morning Star</text></svg>