<svg xmlns="http://www.w3.org/2000/svg" xmlns:xlink="http://www.w3.org/1999/xlink" viewBox="0 0 800 600"><path d="M 0 0
L 800 0
L 800 600
L 0 600
L 0 0" style="stroke:none;fill:white"/><text x="9" y="16" style="stroke:none;fill:rgb(70,70,70);font-size:15.3px;font-family:'Roboto Medium',sans-serif">130</text><text x="9" y="88" style="stroke:none;fill:rgb(70,70,70);font-size:15.3px;font-family:'Roboto Medium',sans-serif">125</text><text x="9" y="160" style="stroke:none;fill:rgb(70,70,70);font-size:15.3px;font-family:'Roboto Medium',sans-serif">120</text><text x="9" y="232" style="stroke:none;fill:rgb(70,70,70);font-size:15.3px;font-family:'Roboto Medium',sans-serif">115</text><text x="9" y="305" style="stroke:none;fill:rgb(70,70,70);font-size:15.3px;font-family:'Roboto Medium',sans-serif">110</text><text x="9" y="377" style="stroke:none;fill:rgb(70,70,70);font-size:15.3px;font-family:'Roboto Medium',sans-serif">105</text><text x="9" y="449" style="stroke:none;fill:rgb(70,70,70);font-size:15.3px;font-family:'Roboto Medium',sans-serif">100</text><text x="18" y="521" style="stroke:none;fill:rgb(70,70,70);font-size:15.3px;font-family:'Roboto Medium',sans-serif">95</text><text x="18" y="594" style="stroke:none;fill:rgb(70,70,70);font-size:15.3px;font-family:'Roboto Medium',sans-serif">90</text><path d="M 42 10
L 790 10" style="stroke-width:1;stroke:rgb(224,230,242);fill:none"/><path d="M 42 82
L 790 82" style="stroke-width:1;stroke:rgb(224,230,242);fill:none"/><path d="M 42 155
L 790 155" style="stroke-width:1;stroke:rgb(224,230,242);fill:none"/><path d="M 42 227
L 790 227" style="stroke-width:1;stroke:rgb(224,230,242);fill:none"/><path d="M 42 300
L 790 300" style="stroke-width:1;stroke:rgb(224,230,242);fill:none"/><path d="M 42 372
L 790 372" style="stroke-width:1;stroke:rgb(224,230,242);fill:none"/><path d="M 42 445
L 790 445" style="stroke-width:1;stroke:rgb(224,230,242);fill:none"/><path d="M 42 517
L 790 517" style="stroke-width:1;stroke:rgb(224,230,242);fill:none"/><path d="M 92 300
L 92 373" style="stroke-width:1;stroke:rgb(34,197,94);fill:none"/><path d="M 92 445
L 92 518" style="stroke-width:1;stroke:rgb(34,197,94);fill:none"/><path d="M 74 300
L 110 300" style="stroke-width:1;stroke:rgb(34,197,94);fill:none"/><path d="M 74 518
L 110 518" style="stroke-width:1;stroke:rgb(34,197,94);fill:none"/><path d="M 55 373
L 129 373
L 129 445
L 55 445
L 55 373" style="stroke:none;fill:rgb(34,197,94)"/><path d="M 185 271
L 185 300" style="stroke-width:1;stroke:rgb(34,197,94);fill:none"/><path d="M 185 358
L 185 373" style="stroke-width:1;stroke:rgb(34,197,94);fill:none"/><path d="M 167 271
L 203 271" style="stroke-width:1;stroke:rgb(34,197,94);fill:none"/><path d="M 167 373
L 203 373" style="stroke-width:1;stroke:rgb(34,197,94);fill:none"/><path d="M 148 300
L 222 300
L 222 358
L 148 358
L 148 300" style="stroke:none;fill:rgb(34,197,94)"/><path d="M 278 228
L 278 242" style="stroke-width:1;stroke:rgb(239,68,68);fill:none"/><path d="M 278 387
L 278 402" style="stroke-width:1;stroke:rgb(239,68,68);fill:none"/><path d="M 260 228
L 296 228" style="stroke-width:1;stroke:rgb(239,68,68);fill:none"/><path d="M 260 402
L 296 402" style="stroke-width:1;stroke:rgb(239,68,68);fill:none"/><path d="M 241 242
L 315 242
L 315 387
L 241 387
L 241 242" style="stroke:none;fill:rgb(239,68,68)"/><path d="M 371 83
L 371 344" style="stroke-width:1;stroke:rgb(34,197,94);fill:none"/><path d="M 371 358
L 371 373" style="stroke-width:1;stroke:rgb(34,197,94);fill:none"/><path d="M 353 83
L 389 83" style="stroke-width:1;stroke:rgb(34,197,94);fill:none"/><path d="M 353 373
L 389 373" style="stroke-width:1;stroke:rgb(34,197,94);fill:none"/><path d="M 334 344
L 408 344
L 408 358
L 334 358
L 334 344" style="stroke:none;fill:rgb(34,197,94)"/><path d="M 446 155
L 482 155" style="stroke-width:1;stroke:rgb(239,68,68);fill:none"/><path d="M 446 445
L 482 445" style="stroke-width:1;stroke:rgb(239,68,68);fill:none"/><path d="M 427 155
L 501 155
L 501 445
L 427 445
L 427 155" style="stroke:none;fill:rgb(239,68,68)"/><path d="M 557 184
L 557 199" style="stroke-width:1;stroke:rgb(34,197,94);fill:none"/><path d="M 539 83
L 575 83" style="stroke-width:1;stroke:rgb(34,197,94);fill:none"/><path d="M 539 199
L 575 199" style="stroke-width:1;stroke:rgb(34,197,94);fill:none"/><path d="M 520 83
L 594 83
L 594 184
L 520 184
L 520 83" style="stroke:none;fill:rgb(34,197,94)"/><path d="M 650 39
L 650 54" style="stroke-width:1;stroke:rgb(239,68,68);fill:none"/><path d="M 650 141
L 650 155" style="stroke-width:1;stroke:rgb(239,68,68);fill:none"/><path d="M 632 39
L 668 39" style="stroke-width:1;stroke:rgb(239,68,68);fill:none"/><path d="M 632 155
L 668 155" style="stroke-width:1;stroke:rgb(239,68,68);fill:none"/><path d="M 613 54
L 687 54
L 687 141
L 613 141
L 613 54" style="stroke:none;fill:rgb(239,68,68)"/><path d="M 743 97
L 743 141" style="stroke-width:1;stroke:rgb(239,68,68);fill:none"/><path d="M 743 155
L 743 184" style="stroke-width:1;stroke:rgb(239,68,68);fill:none"/><path d="M 725 97
L 761 97" style="stroke-width:1;stroke:rgb(239,68,68);fill:none"/><path d="M 725 184
L 761 184" style="stroke-width:1;stroke:rgb(239,68,68);fill:none"/><path d="M 706 141
L 780 141
L 780 155
L 706 155
L 706 141" style="stroke:none;fill:rgb(239,68,68)"/><path d="M 283 374
L 378 374
L 378 374
A 4 4 90.00 0 1 382 378
L 382 391
L 382 391
A 4 4 90.00 0 1 378 395
L 283 395
L 283 395
A 4 4 90.00 0 1 279 391
L 279 378
L 279 378
A 4 4 90.00 0 1 283 374
Z" style="stroke-width:1.2;stroke:rgb(239,68,68);fill:rgba(255,255,255,0.7)"/><text x="283" y="391" style="stroke:none;fill:rgb(151,12,12);font-size:12.8px;font-family:'Roboto Medium',sans-serif">V Bear Engulfing</text><path d="M 376 325
L 466 325
L 466 325
A 4 4 90.00 0 1 470 329
L 470 355
L 470 355
A 4 4 90.00 0 1 466 359
L 376 359
L 376 359
A 4 4 90.00 0 1 372 355
L 372 329
L 372 329
A 4 4 90.00 0 1 376 325
Z" style="stroke-width:1.2;stroke:rgb(239,68,68);fill:rgba(255,255,255,0.7)"/><text x="376" y="342" style="stroke:none;fill:rgb(151,12,12);font-size:12.8px;font-family:'Roboto Medium',sans-serif">※ Shooting Star</text><text x="383" y="355" style="stroke:none;fill:rgb(151,12,12);font-size:12.8px;font-family:'Roboto Medium',sans-serif">† Gravestone</text><path d="M 469 426
L 571 426
L 571 426
A 4 4 90.00 0 1 575 430
L 575 456
L 575 456
A 4 4 90.00 0 1 571 460
L 469 460
L 469 460
A 4 4 90.00 0 1 465 456
L 465 430
L 465 430
A 4 4 90.00 0 1 469 426
Z" style="stroke-width:1.2;stroke:rgb(239,68,68);fill:rgba(255,255,255,0.7)"/><text x="469" y="443" style="stroke:none;fill:rgb(151,12,12);font-size:12.8px;font-family:'Roboto Medium',sans-serif">▼ Bear Marubozu</text><text x="472" y="456" style="stroke:none;fill:rgb(151,12,12);font-size:12.8px;font-family:'Roboto Medium',sans-serif">V Bear Engulfing</text><path d="M 655 128
L 729 128
L 729 128
A 4 4 90.00 0 1 733 132
L 733 145
L 733 145
A 4 4 90.00 0 1 729 149
L 655 149
L 655 149
A 4 4 90.00 0 1 651 145
L 651 132
L 651 132
A 4 4 90.00 0 1 655 128
Z" style="stroke-width:1.2;stroke:rgb(239,68,68);fill:rgba(255,255,255,0.7)"/><text x="655" y="145" style="stroke:none;fill:rgb(151,12,12);font-size:12.8px;font-family:'Roboto Medium',sans-serif">Ξ Dark Cloud</text></svg>