<svg xmlns="http://www.w3.org/2000/svg" xmlns:xlink="http://www.w3.org/1999/xlink" viewBox="0 0 800 600"><path d="M 0 0
L 800 0
L 800 600
L 0 600
L 0 0" style="stroke:none;fill:white"/><text x="9" y="16" style="stroke:none;fill:rgb(70,70,70);font-size:15.3px;font-family:'Roboto Medium',sans-serif">112.5</text><text x="22" y="77" style="stroke:none;fill:rgb(70,70,70);font-size:15.3px;font-family:'Roboto Medium',sans-serif">110</text><text x="9" y="138" style="stroke:none;fill:rgb(70,70,70);font-size:15.3px;font-family:'Roboto Medium',sans-serif">107.5</text><text x="22" y="200" style="stroke:none;fill:rgb(70,70,70);font-size:15.3px;font-family:'Roboto Medium',sans-serif">105</text><text x="9" y="261" style="stroke:none;fill:rgb(70,70,70);font-size:15.3px;font-family:'Roboto Medium',sans-serif">102.5</text><text x="22" y="323" style="stroke:none;fill:rgb(70,70,70);font-size:15.3px;font-family:'Roboto Medium',sans-serif">100</text><text x="18" y="384" style="stroke:none;fill:rgb(70,70,70);font-size:15.3px;font-family:'Roboto Medium',sans-serif">97.5</text><text x="31" y="446" style="stroke:none;fill:rgb(70,70,70);font-size:15.3px;font-family:'Roboto Medium',sans-serif">95</text><text x="18" y="507" style="stroke:none;fill:rgb(70,70,70);font-size:15.3px;font-family:'Roboto Medium',sans-serif">92.5</text><text x="31" y="569" style="stroke:none;fill:rgb(70,70,70);font-size:15.3px;font-family:'Roboto Medium',sans-serif">90</text><path d="M 55 10
L 790 10" style="stroke-width:1;stroke:rgb(224,230,242);fill:none"/><path d="M 55 71
L 790 71" style="stroke-width:1;stroke:rgb(224,230,242);fill:none"/><path d="M 55 133
L 790 133" style="stroke-width:1;stroke:rgb(224,230,242);fill:none"/><path d="M 55 195
L 790 195" style="stroke-width:1;stroke:rgb(224,230,242);fill:none"/><path d="M 55 256
L 790 256" style="stroke-width:1;stroke:rgb(224,230,242);fill:none"/><path d="M 55 318
L 790 318" style="stroke-width:1;stroke:rgb(224,230,242);fill:none"/><path d="M 55 380
L 790 380" style="stroke-width:1;stroke:rgb(224,230,242);fill:none"/><path d="M 55 441
L 790 441" style="stroke-width:1;stroke:rgb(224,230,242);fill:none"/><path d="M 55 503
L 790 503" style="stroke-width:1;stroke:rgb(224,230,242);fill:none"/><path d="M 59 565
L 790 565" style="stroke-width:1;stroke:rgb(110,112,121);fill:none"/><path d="M 59 570
L 59 565" style="stroke-width:1;stroke:rgb(110,112,121);fill:none"/><path d="M 302 570
L 302 565" style="stroke-width:1;stroke:rgb(110,112,121);fill:none"/><path d="M 546 570
L 546 565" style="stroke-width:1;stroke:rgb(110,112,121);fill:none"/><path d="M 790 570
L 790 565" style="stroke-width:1;stroke:rgb(110,112,121);fill:none"/><text x="176" y="588" style="stroke:none;fill:rgb(70,70,70);font-size:15.3px;font-family:'Roboto Medium',sans-serif">1</text><text x="420" y="588" style="stroke:none;fill:rgb(70,70,70);font-size:15.3px;font-family:'Roboto Medium',sans-serif">2</text><text x="664" y="588" style="stroke:none;fill:rgb(70,70,70);font-size:15.3px;font-family:'Roboto Medium',sans-serif">3</text><path d="M 180 72
L 180 195" style="stroke-width:1;stroke:rgb(34,197,94);fill:none"/><path d="M 180 319
L 180 442" style="stroke-width:1;stroke:rgb(34,197,94);fill:none"/><path d="M 132 72
L 228 72" style="stroke-width:1;stroke:rgb(34,197,94);fill:none"/><path d="M 132 442
L 228 442" style="stroke-width:1;stroke:rgb(34,197,94);fill:none"/><path d="M 83 195
L 277 195
L 277 319
L 83 319
L 83 195" style="stroke:none;fill:rgb(34,197,94)"/><path d="M 424 146
L 424 417" style="stroke-width:1;stroke:rgb(34,197,94);fill:none"/><path d="M 424 442
L 424 467" style="stroke-width:1;stroke:rgb(34,197,94);fill:none"/><path d="M 376 146
L 472 146" style="stroke-width:1;stroke:rgb(34,197,94);fill:none"/><path d="M 376 467
L 472 467" style="stroke-width:1;stroke:rgb(34,197,94);fill:none"/><path d="M 327 417
L 521 417
L 521 442
L 327 442
L 327 417" style="stroke:none;fill:rgb(34,197,94)"/><path d="M 668 269
L 668 368" style="stroke-width:1;stroke:rgb(34,197,94);fill:none"/><path d="M 668 417
L 668 541" style="stroke-width:1;stroke:rgb(34,197,94);fill:none"/><path d="M 620 269
L 716 269" style="stroke-width:1;stroke:rgb(34,197,94);fill:none"/><path d="M 620 541
L 716 541" style="stroke-width:1;stroke:rgb(34,197,94);fill:none"/><path d="M 571 368
L 765 368
L 765 417
L 571 417
L 571 368" style="stroke:none;fill:rgb(34,197,94)"/><path d="M 429 398
L 519 398
L 519 398
A 4 4 90.00 0 1 523 402
L 523 428
L 523 428
A 4 4 90.00 0 1 519 432
L 429 432
L 429 432
A 4 4 90.00 0 1 425 428
L 425 402
L 425 402
A 4 4 90.00 0 1 429 398
Z" style="stroke-width:1.2;stroke:rgb(200,200,200);fill:rgba(255,255,255,0.7)"/><text x="429" y="415" style="stroke:none;fill:rgb(128,128,128);font-size:12.8px;font-family:'Roboto Medium',sans-serif">※ Shooting Star</text><text x="432" y="428" style="stroke:none;fill:rgb(128,128,128);font-size:12.8px;font-family:'Roboto Medium',sans-serif">Ʇ Inv. Hammer</text></svg>