<svg xmlns="http://www.w3.org/2000/svg" xmlns:xlink="http://www.w3.org/1999/xlink" viewBox="0 0 800 600"><path d="M 0 0
L 800 0
L 800 600
L 0 600
L 0 0" style="stroke:none;fill:white"/><text x="9" y="16" style="stroke:none;fill:rgb(70,70,70);font-size:15.3px;font-family:'Roboto Medium',sans-serif">130</text><text x="9" y="85" style="stroke:none;fill:rgb(70,70,70);font-size:15.3px;font-family:'Roboto Medium',sans-serif">125</text><text x="9" y="154" style="stroke:none;fill:rgb(70,70,70);font-size:15.3px;font-family:'Roboto Medium',sans-serif">120</text><text x="9" y="223" style="stroke:none;fill:rgb(70,70,70);font-size:15.3px;font-family:'Roboto Medium',sans-serif">115</text><text x="9" y="292" style="stroke:none;fill:rgb(70,70,70);font-size:15.3px;font-family:'Roboto Medium',sans-serif">110</text><text x="9" y="361" style="stroke:none;fill:rgb(70,70,70);font-size:15.3px;font-family:'Roboto Medium',sans-serif">105</text><text x="9" y="430" style="stroke:none;fill:rgb(70,70,70);font-size:15.3px;font-family:'Roboto Medium',sans-serif">100</text><text x="18" y="499" style="stroke:none;fill:rgb(70,70,70);font-size:15.3px;font-family:'Roboto Medium',sans-serif">95</text><text x="18" y="569" style="stroke:none;fill:rgb(70,70,70);font-size:15.3px;font-family:'Roboto Medium',sans-serif">90</text><path d="M 42 10
L 790 10" style="stroke-width:1;stroke:rgb(224,230,242);fill:none"/><path d="M 42 79
L 790 79" style="stroke-width:1;stroke:rgb(224,230,242);fill:none"/><path d="M 42 148
L 790 148" style="stroke-width:1;stroke:rgb(224,230,242);fill:none"/><path d="M 42 218
L 790 218" style="stroke-width:1;stroke:rgb(224,230,242);fill:none"/><path d="M 42 287
L 790 287" style="stroke-width:1;stroke:rgb(224,230,242);fill:none"/><path d="M 42 356
L 790 356" style="stroke-width:1;stroke:rgb(224,230,242);fill:none"/><path d="M 42 426
L 790 426" style="stroke-width:1;stroke:rgb(224,230,242);fill:none"/><path d="M 42 495
L 790 495" style="stroke-width:1;stroke:rgb(224,230,242);fill:none"/><path d="M 46 565
L 790 565" style="stroke-width:1;stroke:rgb(110,112,121);fill:none"/><path d="M 46 570
L 46 565" style="stroke-width:1;stroke:rgb(110,112,121);fill:none"/><path d="M 294 570
L 294 565" style="stroke-width:1;stroke:rgb(110,112,121);fill:none"/><path d="M 542 570
L 542 565" style="stroke-width:1;stroke:rgb(110,112,121);fill:none"/><path d="M 790 570
L 790 565" style="stroke-width:1;stroke:rgb(110,112,121);fill:none"/><text x="166" y="588" style="stroke:none;fill:rgb(70,70,70);font-size:15.3px;font-family:'Roboto Medium',sans-serif">1</text><text x="414" y="588" style="stroke:none;fill:rgb(70,70,70);font-size:15.3px;font-family:'Roboto Medium',sans-serif">2</text><text x="662" y="588" style="stroke:none;fill:rgb(70,70,70);font-size:15.3px;font-family:'Roboto Medium',sans-serif">3</text><path d="M 170 288
L 170 357" style="stroke-width:1;stroke:rgb(34,197,94);fill:none"/><path d="M 170 427
L 170 496" style="stroke-width:1;stroke:rgb(34,197,94);fill:none"/><path d="M 121 288
L 219 288" style="stroke-width:1;stroke:rgb(34,197,94);fill:none"/><path d="M 121 496
L 219 496" style="stroke-width:1;stroke:rgb(34,197,94);fill:none"/><path d="M 71 357
L 269 357
L 269 427
L 71 427
L 71 357" style="stroke:none;fill:rgb(34,197,94)"/><path d="M 418 80
L 418 316" style="stroke-width:1;stroke:rgb(34,197,94);fill:none"/><path d="M 369 80
L 467 80" style="stroke-width:1;stroke:rgb(34,197,94);fill:none"/><path d="M 369 316
L 467 316" style="stroke-width:1;stroke:rgb(34,197,94);fill:none"/><path d="M 319 316
L 517 316" style="stroke-width:1;stroke:rgb(34,197,94);fill:none"/><path d="M 666 219
L 666 288" style="stroke-width:1;stroke:rgb(34,197,94);fill:none"/><path d="M 666 316
L 666 385" style="stroke-width:1;stroke:rgb(34,197,94);fill:none"/><path d="M 617 219
L 715 219" style="stroke-width:1;stroke:rgb(34,197,94);fill:none"/><path d="M 617 385
L 715 385" style="stroke-width:1;stroke:rgb(34,197,94);fill:none"/><path d="M 567 288
L 765 288
L 765 316
L 567 316
L 567 288" style="stroke:none;fill:rgb(34,197,94)"/><path d="M 423 284
L 513 284
L 513 284
A 4 4 90.00 0 1 517 288
L 517 340
L 517 340
A 4 4 90.00 0 1 513 344
L 423 344
L 423 344
A 4 4 90.00 0 1 419 340
L 419 288
L 419 288
A 4 4 90.00 0 1 423 284
Z" style="stroke-width:1.2;stroke:rgb(200,200,200);fill:rgba(255,255,255,0.7)"/><text x="423" y="301" style="stroke:none;fill:rgb(128,128,128);font-size:12.8px;font-family:'Roboto Medium',sans-serif">※ Shooting Star</text><text x="430" y="314" style="stroke:none;fill:rgb(128,128,128);font-size:12.8px;font-family:'Roboto Medium',sans-serif">† Gravestone</text><text x="449" y="327" style="stroke:none;fill:rgb(128,128,128);font-size:12.8px;font-family:'Roboto Medium',sans-serif">↔ Doji</text><text x="426" y="340" style="stroke:none;fill:rgb(128,128,128);font-size:12.8px;font-family:'Roboto Medium',sans-serif">Ʇ Inv. Hammer</text></svg>