<svg xmlns="http://www.w3.org/2000/svg" xmlns:xlink="http://www.w3.org/1999/xlink" viewBox="0 0 600 400"><path d="M 0 0
L 600 0
L 600 400
L 0 400
L 0 0" style="stroke:none;fill:white"/><path d="M 38 20
L 38 355" style="stroke-width:1;stroke:rgb(110,112,121);fill:none"/><path d="M 33 20
L 38 20" style="stroke-width:1;stroke:rgb(110,112,121);fill:none"/><path d="M 33 131
L 38 131" style="stroke-width:1;stroke:rgb(110,112,121);fill:none"/><path d="M 33 243
L 38 243" style="stroke-width:1;stroke:rgb(110,112,121);fill:none"/><path d="M 33 355
L 38 355" style="stroke-width:1;stroke:rgb(110,112,121);fill:none"/><text x="19" y="81" style="stroke:none;fill:rgb(70,70,70);font-size:15.3px;font-family:'Roboto Medium',sans-serif">0</text><text x="19" y="192" style="stroke:none;fill:rgb(70,70,70);font-size:15.3px;font-family:'Roboto Medium',sans-serif">1</text><text x="19" y="303" style="stroke:none;fill:rgb(70,70,70);font-size:15.3px;font-family:'Roboto Medium',sans-serif">2</text><path d="M 39 355
L 580 355" style="stroke-width:1;stroke:rgb(110,112,121);fill:none"/><path d="M 39 360
L 39 355" style="stroke-width:1;stroke:rgb(110,112,121);fill:none"/><path d="M 219 360
L 219 355" style="stroke-width:1;stroke:rgb(110,112,121);fill:none"/><path d="M 399 360
L 399 355" style="stroke-width:1;stroke:rgb(110,112,121);fill:none"/><path d="M 580 360
L 580 355" style="stroke-width:1;stroke:rgb(110,112,121);fill:none"/><text x="125" y="378" style="stroke:none;fill:rgb(70,70,70);font-size:15.3px;font-family:'Roboto Medium',sans-serif">0</text><text x="305" y="378" style="stroke:none;fill:rgb(70,70,70);font-size:15.3px;font-family:'Roboto Medium',sans-serif">1</text><text x="485" y="378" style="stroke:none;fill:rgb(70,70,70);font-size:15.3px;font-family:'Roboto Medium',sans-serif">2</text><path d="M 40 21
L 219 21
L 219 132
L 40 132
L 40 21" style="stroke:none;fill:rgb(235,239,250)"/><path d="M 219 21
L 399 21
L 399 132
L 219 132
L 219 21" style="stroke:none;fill:rgb(215,222,244)"/><path d="M 399 21
L 579 21
L 579 132
L 399 132
L 399 21" style="stroke:none;fill:rgb(195,206,239)"/><path d="M 40 132
L 219 132
L 219 243
L 40 243
L 40 132" style="stroke:none;fill:rgb(176,190,233)"/><path d="M 219 132
L 399 132
L 399 243
L 219 243
L 219 132" style="stroke:none;fill:rgb(157,174,226)"/><path d="M 399 132
L 579 132
L 579 243
L 399 243
L 399 132" style="stroke:none;fill:rgb(138,158,219)"/><path d="M 40 243
L 219 243
L 219 354
L 40 354
L 40 243" style="stroke:none;fill:rgb(120,142,212)"/><path d="M 219 243
L 399 243
L 399 354
L 219 354
L 219 243" style="stroke:none;fill:rgb(101,127,205)"/><path d="M 399 243
L 579 243
L 579 354
L 399 354
L 399 243" style="stroke:none;fill:rgb(83,111,198)"/><text x="134" y="83" style="stroke:none;fill:blue;font-size:17.9px;font-family:'Roboto Medium',sans-serif">1</text><text x="314" y="83" style="stroke:none;fill:blue;font-size:17.9px;font-family:'Roboto Medium',sans-serif">2</text><text x="494" y="83" style="stroke:none;fill:blue;font-size:17.9px;font-family:'Roboto Medium',sans-serif">3</text><text x="134" y="194" style="stroke:none;fill:blue;font-size:17.9px;font-family:'Roboto Medium',sans-serif">4</text><text x="314" y="194" style="stroke:none;fill:blue;font-size:17.9px;font-family:'Roboto Medium',sans-serif">5</text><text x="494" y="194" style="stroke:none;fill:blue;font-size:17.9px;font-family:'Roboto Medium',sans-serif">6</text><text x="134" y="305" style="stroke:none;fill:blue;font-size:17.9px;font-family:'Roboto Medium',sans-serif">7</text><text x="314" y="305" style="stroke:none;fill:blue;font-size:17.9px;font-family:'Roboto Medium',sans-serif">8</text><text x="494" y="305" style="stroke:none;fill:blue;font-size:17.9px;font-family:'Roboto Medium',sans-serif">9</text></svg>