<svg xmlns="http://www.w3.org/2000/svg" xmlns:xlink="http://www.w3.org/1999/xlink" viewBox="0 0 600 400"><path d="M 0 0
L 600 0
L 600 400
L 0 400
L 0 0" style="stroke:none;fill:white"/><path d="M 184 29
L 214 29" style="stroke-width:3;stroke:rgb(84,112,198);fill:none"/><circle cx="199" cy="29" r="5" style="stroke-width:3;stroke:rgb(84,112,198);fill:rgb(84,112,198)"/><text x="216" y="35" style="stroke:none;fill:rgb(70,70,70);font-size:15.3px;font-family:'Roboto Medium',sans-serif">Line Data</text><path d="M 301 29
L 331 29" style="stroke-width:3;stroke:rgb(145,204,117);fill:none"/><circle cx="316" cy="29" r="5" style="stroke-width:3;stroke:rgb(145,204,117);fill:rgb(145,204,117)"/><text x="333" y="35" style="stroke:none;fill:rgb(70,70,70);font-size:15.3px;font-family:'Roboto Medium',sans-serif">Scatter Data</text><text x="40" y="62" style="stroke:none;fill:rgb(70,70,70);font-size:15.3px;font-family:'Roboto Medium',sans-serif">500</text><text x="19" y="95" style="stroke:none;fill:rgb(70,70,70);font-size:15.3px;font-family:'Roboto Medium',sans-serif">454.44</text><text x="19" y="128" style="stroke:none;fill:rgb(70,70,70);font-size:15.3px;font-family:'Roboto Medium',sans-serif">408.89</text><text x="19" y="161" style="stroke:none;fill:rgb(70,70,70);font-size:15.3px;font-family:'Roboto Medium',sans-serif">363.33</text><text x="19" y="194" style="stroke:none;fill:rgb(70,70,70);font-size:15.3px;font-family:'Roboto Medium',sans-serif">317.78</text><text x="19" y="227" style="stroke:none;fill:rgb(70,70,70);font-size:15.3px;font-family:'Roboto Medium',sans-serif">272.22</text><text x="19" y="260" style="stroke:none;fill:rgb(70,70,70);font-size:15.3px;font-family:'Roboto Medium',sans-serif">226.67</text><text x="19" y="293" style="stroke:none;fill:rgb(70,70,70);font-size:15.3px;font-family:'Roboto Medium',sans-serif">181.11</text><text x="19" y="326" style="stroke:none;fill:rgb(70,70,70);font-size:15.3px;font-family:'Roboto Medium',sans-serif">135.56</text><text x="49" y="359" style="stroke:none;fill:rgb(70,70,70);font-size:15.3px;font-family:'Roboto Medium',sans-serif">90</text><path d="M 73 56
L 580 56" style="stroke-width:1;stroke:rgb(224,230,242);fill:none"/><path d="M 73 89
L 580 89" style="stroke-width:1;stroke:rgb(224,230,242);fill:none"/><path d="M 73 122
L 580 122" style="stroke-width:1;stroke:rgb(224,230,242);fill:none"/><path d="M 73 155
L 580 155" style="stroke-width:1;stroke:rgb(224,230,242);fill:none"/><path d="M 73 188
L 580 188" style="stroke-width:1;stroke:rgb(224,230,242);fill:none"/><path d="M 73 222
L 580 222" style="stroke-width:1;stroke:rgb(224,230,242);fill:none"/><path d="M 73 255
L 580 255" style="stroke-width:1;stroke:rgb(224,230,242);fill:none"/><path d="M 73 288
L 580 288" style="stroke-width:1;stroke:rgb(224,230,242);fill:none"/><path d="M 73 321
L 580 321" style="stroke-width:1;stroke:rgb(224,230,242);fill:none"/><path d="M 77 355
L 580 355" style="stroke-width:1;stroke:rgb(110,112,121);fill:none"/><path d="M 77 360
L 77 355" style="stroke-width:1;stroke:rgb(110,112,121);fill:none"/><path d="M 160 360
L 160 355" style="stroke-width:1;stroke:rgb(110,112,121);fill:none"/><path d="M 244 360
L 244 355" style="stroke-width:1;stroke:rgb(110,112,121);fill:none"/><path d="M 328 360
L 328 355" style="stroke-width:1;stroke:rgb(110,112,121);fill:none"/><path d="M 412 360
L 412 355" style="stroke-width:1;stroke:rgb(110,112,121);fill:none"/><path d="M 496 360
L 496 355" style="stroke-width:1;stroke:rgb(110,112,121);fill:none"/><path d="M 580 360
L 580 355" style="stroke-width:1;stroke:rgb(110,112,121);fill:none"/><text x="76" y="378" style="stroke:none;fill:rgb(70,70,70);font-size:15.3px;font-family:'Roboto Medium',sans-serif">Mon</text><text x="159" y="378" style="stroke:none;fill:rgb(70,70,70);font-size:15.3px;font-family:'Roboto Medium',sans-serif">Tue</text><text x="243" y="378" style="stroke:none;fill:rgb(70,70,70);font-size:15.3px;font-family:'Roboto Medium',sans-serif">Wed</text><text x="327" y="378" style="stroke:none;fill:rgb(70,70,70);font-size:15.3px;font-family:'Roboto Medium',sans-serif">Thu</text><text x="411" y="378" style="stroke:none;fill:rgb(70,70,70);font-size:15.3px;font-family:'Roboto Medium',sans-serif">Fri</text><text x="495" y="378" style="stroke:none;fill:rgb(70,70,70);font-size:15.3px;font-family:'Roboto Medium',sans-serif">Sat</text><text x="553" y="378" style="stroke:none;fill:rgb(70,70,70);font-size:15.3px;font-family:'Roboto Medium',sans-serif">Sun</text><path d="M 77 334
L 160 325
L 244 347
L 328 323
L 412 355
L 496 253
L 580 268" style="stroke-width:2;stroke:rgb(84,112,198);fill:none"/><circle cx="77" cy="334" r="2" style="stroke-width:1;stroke:rgb(84,112,198);fill:white"/><circle cx="160" cy="325" r="2" style="stroke-width:1;stroke:rgb(84,112,198);fill:white"/><circle cx="244" cy="347" r="2" style="stroke-width:1;stroke:rgb(84,112,198);fill:white"/><circle cx="328" cy="323" r="2" style="stroke-width:1;stroke:rgb(84,112,198);fill:white"/><circle cx="412" cy="355" r="2" style="stroke-width:1;stroke:rgb(84,112,198);fill:white"/><circle cx="496" cy="253" r="2" style="stroke-width:1;stroke:rgb(84,112,198);fill:white"/><circle cx="580" cy="268" r="2" style="stroke-width:1;stroke:rgb(84,112,198);fill:white"/><circle cx="77" cy="290" r="2" style="stroke-width:1;stroke:rgb(145,204,117);fill:rgb(145,204,117)"/><circle cx="160" cy="275" r="2" style="stroke-width:1;stroke:rgb(145,204,117);fill:rgb(145,204,117)"/><circle cx="244" cy="312" r="2" style="stroke-width:1;stroke:rgb(145,204,117);fill:rgb(145,204,117)"/><circle cx="328" cy="290" r="2" style="stroke-width:1;stroke:rgb(145,204,117);fill:rgb(145,204,117)"/><circle cx="412" cy="304" r="2" style="stroke-width:1;stroke:rgb(145,204,117);fill:rgb(145,204,117)"/><circle cx="496" cy="217" r="2" style="stroke-width:1;stroke:rgb(145,204,117);fill:rgb(145,204,117)"/><circle cx="580" cy="239" r="2" style="stroke-width:1;stroke:rgb(145,204,117);fill:rgb(145,204,117)"/></svg>