<svg xmlns="http://www.w3.org/2000/svg" xmlns:xlink="http://www.w3.org/1999/xlink" viewBox="0 0 600 400"><path d="M 0 0
L 600 0
L 600 400
L 0 400
L 0 0" style="stroke:none;fill:white"/><path d="M 184 29
L 214 29" style="stroke-width:3;stroke:rgb(84,112,198);fill:none"/><circle cx="199" cy="29" r="5" style="stroke-width:3;stroke:rgb(84,112,198);fill:rgb(84,112,198)"/><text x="216" y="35" style="stroke:none;fill:rgb(70,70,70);font-size:15.3px;font-family:'Roboto Medium',sans-serif">Scatter Data</text><path d="M 321 29
L 351 29" style="stroke-width:3;stroke:rgb(145,204,117);fill:none"/><circle cx="336" cy="29" r="5" style="stroke-width:3;stroke:rgb(145,204,117);fill:rgb(145,204,117)"/><text x="353" y="35" style="stroke:none;fill:rgb(70,70,70);font-size:15.3px;font-family:'Roboto Medium',sans-serif">Line Data</text><text x="550" y="62" style="stroke:none;fill:rgb(70,70,70);font-size:15.3px;font-family:'Roboto Medium',sans-serif">3</text><text x="550" y="111" style="stroke:none;fill:rgb(70,70,70);font-size:15.3px;font-family:'Roboto Medium',sans-serif">2.67</text><text x="550" y="161" style="stroke:none;fill:rgb(70,70,70);font-size:15.3px;font-family:'Roboto Medium',sans-serif">2.33</text><text x="550" y="210" style="stroke:none;fill:rgb(70,70,70);font-size:15.3px;font-family:'Roboto Medium',sans-serif">2</text><text x="550" y="260" style="stroke:none;fill:rgb(70,70,70);font-size:15.3px;font-family:'Roboto Medium',sans-serif">1.67</text><text x="550" y="309" style="stroke:none;fill:rgb(70,70,70);font-size:15.3px;font-family:'Roboto Medium',sans-serif">1.33</text><text x="550" y="359" style="stroke:none;fill:rgb(70,70,70);font-size:15.3px;font-family:'Roboto Medium',sans-serif">1</text><text x="19" y="62" style="stroke:none;fill:rgb(70,70,70);font-size:15.3px;font-family:'Roboto Medium',sans-serif">300</text><text x="19" y="111" style="stroke:none;fill:rgb(70,70,70);font-size:15.3px;font-family:'Roboto Medium',sans-serif">275</text><text x="19" y="161" style="stroke:none;fill:rgb(70,70,70);font-size:15.3px;font-family:'Roboto Medium',sans-serif">250</text><text x="19" y="210" style="stroke:none;fill:rgb(70,70,70);font-size:15.3px;font-family:'Roboto Medium',sans-serif">225</text><text x="19" y="260" style="stroke:none;fill:rgb(70,70,70);font-size:15.3px;font-family:'Roboto Medium',sans-serif">200</text><text x="19" y="309" style="stroke:none;fill:rgb(70,70,70);font-size:15.3px;font-family:'Roboto Medium',sans-serif">175</text><text x="19" y="359" style="stroke:none;fill:rgb(70,70,70);font-size:15.3px;font-family:'Roboto Medium',sans-serif">150</text><path d="M 52 56
L 540 56" style="stroke-width:1;stroke:rgb(224,230,242);fill:none"/><path d="M 52 105
L 540 105" style="stroke-width:1;stroke:rgb(224,230,242);fill:none"/><path d="M 52 155
L 540 155" style="stroke-width:1;stroke:rgb(224,230,242);fill:none"/><path d="M 52 205
L 540 205" style="stroke-width:1;stroke:rgb(224,230,242);fill:none"/><path d="M 52 255
L 540 255" style="stroke-width:1;stroke:rgb(224,230,242);fill:none"/><path d="M 52 305
L 540 305" style="stroke-width:1;stroke:rgb(224,230,242);fill:none"/><path d="M 56 355
L 540 355" style="stroke-width:1;stroke:rgb(110,112,121);fill:none"/><path d="M 56 360
L 56 355" style="stroke-width:1;stroke:rgb(110,112,121);fill:none"/><path d="M 136 360
L 136 355" style="stroke-width:1;stroke:rgb(110,112,121);fill:none"/><path d="M 217 360
L 217 355" style="stroke-width:1;stroke:rgb(110,112,121);fill:none"/><path d="M 298 360
L 298 355" style="stroke-width:1;stroke:rgb(110,112,121);fill:none"/><path d="M 378 360
L 378 355" style="stroke-width:1;stroke:rgb(110,112,121);fill:none"/><path d="M 459 360
L 459 355" style="stroke-width:1;stroke:rgb(110,112,121);fill:none"/><path d="M 540 360
L 540 355" style="stroke-width:1;stroke:rgb(110,112,121);fill:none"/><text x="55" y="378" style="stroke:none;fill:rgb(70,70,70);font-size:15.3px;font-family:'Roboto Medium',sans-serif">Mon</text><text x="135" y="378" style="stroke:none;fill:rgb(70,70,70);font-size:15.3px;font-family:'Roboto Medium',sans-serif">Tue</text><text x="216" y="378" style="stroke:none;fill:rgb(70,70,70);font-size:15.3px;font-family:'Roboto Medium',sans-serif">Wed</text><text x="297" y="378" style="stroke:none;fill:rgb(70,70,70);font-size:15.3px;font-family:'Roboto Medium',sans-serif">Thu</text><text x="377" y="378" style="stroke:none;fill:rgb(70,70,70);font-size:15.3px;font-family:'Roboto Medium',sans-serif">Fri</text><text x="458" y="378" style="stroke:none;fill:rgb(70,70,70);font-size:15.3px;font-family:'Roboto Medium',sans-serif">Sat</text><text x="513" y="378" style="stroke:none;fill:rgb(70,70,70);font-size:15.3px;font-family:'Roboto Medium',sans-serif">Sun</text><path d="M 56 326
L 136 281
L 217 341
L 298 236
L 378 296
L 459 191
L 540 251" style="stroke-width:2;stroke:rgb(145,204,117);fill:none"/><circle cx="56" cy="326" r="2" style="stroke-width:1;stroke:rgb(145,204,117);fill:white"/><circle cx="136" cy="281" r="2" style="stroke-width:1;stroke:rgb(145,204,117);fill:white"/><circle cx="217" cy="341" r="2" style="stroke-width:1;stroke:rgb(145,204,117);fill:white"/><circle cx="298" cy="236" r="2" style="stroke-width:1;stroke:rgb(145,204,117);fill:white"/><circle cx="378" cy="296" r="2" style="stroke-width:1;stroke:rgb(145,204,117);fill:white"/><circle cx="459" cy="191" r="2" style="stroke-width:1;stroke:rgb(145,204,117);fill:white"/><circle cx="540" cy="251" r="2" style="stroke-width:1;stroke:rgb(145,204,117);fill:white"/><circle cx="56" cy="296" r="2" style="stroke-width:1;stroke:rgb(84,112,198);fill:rgb(84,112,198)"/><circle cx="136" cy="256" r="2" style="stroke-width:1;stroke:rgb(84,112,198);fill:rgb(84,112,198)"/><circle cx="217" cy="355" r="2" style="stroke-width:1;stroke:rgb(84,112,198);fill:rgb(84,112,198)"/><circle cx="298" cy="296" r="2" style="stroke-width:1;stroke:rgb(84,112,198);fill:rgb(84,112,198)"/><circle cx="378" cy="336" r="2" style="stroke-width:1;stroke:rgb(84,112,198);fill:rgb(84,112,198)"/><circle cx="459" cy="96" r="2" style="stroke-width:1;stroke:rgb(84,112,198);fill:rgb(84,112,198)"/><circle cx="540" cy="156" r="2" style="stroke-width:1;stroke:rgb(84,112,198);fill:rgb(84,112,198)"/></svg>